<svg id="Group_840" data-name="Group 840" xmlns="http://www.w3.org/2000/svg" viewBox="0 0 74.596 82.534">
  <defs>
    <style>
      .cls-1 {
        fill: #fff;
      }
    </style>
  </defs>
  <path id="Path_1" data-name="Path 1" class="cls-1" d="M106.512-552.3a1.179,1.179,0,0,1-.6.389c-.239,0-.508.389-.463.628.015.075-.045.119-.135.119-.075,0-.1.06-.06.15.12.194-.314,1-.628,1.18-.149.09-.224.165-.164.165s-.09.344-.344.762a6.876,6.876,0,0,0-.613,1.449c-.09.388-.254.956-.359,1.255-.12.314-.164.568-.12.568.06,0,.015.1-.09.224s-.149.224-.1.224,0,.284-.12.613a3.945,3.945,0,0,0-.224.971c0,.194-.06.359-.149.359s-.1.09-.06.194a2.129,2.129,0,0,1-.149.822,2.012,2.012,0,0,0-.164.628,1.935,1.935,0,0,1-.224.657,1.633,1.633,0,0,0-.194.747c.06.045.03.09-.06.09s-.149.09-.164.179a3.278,3.278,0,0,1-.508,1.315c-.06,0-.075.09-.045.194.045.09-.075.254-.254.329a1.017,1.017,0,0,0-.463.672,2.017,2.017,0,0,1-.478.837,6,6,0,0,0-1.106,1.958.4.4,0,0,1-.015.194,15.512,15.512,0,0,0-.194,2.54l-.045,1.569-.882.1a2.032,2.032,0,0,0-.941.269,14.9,14.9,0,0,1-4.318-.015A13.339,13.339,0,0,0,87.715-530a6,6,0,0,1-1.375.12.175.175,0,0,0-.209.09.175.175,0,0,1-.209.09,1.588,1.588,0,0,0-.7.06,15.559,15.559,0,0,1-2.047.179,5.011,5.011,0,0,0-1.554.164.155.155,0,0,1-.209.03c-.075-.06-.134.03-.134.194,0,.194.209.344.762.508a2.862,2.862,0,0,0,.956.179.25.25,0,0,1,.3.074c.09.15-.628.254-1.046.164-.075-.015-.418-.045-.747-.06a2.437,2.437,0,0,1-.777-.135.5.5,0,0,0-.389-.015.409.409,0,0,1-.433-.224c-.239-.4-.568-.4-.568-.015,0,.164-.06.3-.134.3a9.7,9.7,0,0,0-2.451,2.839A14.748,14.748,0,0,1,75.7-523.7c-.657.986-.418,1.419.941,1.778a5.48,5.48,0,0,0,1.076.06,1.314,1.314,0,0,1,.792.134,2.48,2.48,0,0,0,1.644.015,21.855,21.855,0,0,1,3.781-.135,31.206,31.206,0,0,0,5.633-.254,1.065,1.065,0,0,0,.3-.074c0-.15,1.061-.209,3.407-.194,3.168,0,3.287.015,3.168.3a1.193,1.193,0,0,0-.075.344c0,.075-.194.164-.448.224a1.224,1.224,0,0,0-.448.164,4.669,4.669,0,0,0,.4.673c.4.6.4.627.12.822-.568.388-.672.523-.672.852s-.508.777-.747.628a.324.324,0,0,0-.329.015,2.5,2.5,0,0,1-.837.164c-.777.045-1.733.478-1.793.807s.6.478,1.36.269a9.006,9.006,0,0,1,1.614-.194l.971-.015-.03,1.255c-.03.971-.09,1.285-.269,1.39a.532.532,0,0,0-.239.418c0,.164-.06.3-.12.3s-.1.359-.06.807a2.542,2.542,0,0,1-.194,1.345,1.5,1.5,0,0,0-.209.583c.03.03.314.209.613.4a2.088,2.088,0,0,1,.657.672,2.2,2.2,0,0,1-.015,1.479.342.342,0,0,0-.1.359.83.83,0,0,1-.06.448,1.9,1.9,0,0,0-.194.642c-.045.373-.672.045-.822-.433-.149-.418-.194-.463-.418-.3a3.591,3.591,0,0,0-.493,1.913.172.172,0,0,1-.06.224.224.224,0,0,0-.075.284.29.29,0,0,1-.075.314.168.168,0,0,0-.09.224,2.169,2.169,0,0,1-.134.882,1.981,1.981,0,0,0-.134.822c.045.045.015.179-.075.284s-.149.239-.1.269a2.886,2.886,0,0,1-.134.837,2.511,2.511,0,0,0-.134.852c.045.045.015.18-.075.284-.1.12-.149.239-.1.269a3.77,3.77,0,0,1-.134.956,11.161,11.161,0,0,0-.224,1.2,8.5,8.5,0,0,1-.149,1.121,13.787,13.787,0,0,0-.1,1.569c-.03.822-.1,1.9-.149,2.391s-.1,1.091-.1,1.345a1.747,1.747,0,0,1-.149.628.3.3,0,0,0-.03.329,4.818,4.818,0,0,1-.09,1.24c-.09.6-.179,1.255-.194,1.464a1.571,1.571,0,0,1-.134.553.529.529,0,0,0-.015.4.576.576,0,0,1-.03.418,1.859,1.859,0,0,0-.164.568c-.09.672-.135.882-.224.986-.06.045-.06.179-.015.3s0,.209-.1.209-.164.179-.149.4c.045.7.015.792-.329.926a.657.657,0,0,1-.643-.06c-.269-.164-.374-.134-.867.284-.4.344-.538.553-.463.732.045.134.134.224.194.179a3.423,3.423,0,0,1,.986.209c.583.179.926.388,1.046.628a6.267,6.267,0,0,1-.06,2.929c-.12.224-.134.194-.134-.1-.015-1.345-.4-2.914-.478-1.928a21.222,21.222,0,0,0,.284,4.991,2.4,2.4,0,0,1,.06.867.357.357,0,0,0,.075.3.833.833,0,0,1,.149.4c.015.12.045.388.09.6s.06.508.075.672c.03.284.03.284.224.03a5.177,5.177,0,0,0,.09-2.57,1.426,1.426,0,0,1-.1-.6,4.309,4.309,0,0,0-.1-.882l-.1-.433.359.433a2.292,2.292,0,0,1,.433,1.434,3.907,3.907,0,0,1,0,1.091c-.1.1-.149.4-.269,1.943a7.832,7.832,0,0,1-.209,1.4c-.149.269.134.941.359.867a1.938,1.938,0,0,0,.523-.613c.329-.478.418-.538.792-.448.583.12.837-.134.956-.941.045-.359.179-.7.3-.747.3-.1.075-.493-.3-.493a1.313,1.313,0,0,0-.657.239c-.314.209-.329.209-.329-.149a3.561,3.561,0,0,1,.015-.478.38.38,0,0,0-.194-.239c-.284-.179.418-.762.792-.643.717.239,2.525-1.584,2.525-2.54,0-.12.06-.224.149-.224s.1-.1.06-.224a.461.461,0,0,1,.09-.448c.09-.12.134-.269.09-.344a4.984,4.984,0,0,1-.1-.971,1.734,1.734,0,0,0-.149-.852c-.209,0-.045-.747.179-.822.134-.045,1.554-.09,3.138-.1a18.7,18.7,0,0,0,3.571-.209c.9-.269,1.733-.269,1.838,0,.1.254,1.9.329,1.9.075a.134.134,0,0,0-.134-.134c-.209,0-.1-.448.149-.613a1.127,1.127,0,0,1,.523-.134.754.754,0,0,0,.478-.179,5.33,5.33,0,0,1,1.943-.224c2.391-.045,2.376-.045,3.437-.374.867-.269,1.464-.747,1.285-1.046-.045-.06,0-.12.075-.12a.164.164,0,0,0,.164-.149c0-.284-.583-.149-1.315.314a1.935,1.935,0,0,1-1.091.389l-.359-.06.344-.12c.179-.06.329-.179.329-.269s.045-.119.09-.06.209-.03.374-.164a1.248,1.248,0,0,1,.433-.269c.09-.015.194-.03.269-.045.06-.015.792-.03,1.629-.015l1.524.015.224-.418a3.411,3.411,0,0,1,.568-.747,8.7,8.7,0,0,1,2.256-1.15c.822-.135,2.5-1.449,2.5-1.972,0-.1.433-.329.956-.508a4.975,4.975,0,0,0,1.285-.6,2.5,2.5,0,0,1,.493-.344q.179-.067-.09-.359c-.254-.3-.254-.314.3-.6.344-.179.583-.418.613-.613.06-.433.463-.418,1.39.045a1.957,1.957,0,0,0,.882.3c.09-.06.149-.045.149.03,0,.224,1.823.075,2.331-.194.284-.149.508-.314.508-.373a4.075,4.075,0,0,1,.448-.658,4.385,4.385,0,0,0,.628-1.151,1.007,1.007,0,0,1,1.18-.822.563.563,0,0,0,.493-.209c.134-.164.194-.284.149-.284a2.841,2.841,0,0,1,.374-.852c.329-.613.418-.9.3-1.031s-.045-.418.239-1.016a2.786,2.786,0,0,1,.508-.837,2.811,2.811,0,0,0,.523-.867c.224-.463.478-.971.553-1.121a.523.523,0,0,0,.06-.4.165.165,0,0,1,.075-.224,2.983,2.983,0,0,0,.149-1.2c0-.777.06-1.166.224-1.33s.194-.314.075-.6a1.15,1.15,0,0,1-.06-.613.458.458,0,0,0-.075-.433,4.072,4.072,0,0,1-.164-1.689c.015-.807,0-1.509-.015-1.584s-.03-.149-.045-.224a1.731,1.731,0,0,0-.807-1.091,2.841,2.841,0,0,1-.777-.822,31.722,31.722,0,0,0-1.972-3.317.247.247,0,0,1-.12-.194,4.489,4.489,0,0,0-1.718-1.42,2.425,2.425,0,0,1-.852-.538,5.151,5.151,0,0,0-2.107-1.21c-.06.045-.1,0-.1-.1s-.045-.164-.09-.1a1.366,1.366,0,0,1-.657-.12,1.367,1.367,0,0,0-.658-.12c-.045.06-.09.015-.09-.075s-.1-.134-.224-.09c-.12.06-.224.03-.224-.06s-.134-.12-.3-.075a1.777,1.777,0,0,1-.941-.3,2.891,2.891,0,0,0-1.166-.389,5.085,5.085,0,0,1-1.33-.165.461.461,0,0,0-.209-.015,2.464,2.464,0,0,1-.6-.12,8.67,8.67,0,0,0-1.031-.254,8.331,8.331,0,0,1-1.166-.284c-.314-.12-.583-.164-.583-.12,0,.06-.075.03-.164-.06a.391.391,0,0,0-.374-.09c-.12.045-.209,0-.209-.1s-.09-.149-.209-.1a.654.654,0,0,1-.493-.119,1.847,1.847,0,0,0-.941-.224,2.188,2.188,0,0,1-1.031-.239,1.29,1.29,0,0,0-1-.165,1.994,1.994,0,0,1-.732-.015,3.741,3.741,0,0,0-2.451-.06c-.12.194-1.061.194-2.51,0-.882-.12-.807-.807.1-.956.7-.12.822-.284.613-.852-.149-.374-.12-.4.194-.4.284,0,.389.1.463.433.1.478.448.7.628.418a2.066,2.066,0,0,1,1.345-.643,5.822,5.822,0,0,0,.911-.224c.194-.075.418-.1.493-.045s.134,0,.134-.09.06-.134.134-.09.284-.045.478-.194a8.283,8.283,0,0,1,1.972-.852.349.349,0,0,0,.149-.06,7.114,7.114,0,0,1,1.076-.209,2.037,2.037,0,0,0,.448-.1,5.977,5.977,0,0,1,1.27-.209c.374-.06.956-.15,1.3-.239a2.183,2.183,0,0,1,.852-.045.576.576,0,0,0,.418-.03,1.36,1.36,0,0,1,.568-.149c.209-.015.672-.075,1.046-.135.374-.044.852-.119,1.061-.134a1.793,1.793,0,0,0,.553-.149.344.344,0,0,1,.314-.03c.075.045.314-.089.523-.284.493-.448.837-.478,1.18-.075a.818.818,0,0,0,.478.3c.12,0,.224.06.224.134a4.983,4.983,0,0,0,1.614.075c2.032-.06,2-.06,2.316-.329.134-.12.254-.179.254-.1,0,.06.1.015.254-.09s.269-.194.3-.179a.072.072,0,0,0,.09.03c.015,0,.134-.03.254-.06s.628-.209,1.121-.388a5.179,5.179,0,0,1,1.958-.3c.807.015,1.136-.03,1.315-.209a.819.819,0,0,0,.239-.389c0-.075.164-.135.374-.135a.518.518,0,0,0,.463-.224c.06-.149.209-.194.433-.134.284.075.344.015.4-.359a1,1,0,0,0-.867-1.166,9.11,9.11,0,0,0-2.331-.045,7.323,7.323,0,0,1-1.554-.045c-.045-.06-.179-.06-.3-.015a.483.483,0,0,1-.4-.06,6.935,6.935,0,0,0-1.674-.179,6.642,6.642,0,0,1-1.629-.164.322.322,0,0,0-.329-.045c-.12.045-.209.015-.209-.06a8.774,8.774,0,0,0-2.989.045,37.527,37.527,0,0,1-6.575.06c0-.09-.06-.134-.134-.075a.164.164,0,0,1-.224-.045,6.849,6.849,0,0,0-2.585.015c-.1.075-.194.075-.194,0,0-.06-.06-.045-.119.06a9.116,9.116,0,0,1-2.645.209,14.941,14.941,0,0,0-2.72.179.483.483,0,0,1-.4.06.391.391,0,0,0-.374.089c-.09.09-.164.12-.164.06s-.194-.015-.433.1c-.747.388-2.017-.149-1.853-.792.045-.149.015-.314-.06-.359a14.179,14.179,0,0,1,.03-3.318c.045-.329.09-.7.09-.822s.1-.583.224-1.031a2.664,2.664,0,0,0,.12-.926.175.175,0,0,1,.09-.209.175.175,0,0,0,.09-.209,2.4,2.4,0,0,1,.12-.882,2.064,2.064,0,0,0,.134-.837c-.045-.03-.015-.149.045-.254a1.479,1.479,0,0,0,.135-.493c.015-.179.12-.926.224-1.673a6.46,6.46,0,0,0-.015-2.466,10.7,10.7,0,0,1-.179-1.3c0-.089-.045-.179-.12-.179s-.134-.1-.134-.224c0-.344-.329-.971-.508-.971-.1,0-.164-.732-.164-2.241a11.239,11.239,0,0,0-.12-2.241c-.06,0-.1-.09-.09-.194.03-.329-.194-.852-.389-.852a1.375,1.375,0,0,1-.418-.075C106.961-552.641,106.707-552.506,106.512-552.3Zm1.33,33.039a1.828,1.828,0,0,1-.269.418,1.58,1.58,0,0,0-.3.837c0,.493.12.583.418.284a5.406,5.406,0,0,1,1.793-.448c.09-.015.179-.074.179-.134,0-.3.628.149.882.613a3.807,3.807,0,0,0,1.524,1.4c.12.015.583.12,1.031.209s.986.164,1.2.179a29.171,29.171,0,0,1,4.154.194.274.274,0,0,0,.314.03,1.42,1.42,0,0,1,.717.134,13.778,13.778,0,0,0,2.7.717.132.132,0,0,1,.179.12c0,.09.06.134.134.09a1.566,1.566,0,0,1,.747.135c.344.119.613.179.613.119,0-.045.09-.015.194.075a.62.62,0,0,0,.329.164,6.479,6.479,0,0,1,4.035,2.869,8.559,8.559,0,0,1,.732,2.54.175.175,0,0,0,.09.209.182.182,0,0,1,.075.239.3.3,0,0,0,.015.314,8.307,8.307,0,0,1,.1,3.721.413.413,0,0,0-.1.359,1.111,1.111,0,0,1-.224.672,1.213,1.213,0,0,0-.209.687c.045.12,0,.209-.1.209s-.12.06-.075.149c.1.179-.329,1.046-.523,1.046-.09,0-.149.1-.149.224,0,.209-.179.284-.478.239-.075,0-.12.045-.12.135,0,.075-.09.149-.209.149a9.859,9.859,0,0,0-3.108,1.689.691.691,0,0,0-.269.448,2.816,2.816,0,0,1-.717.956,6.237,6.237,0,0,0-.792.882,41.863,41.863,0,0,1-6.53,3.347.182.182,0,0,0-.179.179c0,.09-.045.134-.09.075-.06-.045-.284,0-.508.12a15.307,15.307,0,0,1-1.943.747,6.044,6.044,0,0,0-.762.284,1.191,1.191,0,0,1-.643.135c-.045-.06-.09-.015-.09.075,0,.1-.045.164-.1.149a11.481,11.481,0,0,0-1.464.388c-.732.239-1.494.448-1.674.478a6.264,6.264,0,0,0-.732.209.689.689,0,0,1-.523.06c-.075-.045-.135,0-.135.09a.132.132,0,0,1-.179.12,5.883,5.883,0,0,0-2.062.643c0,.344-1.4,1.479-2.2,1.793a6.761,6.761,0,0,1-2.944.359c-2.6,0-2.675-.06-1.763-1.449a10.487,10.487,0,0,0,.628-1.046c0-.045-.239-.134-.523-.179-.687-.135-.732-.269-.254-.807,1.255-1.39,1.554-1.913,1.21-2.122-.149-.1-.209-.418-.179-1.225a4.891,4.891,0,0,1,.239-2,.338.338,0,0,0,0-.3c-.045-.119,0-.209.1-.209s.134-.06.075-.149a1.2,1.2,0,0,1,.135-.657c.119-.284.179-.553.119-.6s.015-.09.12-.09.164-.045.1-.09.015-.314.149-.568a1.37,1.37,0,0,0,.224-.583c-.015-.06.03-.1.1-.1s.134-.433.12-.971c-.03-.837.015-1,.3-1.2s.314-.374.314-1.375c.015-.956.06-1.2.3-1.39.149-.12.254-.314.224-.4a.234.234,0,0,1,.09-.254c.09-.06.12-.3.06-.553a4.207,4.207,0,0,1,.09-1.3c.09-.463.194-1.2.224-1.6a6.358,6.358,0,0,1,.09-.792c.03-.015.045-.09.06-.164a.39.39,0,0,1,.134-.254.67.67,0,0,0,.1-.388c0-.149.075-.269.164-.269s.1-.075.06-.149a.358.358,0,0,1,.03-.344,3.053,3.053,0,0,0,.06-1.046c-.015-.464.015-.852.09-.852a6.729,6.729,0,0,0,.882-2.017,7.521,7.521,0,0,0,.134-1.27,2.244,2.244,0,0,1,1.225-2.361c.269-.179.448-.418.418-.523-.12-.314.971-.673,1.793-.583C107.469-519.319,107.813-519.274,107.842-519.259Z" transform="translate(-64.102 552.595)"/>
  <path id="Path_2" data-name="Path 2" class="cls-1" d="M308.85-481.564a2.966,2.966,0,0,1-.643.134,4.83,4.83,0,0,0-.672.1,1.534,1.534,0,0,1-.224.06c-.075.03-.179.06-.224.075s-1.225.09-2.944.135c-.224.015-.4.179-.568.508a3.823,3.823,0,0,1-.583.866,4.546,4.546,0,0,0-.852,1.435,1.914,1.914,0,0,1-.1.314c-.09.254.015.344.523.4.418.045,1.688-.613,1.688-.881a.916.916,0,0,1,.239-.4c.179-.209.4-.239,1.151-.179,1.121.09,1.3.284,1.3,1.3a6.083,6.083,0,0,1-.9,2.989c-.239.433-.4.837-.344.882.045.06,0,.1-.119.12s.015.075.3.134c.568.134,1.016-.06,1.15-.478a.593.593,0,0,1,.329-.329,2.836,2.836,0,0,0,.658-.448,4.127,4.127,0,0,1,1.345-.687,13.725,13.725,0,0,0,1.39-.523,5.419,5.419,0,0,1,1.614-.553c.06.015.1-.045.1-.134s.1-.134.224-.09a.257.257,0,0,0,.3-.03,7.132,7.132,0,0,1,2.391.03,8.244,8.244,0,0,1,1.793.7,5.785,5.785,0,0,0,2.047.6,1.633,1.633,0,0,0,.822-.359,2.348,2.348,0,0,1,1.375-.687,2.181,2.181,0,0,0,.717-.179,2.432,2.432,0,0,1,.956-.239c.314-.045.882-.583.882-.852,0-.179-.269-.224-1.435-.224a6.667,6.667,0,0,1-1.748-.164c-.389-.209-.852-.672-.852-.852a5.967,5.967,0,0,0-1.943-1.21,6.27,6.27,0,0,0-2.854.15,6.24,6.24,0,0,1-1.18.508,4.5,4.5,0,0,0-1.943,1.076,5.825,5.825,0,0,1-2.48,1.031.24.24,0,0,0-.284.06.594.594,0,0,1-.448.149c-.269,0-.329-.06-.269-.3.045-.164.135-.3.209-.3s.134-.119.134-.284a.412.412,0,0,1,.3-.359c.269-.075.3-.209.3-1.434,0-1.166-.045-1.375-.284-1.494A.454.454,0,0,0,308.85-481.564Z" transform="translate(-256.891 492.187)"/>
  <path id="Path_3" data-name="Path 3" class="cls-1" d="M24.843-312.517a1.918,1.918,0,0,0-.523.359c-.314.284-.389.284-.956.1s-.628-.179-.867.1a4.442,4.442,0,0,1-1.21.732,4.943,4.943,0,0,0-1.076.568c-.149.209-.553-.179-.792-.762s-.538-.628-1.33-.135a1.447,1.447,0,0,1-.807.269.385.385,0,0,0-.4.179.954.954,0,0,1-.463.314,7.715,7.715,0,0,0-.941.3,1.566,1.566,0,0,1-.717.164c-.1-.1-.643.4-.643.613,0,.1-.06.194-.12.194-.134,0-.493.284-1.27.971a3.294,3.294,0,0,1-1.913.822c-.568,0-.553-.284.015-.822a1.535,1.535,0,0,0,.448-.687.46.46,0,0,1,.329-.374,1.783,1.783,0,0,0,.613-.374,1.838,1.838,0,0,1,.807-.374c.269-.045.493-.149.493-.209s.194-.194.418-.284a4.412,4.412,0,0,0,.926-.628l.493-.448-.344-.239c-.194-.135-.374-.179-.433-.09a2.894,2.894,0,0,1-.807.4,1.388,1.388,0,0,0-.852.613c-.179.463-.643.7-1.4.732a3.033,3.033,0,0,0-1.584.687c-1.121.747-2.69,2.271-2.69,2.615,0,.119-.06.224-.149.224s-.1.194-.06.433c.12.6-.1.956-1.539,2.391a8.048,8.048,0,0,0-1.345,1.644,1.953,1.953,0,0,1-.478.762,7.212,7.212,0,0,0-1.106,2.5c0,.1-.06.194-.134.194s-.12.1-.12.239a.9.9,0,0,1-.359.523,2.7,2.7,0,0,0-.837,1.4.894.894,0,0,1-.314.463c-.523.463-.672.971-.717,2.226s.164,1.928.344,1.21c.045-.209.164-.388.239-.388.254,0,.164.374-.224.882-.344.478-.344.523-.12.971.134.254.374.658.538.9.254.359.314.687.329,1.718.03,1.375.194,1.823.777,2.092.269.12.344.12.344-.06,0-.448.329-.374.9.224a3.051,3.051,0,0,1,.6.762.147.147,0,0,0,.149.135c.09,0,.149.09.149.209a.35.35,0,0,0,.239.3c.134.06.209.134.164.179A5.53,5.53,0,0,0,5.522-283.9a7.149,7.149,0,0,0,3.063,1.928c.344.015.538.4.3.553-.12.075-.09.135.075.209.284.1.523,0,.792-.374s.628-.194.628.314a1.839,1.839,0,0,0,.777,1.449,4.566,4.566,0,0,0,1.4.194h1.076l.06-.448a.842.842,0,0,0-.045-.553,1.778,1.778,0,0,1-.209-.493c-.075-.284-.06-.329.06-.209a.72.72,0,0,0,.553.09c.284-.045.329-.1.194-.269-.09-.12-.224-.179-.284-.135a.165.165,0,0,1-.224-.075.182.182,0,0,0-.239-.075c-.075.06-.134.015-.134-.09s-.045-.149-.09-.1c-.194.209-4.5-1.659-5.021-2.167a6.941,6.941,0,0,0-.717-.553A18.659,18.659,0,0,1,5.3-286.875a3.536,3.536,0,0,0-.433-.508,2.221,2.221,0,0,1-.523-1.061c-.045-.329-.164-.6-.239-.6s-.149-.508-.149-1.181c0-1.091-.03-1.2-.314-1.285-.254-.09-.284-.134-.12-.239a1.19,1.19,0,0,1,.538-.135c.344,0,.389-.388.06-.583-.12-.075-.179-.359-.149-.732a1.728,1.728,0,0,0-.045-.717c-.06-.045-.045-.254.03-.448s.09-.359.03-.359,0-.09.12-.194a2.423,2.423,0,0,0,.374-.419c.09-.134.269-.418.418-.628.254-.359.254-.418.045-.837-.4-.777-.3-.882.538-.538.224.09.269.03.269-.344,0-.254-.06-.508-.149-.553-.3-.179-.149-.672.239-.822a5.549,5.549,0,0,0,1.016-.672,4.039,4.039,0,0,1,.747-.523,1.092,1.092,0,0,0,.359-.269c.164-.135.7-.628,1.225-1.076a14.54,14.54,0,0,0,2.69-2.615c0-.1.254-.374.568-.613.3-.224.7-.553.882-.717.463-.463.762-.687.882-.687a1.677,1.677,0,0,0,.523-.448,6.417,6.417,0,0,1,2.466-1.345,2.07,2.07,0,0,0,1.151-.777c.134-.224.329-.418.433-.418a3.8,3.8,0,0,0,.941-.374,7.3,7.3,0,0,1,.867-.374,1.674,1.674,0,0,0,.538-.3,11.312,11.312,0,0,1,3.96-1.2c.3,0,.538-.06.538-.149s.209-.239.448-.374c.359-.194.418-.269.269-.433A2.274,2.274,0,0,0,24.843-312.517Z" transform="translate(-0.079 348.454)"/>
</svg>
