<svg xmlns="http://www.w3.org/2000/svg" viewBox="0 0 92.825 110.426">
  <g id="g5438" transform="translate(-28.561 -60.467)">
    <g id="g5416" transform="translate(28.561 60.467)">
      <path id="path4587" d="M127.561,10.192a2.633,2.633,0,0,1-1.369-2.5,10.537,10.537,0,0,0-1.437-3.733s-2.209-2.913-4.616.569c-1.483,1.967-4.381,2.672-6.3.687-1.568-2.7.525-4.862,2.695-5.987,4.06-.962,4.824-.373,4.714-1.66-.5-2.71-2.841-3.82-4.709-5.336-2.078-1.7-2.641-4.126-1.546-6.092.782-3.058,1.134-3.31,1.506-6.115-.27-3.594-1.7-3.546-2.4-5.375,4.37.912,10.421,4.587,10.672,7.826.371,3.777,1.478,6.542,3.249,5.051,1.628-2.222,4.218-5.37,3.252-9.758,5.025,1.172,8.175,13.435,8.175,13.435-3.951-.349-8.549,1.944-6.576,4.411,4.25.62,7.125,1.015,10.393,5.913l-5.583,1.073c-5.471.94-4.864,8.858-10.12,7.585Z" transform="translate(-55.305 25.344)"/>
      <g id="g5325" transform="translate(0 41.685)">
        <g id="g5280" transform="translate(92.825 59.581) rotate(180)">
          <path id="path5276" d="M27.427,59.373A29.779,29.779,0,0,1,27.427,0V2.41a27.379,27.379,0,0,0,0,54.553Z" transform="translate(8.088 0.143)"/>
          <path id="path5278" d="M44.816,59.516c-.687-.057-12.895.5-19.43-.882C11.174,55.619,0,44.694,0,29.758A29.913,29.913,0,0,1,25.233.264C25.956.149,44.279.061,45.018,0V2.416c-.795.071-19.171.177-19.945.314A27.449,27.449,0,0,0,25,56.774c.8.143,18.993.252,19.811.326Z"/>
        </g>
        <g id="g5375" transform="translate(0)">
          <path id="path5371" d="M56.145,47.71a29.779,29.779,0,0,0,0,59.373v-2.41a27.379,27.379,0,0,1,0-54.553Z" transform="translate(-20.63 -47.645)"/>
          <path id="path5373" d="M60.126,47.667c-.687.057-12.895-.5-19.43.882C26.484,51.564,15.31,62.489,15.31,77.425a29.913,29.913,0,0,0,25.233,29.494c.723.114,19.046.2,19.785.264v-2.416c-.795-.071-19.171-.177-19.945-.314a27.449,27.449,0,0,1-.069-54.044c.8-.143,18.993-.252,19.811-.326Z" transform="translate(-15.31 -47.601)"/>
        </g>
      </g>
      <path id="circle4504" d="M74.24,43.878A29.733,29.733,0,1,0,104.175,73.61,29.852,29.852,0,0,0,74.24,43.878Zm0,2.4A27.328,27.328,0,1,1,46.71,73.61,27.411,27.411,0,0,1,74.24,46.283Z" transform="translate(-27.933 -2.122)"/>
      <g id="g5350" transform="translate(28.028 16.468)">
        <g id="g5395" transform="translate(0 0)">
          <g id="g5267">
            <g id="g5335" transform="translate(0 0)">
              <path id="path4525" d="M82.908,2.326l-5.226,8.043v.23L77.7,22.424H66.522v.209l-.146,0L63.006,26.81l.069,3.408H78V85.827l4.907,10.457,0-.139h2.424V30.218h10.5l4.1-5.237.024-2.557H85.336V2.4H82.913Zm0,2.148v17.95H79.124l-.014-11.6ZM66.563,24.981H82.908V90.044l-.039,2.5-3.44-7.169V28.714l-15.859.1Zm18.774,0H98.287l-2.812,3.734H85.336Z" transform="translate(-63.006 -2.326)"/>
            </g>
          </g>
          <path id="path5337" d="M91.565,20.7V14.984L93.3,12.059c.952-1.609,1.771-2.966,1.82-3.015s.089,3.839.089,8.639v8.728h-3.64Z" transform="translate(-75.305 -6.484)"/>
          <path id="path5382" d="M101.174,43.965v-2.1l6.91.492h7.078l-1.523,1.755-1.273,1.821h-5.457l-5.735-.153Z" transform="translate(-79.287 -19.702)"/>
          <path id="path5384" d="M82.936,106.9l-1.473-3.269V47.488l-7.454-1.526H65.932l1.281-1.618,1.324-2.329h8.413l8.256-.329.586,70.187a53.072,53.072,0,0,1-2.857-4.973Z" transform="translate(-65.277 -19.718)"/>
          <path id="path5386" d="M91.881,22.844l0-6.784L94.118,13.2c1.229-1.571,2.346-2.946,2.48-3.055a92.145,92.145,0,0,1,.245,9.641v9.839H91.879Z" transform="translate(-76.159 -8.627)"/>
        </g>
      </g>
    </g>
  </g>
</svg>
