<svg xmlns="http://www.w3.org/2000/svg" viewBox="0 0 253.59 280.576">
  <defs>
    <style>
      .cls-1 {
        opacity: 0.35;
      }
    </style>
  </defs>
  <g id="Group_876" data-name="Group 876" class="cls-1">
    <path id="Path_82" data-name="Path 82" d="M181.29-551.582a4.007,4.007,0,0,1-2.032,1.321c-.813,0-1.727,1.321-1.575,2.134.051.254-.152.406-.457.406-.254,0-.356.2-.2.509.406.661-1.067,3.4-2.133,4.013-.508.3-.762.56-.559.56s-.3,1.168-1.168,2.59a23.385,23.385,0,0,0-2.083,4.928c-.3,1.32-.863,3.251-1.219,4.266-.407,1.067-.559,1.931-.407,1.931.2,0,.051.355-.3.762s-.508.762-.355.762c.2,0,0,.965-.406,2.083a13.416,13.416,0,0,0-.762,3.3c0,.661-.2,1.22-.508,1.22-.254,0-.356.3-.2.66a7.237,7.237,0,0,1-.508,2.793,6.841,6.841,0,0,0-.559,2.134,6.582,6.582,0,0,1-.762,2.235,5.555,5.555,0,0,0-.66,2.54c.2.153.1.3-.2.3-.254,0-.508.3-.559.609-.1,1.22-1.372,4.471-1.727,4.471-.2,0-.254.3-.152.661.152.3-.254.863-.864,1.117a3.458,3.458,0,0,0-1.575,2.286,6.855,6.855,0,0,1-1.626,2.844c-1.168,1.067-3.861,5.893-3.759,6.655a1.348,1.348,0,0,1-.051.66c-.254.712-.508,3.81-.661,8.636l-.152,5.334-3,.355c-1.676.253-3.1.61-3.2.914-.254.711-12.852.66-14.681-.051-2.185-.813-10.058-.914-14.833-.152a20.417,20.417,0,0,1-4.673.407.6.6,0,0,0-.711.3.6.6,0,0,1-.711.3,5.4,5.4,0,0,0-2.388.2,52.894,52.894,0,0,1-6.959.609c-2.794.05-5.131.3-5.283.559a.528.528,0,0,1-.711.1c-.254-.2-.457.1-.457.66,0,.66.711,1.168,2.591,1.728a9.737,9.737,0,0,0,3.251.61.849.849,0,0,1,1.016.253c.3.508-2.133.864-3.556.559-.254-.051-1.422-.152-2.54-.2a8.3,8.3,0,0,1-2.642-.458,1.68,1.68,0,0,0-1.321-.051,1.39,1.39,0,0,1-1.473-.762c-.813-1.371-1.93-1.371-1.93-.051,0,.559-.2,1.016-.457,1.016-1.067,0-6.959,6.807-8.331,9.653a50.14,50.14,0,0,1-3.556,5.994c-2.235,3.352-1.422,4.825,3.2,6.044a18.664,18.664,0,0,0,3.657.2c1.27-.051,2.489.152,2.692.457.406.661,5.181.661,5.588.052.152-.306,5.486-.508,12.852-.458,10.972.051,15.087-.152,19.151-.864a3.629,3.629,0,0,0,1.016-.253c0-.509,3.607-.712,11.582-.661,10.769,0,11.176.051,10.769,1.016a4.055,4.055,0,0,0-.254,1.168c0,.255-.66.559-1.524.763a4.16,4.16,0,0,0-1.524.558,15.874,15.874,0,0,0,1.371,2.286c1.372,2.032,1.372,2.133.406,2.794-1.93,1.321-2.286,1.778-2.286,2.9,0,1.168-1.727,2.642-2.54,2.134a1.1,1.1,0,0,0-1.117.05,8.515,8.515,0,0,1-2.845.558c-2.642.152-5.893,1.625-6.1,2.743-.2,1.169,2.032,1.626,4.623.915a30.62,30.62,0,0,1,5.486-.661l3.3-.051-.1,4.268c-.1,3.3-.3,4.369-.914,4.724a1.807,1.807,0,0,0-.813,1.422c0,.559-.2,1.015-.406,1.015-.254,0-.356,1.22-.2,2.744a8.642,8.642,0,0,1-.661,4.572,5.092,5.092,0,0,0-.711,1.981c.1.1,1.067.711,2.083,1.371a7.1,7.1,0,0,1,2.235,2.286c.559,1.727.508,4.42-.051,5.029a1.162,1.162,0,0,0-.356,1.219,2.823,2.823,0,0,1-.2,1.524,6.466,6.466,0,0,0-.66,2.184c-.152,1.269-2.286.152-2.794-1.474-.508-1.422-.66-1.575-1.422-1.016-.813.661-2.133,5.741-1.676,6.5a.586.586,0,0,1-.2.762.763.763,0,0,0-.254.965.985.985,0,0,1-.254,1.067.571.571,0,0,0-.3.762,7.378,7.378,0,0,1-.457,3,6.734,6.734,0,0,0-.457,2.794c.152.153.051.609-.254.965-.356.406-.508.812-.356.914a9.808,9.808,0,0,1-.457,2.844,8.538,8.538,0,0,0-.457,2.895c.152.153.051.61-.254.965-.356.407-.508.813-.356.915a12.82,12.82,0,0,1-.457,3.251,37.949,37.949,0,0,0-.762,4.064,28.883,28.883,0,0,1-.508,3.81,46.88,46.88,0,0,0-.356,5.334c-.1,2.793-.356,6.451-.508,8.128s-.356,3.708-.356,4.571a5.936,5.936,0,0,1-.508,2.134,1.017,1.017,0,0,0-.1,1.117,16.381,16.381,0,0,1-.3,4.216c-.3,2.032-.61,4.268-.66,4.979a5.342,5.342,0,0,1-.457,1.879,1.8,1.8,0,0,0-.051,1.372,1.957,1.957,0,0,1-.1,1.422,6.322,6.322,0,0,0-.559,1.93c-.3,2.286-.457,3-.762,3.353-.2.152-.2.61-.051,1.016s0,.711-.356.711c-.3,0-.559.609-.508,1.371.152,2.388.051,2.693-1.118,3.15a2.233,2.233,0,0,1-2.184-.2c-.914-.559-1.27-.457-2.946.965-1.372,1.169-1.829,1.879-1.575,2.49.152.457.457.762.66.61a11.619,11.619,0,0,1,3.353.711c1.981.61,3.15,1.32,3.556,2.133.762,1.321.609,8.586-.2,9.956-.406.762-.457.661-.457-.355-.051-4.571-1.372-9.905-1.626-6.553a72.147,72.147,0,0,0,.965,16.967,8.177,8.177,0,0,1,.2,2.947,1.214,1.214,0,0,0,.254,1.016,2.832,2.832,0,0,1,.508,1.371c.051.406.152,1.321.3,2.032.1.711.2,1.727.254,2.286.1.965.1.965.762.1.762-.966,1.016-7.823.3-8.737a4.849,4.849,0,0,1-.356-2.032,14.655,14.655,0,0,0-.355-3l-.356-1.473,1.219,1.473c.914,1.118,1.27,2.286,1.473,4.877a13.282,13.282,0,0,1,0,3.708c-.356.356-.508,1.372-.914,6.6a26.627,26.627,0,0,1-.711,4.775c-.508.915.457,3.2,1.219,2.946a6.584,6.584,0,0,0,1.778-2.082c1.118-1.626,1.422-1.829,2.692-1.524,1.981.407,2.845-.457,3.251-3.2.152-1.219.61-2.388,1.016-2.54,1.016-.355.254-1.676-1.016-1.676a4.462,4.462,0,0,0-2.235.812c-1.067.711-1.118.711-1.118-.508a12.1,12.1,0,0,1,.051-1.625,1.291,1.291,0,0,0-.66-.813c-.965-.609,1.422-2.59,2.692-2.184,2.438.813,8.585-5.385,8.585-8.636,0-.406.2-.762.508-.762.254,0,.356-.356.2-.762a1.568,1.568,0,0,1,.3-1.524c.3-.406.457-.914.3-1.169a16.934,16.934,0,0,1-.356-3.3c-.051-1.575-.3-2.9-.508-2.9-.711,0-.152-2.54.61-2.794.457-.152,5.283-.3,10.668-.356,6.6-.051,10.617-.254,12.141-.711,3.048-.915,5.893-.915,6.248,0,.356.863,6.451,1.117,6.451.254a.455.455,0,0,0-.457-.457c-.711,0-.356-1.524.508-2.083a3.832,3.832,0,0,1,1.778-.456,2.564,2.564,0,0,0,1.625-.61c.407-.408,2.743-.661,6.6-.762,8.128-.153,8.077-.153,11.683-1.271,2.946-.914,4.978-2.54,4.369-3.556-.152-.2,0-.406.254-.406a.556.556,0,0,0,.559-.508c0-.965-1.981-.508-4.47,1.067-1.626.966-2.946,1.473-3.708,1.321l-1.219-.2,1.168-.406c.61-.2,1.118-.61,1.118-.914s.152-.406.3-.2c.153.152.711-.1,1.27-.559a4.248,4.248,0,0,1,1.473-.915c.3-.05.66-.1.915-.152.2-.051,2.692-.1,5.537-.051l5.181.051.762-1.422a11.589,11.589,0,0,1,1.93-2.541,29.589,29.589,0,0,1,7.671-3.911c2.794-.457,8.483-4.928,8.483-6.705,0-.356,1.473-1.118,3.251-1.727a16.913,16.913,0,0,0,4.369-2.032,8.486,8.486,0,0,1,1.676-1.168q.61-.229-.3-1.22c-.864-1.015-.864-1.066,1.016-2.032,1.168-.61,1.981-1.422,2.083-2.083.2-1.473,1.575-1.422,4.724.153,1.372.711,2.743,1.168,3,1.016.3-.2.508-.153.508.1,0,.762,6.2.254,7.925-.66.965-.508,1.727-1.066,1.727-1.27a13.853,13.853,0,0,1,1.524-2.235,14.906,14.906,0,0,0,2.134-3.912c.609-2.082,2.286-3.251,4.013-2.794a1.914,1.914,0,0,0,1.676-.711c.457-.558.66-.965.508-.965a9.655,9.655,0,0,1,1.27-2.9c1.117-2.083,1.422-3.048,1.016-3.505-.356-.457-.153-1.422.813-3.454a9.468,9.468,0,0,1,1.727-2.844,9.562,9.562,0,0,0,1.778-2.947c.762-1.574,1.626-3.3,1.88-3.81a1.78,1.78,0,0,0,.2-1.371.56.56,0,0,1,.254-.762c.254-.152.508-1.981.508-4.064,0-2.643.2-3.963.762-4.521s.66-1.067.254-2.032a3.907,3.907,0,0,1-.2-2.083,1.559,1.559,0,0,0-.254-1.473c-.406-.457-.61-2.59-.559-5.74.051-2.743,0-5.13-.051-5.385-.051-.2-.1-.508-.152-.761a5.883,5.883,0,0,0-2.743-3.709,9.656,9.656,0,0,1-2.642-2.794c-1.93-3.708-6.3-11.125-6.705-11.277a.84.84,0,0,1-.406-.661c0-.813-4.115-4.215-5.842-4.826a8.249,8.249,0,0,1-2.9-1.828c-1.422-1.575-6.705-4.572-7.162-4.115-.2.152-.356,0-.356-.355s-.152-.559-.3-.355a4.65,4.65,0,0,1-2.235-.407,4.65,4.65,0,0,0-2.235-.407c-.152.2-.3.051-.3-.254s-.356-.457-.762-.3c-.406.2-.762.1-.762-.2s-.457-.407-1.016-.254a6.043,6.043,0,0,1-3.2-1.016,9.828,9.828,0,0,0-3.962-1.321,17.289,17.289,0,0,1-4.521-.559,1.564,1.564,0,0,0-.711-.05,8.38,8.38,0,0,1-2.032-.407,29.544,29.544,0,0,0-3.505-.863,28.316,28.316,0,0,1-3.962-.965c-1.067-.407-1.981-.559-1.981-.407,0,.2-.254.1-.559-.2a1.33,1.33,0,0,0-1.27-.3c-.406.152-.711,0-.711-.355s-.3-.508-.711-.356a2.224,2.224,0,0,1-1.676-.406,6.279,6.279,0,0,0-3.2-.762,7.434,7.434,0,0,1-3.505-.813,4.386,4.386,0,0,0-3.4-.559,6.783,6.783,0,0,1-2.489-.05c-.965-.965-7.772-1.118-8.331-.2-.406.661-3.606.661-8.534,0-3-.407-2.743-2.744.356-3.251,2.388-.407,2.794-.965,2.083-2.9-.508-1.27-.406-1.372.66-1.372.965,0,1.321.356,1.575,1.474.356,1.626,1.524,2.387,2.133,1.422s2.489-1.88,4.572-2.184a19.8,19.8,0,0,0,3.1-.762c.66-.254,1.422-.355,1.676-.153.254.153.457,0,.457-.3s.2-.456.457-.3.965-.152,1.625-.66a28.159,28.159,0,0,1,6.706-2.9,1.19,1.19,0,0,0,.508-.2,24.184,24.184,0,0,1,3.658-.711,6.926,6.926,0,0,0,1.524-.355c0-.1,1.118-.3,4.318-.711,1.27-.2,3.251-.508,4.419-.813a7.417,7.417,0,0,1,2.9-.152,1.957,1.957,0,0,0,1.422-.1,4.617,4.617,0,0,1,1.93-.507c.711-.051,2.286-.254,3.556-.458,1.27-.151,2.9-.406,3.607-.457a6.09,6.09,0,0,0,1.88-.508,1.169,1.169,0,0,1,1.067-.1c.254.152,1.067-.3,1.778-.965,1.676-1.524,2.845-1.626,4.013-.255a2.78,2.78,0,0,0,1.626,1.017c.406,0,.762.2.762.457s2.438.356,5.486.254c6.909-.2,6.807-.2,7.874-1.117.457-.407.863-.611.863-.356,0,.2.356.051.864-.3.457-.406.914-.66,1.016-.61a.244.244,0,0,0,.3.1c.051,0,.457-.1.864-.2s2.134-.712,3.81-1.321a17.609,17.609,0,0,1,6.655-1.016c2.743.051,3.861-.1,4.47-.711a2.784,2.784,0,0,0,.813-1.321c0-.254.559-.458,1.27-.458a1.761,1.761,0,0,0,1.575-.762c.2-.508.711-.66,1.473-.457.965.254,1.168.051,1.371-1.219a3.4,3.4,0,0,0-2.946-3.962c-1.727-.3-1.524-.3-7.924-.152a24.9,24.9,0,0,1-5.283-.153c-.152-.2-.609-.2-1.016-.051a1.639,1.639,0,0,1-1.372-.2c-.3-.254-2.9-.508-5.69-.609a22.555,22.555,0,0,1-5.537-.559,1.1,1.1,0,0,0-1.118-.152c-.406.152-.711.05-.711-.2,0-.558-8.331-.457-10.16.153-2.083.66-22.351.863-22.351.2,0-.3-.2-.457-.457-.254a.559.559,0,0,1-.762-.152c-.3-.558-7.975-.507-8.788.051-.356.254-.661.254-.661,0,0-.2-.2-.152-.406.2-.254.355-3.149.609-8.991.711-4.724.05-8.941.355-9.245.609a1.639,1.639,0,0,1-1.372.2,1.33,1.33,0,0,0-1.27.3c-.3.3-.559.407-.559.2s-.66-.05-1.473.356c-2.54,1.321-6.858-.508-6.3-2.693.152-.507.051-1.066-.2-1.219-.406-.254-.355-7.366.1-11.278.153-1.117.3-2.387.3-2.793.051-.406.356-1.981.762-3.505a9.055,9.055,0,0,0,.406-3.148.6.6,0,0,1,.3-.711.6.6,0,0,0,.3-.712,8.158,8.158,0,0,1,.406-3,7.014,7.014,0,0,0,.457-2.845c-.152-.1-.051-.507.153-.863a5.034,5.034,0,0,0,.457-1.677c.051-.609.406-3.149.762-5.689a21.963,21.963,0,0,0-.051-8.382,36.393,36.393,0,0,1-.61-4.42c0-.3-.152-.609-.406-.609s-.457-.356-.457-.762c0-1.168-1.118-3.3-1.727-3.3-.356,0-.559-2.489-.559-7.619,0-4.166-.2-7.62-.406-7.62s-.356-.3-.3-.661c.1-1.117-.66-2.895-1.321-2.895a4.677,4.677,0,0,1-1.422-.254C182.814-552.751,181.95-552.293,181.29-551.582Zm4.521,112.316a6.221,6.221,0,0,1-.914,1.422A5.373,5.373,0,0,0,183.88-435c0,1.677.406,1.981,1.422.966.457-.457,3.454-1.219,6.1-1.524.3-.051.61-.254.61-.456,0-1.016,2.134.508,3,2.082.965,1.778,3.962,4.521,5.181,4.775.406.051,1.981.407,3.505.712s3.353.559,4.064.61c7.569.051,13.563.356,14.122.66a.932.932,0,0,0,1.067.1,4.83,4.83,0,0,1,2.438.457c3.3,1.168,8.483,2.591,9.195,2.438a.448.448,0,0,1,.61.407c0,.3.2.457.457.3a5.327,5.327,0,0,1,2.54.458c1.169.406,2.083.609,2.083.406,0-.152.3-.05.66.254a2.107,2.107,0,0,0,1.118.559c4.368.406,11.531,5.435,13.715,9.753,1.067,1.981,2.794,8.127,2.489,8.636a.594.594,0,0,0,.3.71.618.618,0,0,1,.254.813,1.016,1.016,0,0,0,.051,1.066c1.016,1.576,1.27,11.735.356,12.649a1.4,1.4,0,0,0-.356,1.219,3.778,3.778,0,0,1-.762,2.286,4.124,4.124,0,0,0-.711,2.337c.152.406,0,.711-.356.711-.3,0-.406.2-.254.508.356.61-1.118,3.556-1.778,3.556-.3,0-.508.355-.508.762,0,.711-.61.965-1.625.813-.254,0-.406.152-.406.457,0,.254-.3.508-.711.508-1.473,0-7.467,3.251-10.566,5.74a2.348,2.348,0,0,0-.914,1.524c0,.457-1.117,1.93-2.438,3.25a21.2,21.2,0,0,0-2.692,3c-.406,1.015-20.573,11.379-22.2,11.379a.618.618,0,0,0-.609.61c0,.3-.152.457-.3.254-.2-.152-.965,0-1.727.407a52,52,0,0,1-6.6,2.54,20.5,20.5,0,0,0-2.591.965,4.051,4.051,0,0,1-2.184.458c-.152-.2-.3-.051-.3.253,0,.356-.152.559-.356.508a39.029,39.029,0,0,0-4.978,1.321c-2.489.813-5.08,1.524-5.689,1.626a21.289,21.289,0,0,0-2.489.711,2.345,2.345,0,0,1-1.778.2c-.254-.152-.457,0-.457.3a.447.447,0,0,1-.609.406c-.914-.2-7.01,1.727-7.01,2.184,0,1.169-4.775,5.03-7.467,6.1-2.54,1.016-3.861,1.168-10.007,1.219-8.839,0-9.093-.2-5.994-4.928a35.666,35.666,0,0,0,2.134-3.555c0-.152-.813-.457-1.778-.61-2.337-.458-2.489-.915-.864-2.743,4.267-4.724,5.283-6.5,4.115-7.213-.508-.355-.711-1.422-.61-4.165.1-4.216.356-6.349.813-6.807a1.15,1.15,0,0,0,0-1.016c-.152-.406,0-.711.356-.711.3,0,.457-.2.254-.508a4.069,4.069,0,0,1,.457-2.235c.406-.965.61-1.88.406-2.032-.152-.152.051-.3.407-.3s.559-.152.355-.3c-.152-.2.051-1.067.508-1.93a4.658,4.658,0,0,0,.762-1.981c-.051-.2.1-.356.356-.356.3,0,.457-1.473.406-3.3-.1-2.845.051-3.4,1.016-4.064.914-.661,1.067-1.27,1.067-4.673.051-3.251.2-4.064,1.016-4.724.508-.407.864-1.067.762-1.371a.8.8,0,0,1,.3-.864c.3-.2.406-1.016.2-1.88a14.3,14.3,0,0,1,.3-4.42c.3-1.574.66-4.064.762-5.435a21.579,21.579,0,0,1,.3-2.692c.1-.051.152-.305.2-.559a1.324,1.324,0,0,1,.457-.864,2.277,2.277,0,0,0,.356-1.321c0-.507.254-.914.559-.914.254,0,.356-.254.2-.508a1.217,1.217,0,0,1,.1-1.169,10.381,10.381,0,0,0,.2-3.555c-.051-1.576.051-2.9.3-2.9.356,0,1.422-2.439,3-6.858a25.565,25.565,0,0,0,.457-4.318c.152-4.572.61-5.487,4.165-8.027.914-.61,1.524-1.422,1.422-1.777-.406-1.067,3.3-2.286,6.1-1.982C184.541-439.47,185.709-439.317,185.811-439.266Z" transform="translate(-37.114 552.596)"/>
    <path id="Path_83" data-name="Path 83" d="M325.269-481.537a10.1,10.1,0,0,1-2.184.457,16.411,16.411,0,0,0-2.286.356,5.227,5.227,0,0,1-.762.2c-.254.1-.61.2-.762.254-.2.1-4.165.3-10.007.457-.762.051-1.372.61-1.931,1.727a13,13,0,0,1-1.981,2.946,15.454,15.454,0,0,0-2.9,4.877,6.515,6.515,0,0,1-.355,1.067c-.305.863.05,1.168,1.778,1.371,1.422.152,5.74-2.083,5.74-3a3.113,3.113,0,0,1,.813-1.372c.609-.711,1.371-.813,3.911-.61,3.81.3,4.42.965,4.42,4.419a20.678,20.678,0,0,1-3.048,10.16c-.812,1.473-1.371,2.845-1.169,3,.153.2,0,.356-.406.407s.05.254,1.016.457c1.93.457,3.454-.2,3.911-1.625a2.015,2.015,0,0,1,1.118-1.118,9.636,9.636,0,0,0,2.235-1.523A14.027,14.027,0,0,1,327-460.963a46.673,46.673,0,0,0,4.724-1.778c2.438-1.118,5.029-2.032,5.486-1.88.2.051.356-.152.356-.457s.355-.457.762-.3a.874.874,0,0,0,1.015-.1c.254-.458,6.3-.356,8.128.1a28.017,28.017,0,0,1,6.1,2.387c.864.711,5.334,2.032,6.959,2.032a5.552,5.552,0,0,0,2.794-1.219c1.88-1.575,3.4-2.337,4.674-2.337a7.407,7.407,0,0,0,2.438-.61,8.271,8.271,0,0,1,3.251-.813c1.067-.152,3-1.981,3-2.9,0-.61-.915-.762-4.877-.762a22.674,22.674,0,0,1-5.943-.559c-1.321-.711-2.9-2.286-2.9-2.9s-4.978-3.658-6.6-4.115c-2.54-.61-8.382-.3-9.7.508a21.2,21.2,0,0,1-4.013,1.727,15.288,15.288,0,0,0-6.6,3.658c-1.574,1.422-7.467,3.861-8.432,3.5a.816.816,0,0,0-.965.2,2.019,2.019,0,0,1-1.524.508c-.915,0-1.118-.2-.915-1.016.153-.559.457-1.016.712-1.016s.457-.406.457-.965a1.4,1.4,0,0,1,1.016-1.219c.914-.254,1.016-.711,1.016-4.877,0-3.962-.152-4.673-.965-5.079A1.541,1.541,0,0,0,325.269-481.537Z" transform="translate(-148.633 517.652)"/>
    <path id="Path_84" data-name="Path 84" d="M84.263-312.341a6.52,6.52,0,0,0-1.778,1.219c-1.067.965-1.321.965-3.251.355-1.93-.66-2.134-.609-2.946.356a15.1,15.1,0,0,1-4.115,2.489,16.819,16.819,0,0,0-3.657,1.93c-.508.711-1.88-.609-2.692-2.59-.864-2.032-1.829-2.134-4.521-.457a4.92,4.92,0,0,1-2.743.914,1.308,1.308,0,0,0-1.372.61,3.243,3.243,0,0,1-1.575,1.067,26.194,26.194,0,0,0-3.2,1.016,5.325,5.325,0,0,1-2.438.559c-.356-.356-2.184,1.372-2.184,2.083,0,.355-.2.66-.406.66-.457,0-1.676.966-4.318,3.3a11.2,11.2,0,0,1-6.5,2.794c-1.93,0-1.88-.966.051-2.794a5.218,5.218,0,0,0,1.524-2.337,1.563,1.563,0,0,1,1.118-1.27,6.058,6.058,0,0,0,2.083-1.27,6.252,6.252,0,0,1,2.743-1.27c.914-.152,1.676-.508,1.676-.711s.66-.661,1.422-.965a15.018,15.018,0,0,0,3.149-2.134l1.676-1.525-1.168-.812c-.66-.457-1.27-.609-1.473-.3a9.829,9.829,0,0,1-2.743,1.371c-1.626.609-2.591,1.321-2.9,2.083-.61,1.575-2.184,2.388-4.775,2.489-1.524.051-3,.711-5.385,2.337-3.81,2.54-9.144,7.721-9.144,8.89,0,.406-.2.761-.508.761-.254,0-.356.661-.2,1.473.406,2.032-.356,3.251-5.232,8.128-2.337,2.388-4.369,4.877-4.572,5.588a6.642,6.642,0,0,1-1.626,2.591c-1.168,1.168-3.657,6.807-3.759,8.483,0,.356-.2.661-.457.661-.2,0-.406.355-.406.813a3.041,3.041,0,0,1-1.219,1.778c-1.27,1.016-2.845,3.657-2.845,4.775a3.04,3.04,0,0,1-1.067,1.575C.75-256.057.242-254.33.09-250.063c-.1,4.267.559,6.553,1.168,4.115.152-.711.559-1.321.813-1.321.864,0,.559,1.27-.762,3C.141-242.646.141-242.494.9-240.97c.457.863,1.27,2.235,1.829,3.048.864,1.219,1.067,2.337,1.118,5.842.1,4.673.66,6.2,2.642,7.112.914.407,1.168.407,1.168-.2,0-1.524,1.118-1.27,3.048.762a10.383,10.383,0,0,1,2.032,2.591.5.5,0,0,0,.508.458c.3,0,.508.3.508.711a1.189,1.189,0,0,0,.813,1.016c.457.2.711.457.559.61s1.422,1.93,3.454,3.962c3.556,3.454,8.179,6.35,10.414,6.553,1.168.051,1.829,1.371,1.016,1.879-.406.254-.3.457.254.711.965.356,1.778,0,2.692-1.27.864-1.27,2.134-.66,2.134,1.067a6.25,6.25,0,0,0,2.642,4.927,15.528,15.528,0,0,0,4.775.661h3.657l.2-1.524a2.864,2.864,0,0,0-.152-1.879,6.042,6.042,0,0,1-.711-1.676c-.254-.965-.2-1.117.2-.711a2.448,2.448,0,0,0,1.88.3c.965-.152,1.118-.355.66-.914-.3-.407-.762-.609-.965-.458a.559.559,0,0,1-.762-.254.617.617,0,0,0-.813-.254c-.254.2-.457.051-.457-.3s-.152-.508-.3-.356c-.66.711-15.29-5.638-17.068-7.366a23.574,23.574,0,0,0-2.438-1.879c-1.524-1.067-7.62-6.96-7.62-7.366a12.02,12.02,0,0,0-1.473-1.727,7.55,7.55,0,0,1-1.778-3.607c-.152-1.118-.559-2.032-.813-2.032-.3,0-.508-1.728-.508-4.013,0-3.708-.1-4.064-1.067-4.369-.864-.3-.965-.457-.406-.812a4.044,4.044,0,0,1,1.829-.458c1.168,0,1.321-1.32.2-1.98-.406-.255-.61-1.22-.508-2.49a5.875,5.875,0,0,0-.152-2.438c-.2-.152-.152-.864.1-1.524s.3-1.219.1-1.219,0-.3.406-.66a8.247,8.247,0,0,0,1.27-1.423c.3-.457.914-1.422,1.422-2.133.864-1.219.864-1.423.152-2.845-1.372-2.641-1.016-3,1.829-1.829.762.305.914.1.914-1.169,0-.864-.2-1.727-.508-1.879-1.016-.609-.508-2.286.813-2.794a18.87,18.87,0,0,0,3.454-2.286,13.731,13.731,0,0,1,2.54-1.778,3.713,3.713,0,0,0,1.219-.914c.559-.457,2.388-2.134,4.165-3.658,5.791-4.978,9.144-8.28,9.144-8.889,0-.356.864-1.27,1.93-2.083,1.016-.762,2.388-1.879,3-2.438,1.575-1.575,2.591-2.337,3-2.337a5.7,5.7,0,0,0,1.778-1.524c1.575-1.625,3.556-2.692,8.382-4.571,2.134-.814,3.353-1.626,3.911-2.642.457-.762,1.118-1.422,1.473-1.422a12.922,12.922,0,0,0,3.2-1.27,24.819,24.819,0,0,1,2.946-1.27,5.693,5.693,0,0,0,1.829-1.016c2.235-1.575,10.464-4.064,13.462-4.064,1.016,0,1.829-.2,1.829-.508,0-.254.711-.813,1.524-1.27,1.219-.66,1.422-.914.914-1.473C88.784-312.6,85.787-312.8,84.263-312.341Z" transform="translate(-0.079 434.509)"/>
  </g>
</svg>
