<svg id="Group_884" data-name="Group 884" xmlns="http://www.w3.org/2000/svg" viewBox="0 0 1665.589 1842.693">
  <defs>
    <style>
      .cls-1 {
        fill: #4bc4d8;
      }
    </style>
  </defs>
  <path id="Path_87" data-name="Path 87" class="cls-1" d="M771.039-545.86a26.315,26.315,0,0,1-13.344,8.666c-5.336,0-11.342,8.665-10.343,14.014.333,1.669-1,2.663-3,2.663-1.669,0-2.335,1.341-1.336,3.338,2.668,4.337-7,22.347-14.01,26.355-3.338,2-5.017,3.676-3.648,3.676s-2,7.671-7.671,17.011A153.577,153.577,0,0,0,704-437.758c-2,8.665-5.669,21.348-8,28.02-2.672,7.009-3.648,12.683-2.672,12.683,1.336,0,.333,2.335-2,5.017s-3.334,5.016-2.335,5.016c1.332,0,0,6.339-2.668,13.682a88.1,88.1,0,0,0-5.016,21.685c0,4.337-1.332,8.008-3.334,8.008-1.669,0-2.335,2-1.336,4.333a47.517,47.517,0,0,1-3.334,18.347,44.936,44.936,0,0,0-3.648,14.014,43.217,43.217,0,0,1-5.017,14.676c-3.334,8-5.336,15.679-4.337,16.678,1.336,1,.666,2-1.332,2-1.669,0-3.338,2-3.648,4-.666,8.013-9.007,29.361-11.342,29.361-1.332,0-1.669,2-1,4.337,1,2-1.669,5.664-5.669,7.333a22.712,22.712,0,0,0-10.343,15.013,45.015,45.015,0,0,1-10.676,18.7c-7.671,7-25.352,38.7-24.686,43.7a8.852,8.852,0,0,1-.333,4.337C589.6-142.14,587.929-121.8,586.93-90.1l-1,35.029-19.683,2.335c-11.009,1.665-20.349,4-21.019,6-1.669,4.67-84.4,4.333-96.41-.333-14.347-5.34-66.055-6-97.413-1-15.679,2.33-29.356,3.648-30.692,2.672a3.9,3.9,0,0,0-4.67,2,3.909,3.909,0,0,1-4.67,2c-1.332-1-8.341-.333-15.679,1.336a347.309,347.309,0,0,1-45.7,4c-18.347.328-33.693,2-34.7,3.671a3.466,3.466,0,0,1-4.67.666c-1.669-1.336-3,.661-3,4.332,0,4.337,4.67,7.671,17.015,11.347a63.932,63.932,0,0,0,21.352,4,5.577,5.577,0,0,1,6.672,1.66c2,3.338-14.01,5.673-23.355,3.671-1.669-.333-9.34-.994-16.678-1.327a54.486,54.486,0,0,1-17.33-3.005,11.032,11.032,0,0,0-8.665-.333,9.121,9.121,0,0,1-9.673-5.017c-5.34-9-12.678-9-12.678-.333,0,3.671-1.336,6.667-3,6.667-7,0-45.706,44.693-54.726,63.391A329.233,329.233,0,0,1,83.2,92.7c-14.676,22.014-9.34,31.691,21.019,39.677a122.609,122.609,0,0,0,24.02,1.336c8.341-.333,16.349,1,17.681,3,2.668,4.342,34.026,4.342,36.7.338,1-2.007,36.028-3.338,84.4-3.005,72.056.338,99.082-1,125.77-5.673a23.81,23.81,0,0,0,6.672-1.66c0-3.338,23.687-4.674,76.06-4.342,70.725,0,73.392.338,70.725,6.677a26.629,26.629,0,0,0-1.669,7.666c0,1.674-4.337,3.648-10.006,5.017a27.322,27.322,0,0,0-10.006,3.648,104.206,104.206,0,0,0,9.007,15.013c9.007,13.344,9.007,14.005,2.668,18.347-12.678,8.665-15.013,11.675-15.013,19.017,0,7.671-11.342,17.33-16.682,14.014a7.233,7.233,0,0,0-7.338.333,55.909,55.909,0,0,1-18.7,3.648c-17.33,1-38.7,10.676-40.032,18.014-1.332,7.675,13.344,10.681,30.359,6.006a201.092,201.092,0,0,1,36.028-4.342l21.685-.338-.666,28.029c-.666,21.681-2,28.69-6.006,31.012a11.857,11.857,0,0,0-5.336,9.34c0,3.648-1.336,6.667-2.668,6.667-1.669,0-2.335,8.008-1.336,18.019a56.754,56.754,0,0,1-4.337,30.022,33.442,33.442,0,0,0-4.67,13.011c.67.666,7.005,4.67,13.682,9.007a46.623,46.623,0,0,1,14.68,15.009c3.648,11.342,3.338,29.028-.333,33.027a7.634,7.634,0,0,0-2.335,8.008,18.542,18.542,0,0,1-1.332,10.01A42.457,42.457,0,0,0,521.56,460.6c-1,8.336-15.013,1-18.347-9.678-3.334-9.34-4.337-10.339-9.34-6.672-5.34,4.342-14.01,37.7-11.009,42.7a3.849,3.849,0,0,1-1.336,5.017,5.017,5.017,0,0,0-1.665,6.339,6.467,6.467,0,0,1-1.669,7.005,3.753,3.753,0,0,0-2,5.017c1,1.669-.333,10.676-3,19.683s-4,17.33-3,18.347.333,4-1.669,6.339c-2.335,2.668-3.334,5.336-2.335,6.006a64.4,64.4,0,0,1-3,18.7,56.067,56.067,0,0,0-3,19.013c1,1,.333,4.009-1.669,6.339-2.335,2.672-3.338,5.336-2.335,6.011a84.186,84.186,0,0,1-3,21.348,249.281,249.281,0,0,0-5.017,26.688,189.686,189.686,0,0,1-3.338,25.019,307.855,307.855,0,0,0-2.335,35.029c-.666,18.347-2.335,42.367-3.334,53.358s-2.335,24.349-2.335,30.022a38.983,38.983,0,0,1-3.338,14.015,6.681,6.681,0,0,0-.666,7.338c1,1.665,0,14.347-2,27.687s-4,28.029-4.337,32.7a35.079,35.079,0,0,1-3,12.341,11.812,11.812,0,0,0-.333,9.011,12.856,12.856,0,0,1-.666,9.335,41.5,41.5,0,0,0-3.648,12.678c-2,15.009-3,19.683-5.017,22.018-1.336,1-1.336,4-.333,6.672s0,4.67-2.335,4.67c-2,0-3.648,4-3.334,9,1,15.679.333,17.686-7.342,20.687a14.662,14.662,0,0,1-14.343-1.336c-6.006-3.648-8.341-3-19.35,6.335-9.007,7.675-12.008,12.341-10.343,16.349,1,3,3,5.017,4.337,4a76.3,76.3,0,0,1,22.018,4.67c13.011,4,20.682,8.665,23.354,14.01,5.017,8.665,4,56.386-1.336,65.384-2.668,5.017-3,4.337-3-2.335-.333-30.022-9.007-65.051-10.676-43.038a473.8,473.8,0,0,0,6.339,111.423c1.669,9.007,2.335,17.686,1.336,19.35a7.976,7.976,0,0,0,1.669,6.672,18.6,18.6,0,0,1,3.334,9.007c.333,2.668,1,8.665,2,13.349.666,4.67,1.336,11.342,1.669,15.009.67,6.339.67,6.339,5.017.666,5.017-6.339,6.672-51.374,2-57.381a31.845,31.845,0,0,1-2.335-13.349,96.251,96.251,0,0,0-2.335-19.683l-2.335-9.673,8.008,9.673c6.006,7.342,8.341,15.013,9.673,32.024,1,12.345,1,23.35,0,24.353-2.335,2.335-3.338,9.011-6.006,43.37a174.871,174.871,0,0,1-4.67,31.358c-3.334,6.006,3,21.015,8.008,19.346a43.243,43.243,0,0,0,11.675-13.682c7.338-10.676,9.34-12.012,17.681-10.01,13.011,2.672,18.7-3,21.352-21.015,1-8.008,4-15.684,6.672-16.682,6.672-2.33,1.665-11.009-6.672-11.009a29.3,29.3,0,0,0-14.68,5.336c-7,4.67-7.338,4.67-7.338-3.334a79.466,79.466,0,0,1,.333-10.676,8.478,8.478,0,0,0-4.337-5.34c-6.339-4,9.34-17.011,17.681-14.343,16.012,5.34,56.377-35.362,56.377-56.715,0-2.668,1.336-5.017,3.338-5.017,1.669,0,2.335-2.34,1.332-5.017a10.3,10.3,0,0,1,2-10.006c2-2.668,3-6.006,2-7.675a111.205,111.205,0,0,1-2.335-21.685c-.333-10.343-2-19.013-3.334-19.013-4.67,0-1-16.682,4-18.352,3-1,34.7-2,70.059-2.335,43.366-.333,69.721-1.669,79.732-4.67,20.016-6.006,38.7-6.006,41.045,0,2.335,5.669,42.367,7.333,42.367,1.665a2.991,2.991,0,0,0-3-3c-4.67,0-2.335-10.01,3.334-13.682a25.169,25.169,0,0,1,11.675-3,16.842,16.842,0,0,0,10.676-4c2.668-2.677,18.014-4.341,43.371-5.017,53.358-1,53.043-1,76.726-8.346,19.35-6,32.694-16.682,28.69-23.35-1-1.332,0-2.668,1.669-2.668a3.648,3.648,0,0,0,3.648-3.338c0-6.339-13.011-3.334-29.356,7-10.676,6.339-19.35,9.677-24.353,8.665l-8.008-1.336,7.675-2.668c4-1.332,7.338-4,7.338-6.006s1-2.668,2-1.336c1,1,4.67-.666,8.341-3.648a27.9,27.9,0,0,1,9.673-6.006c2-.333,4.337-.666,6.006-1,1.332-.337,17.681-.666,36.361-.337l34.026.337,5.017-9.335a76.111,76.111,0,0,1,12.678-16.687c7.338-6.672,41.369-24.353,50.376-25.685,18.347-3.005,55.711-32.38,55.711-44.036,0-2.34,9.673-7.343,21.352-11.342a111.07,111.07,0,0,0,28.69-13.349,55.723,55.723,0,0,1,11.009-7.671q4-1.505-2-8.013c-5.673-6.668-5.673-7.005,6.672-13.344,7.675-4,13.011-9.34,13.682-13.682,1.336-9.677,10.343-9.34,31.011,1,9.007,4.67,18.014,7.671,19.683,6.672,2-1.336,3.334-1,3.334.666,0,5.017,40.7,1.669,52.04-4.337,6.339-3.338,11.342-7,11.342-8.337a90.963,90.963,0,0,1,10.01-14.68,97.891,97.891,0,0,0,14.01-25.689c4-13.682,15.013-21.352,26.355-18.347a12.569,12.569,0,0,0,11.009-4.67c3-3.648,4.337-6.335,3.333-6.335s2.668-8.346,8.341-19.017c7.338-13.682,9.34-20.021,6.672-23.022-2.335-3-1-9.34,5.336-22.684,5.017-10.343,10.006-18.7,11.342-18.7s6.672-8.665,11.675-19.355c5.017-10.339,10.676-21.685,12.345-25.019a11.688,11.688,0,0,0,1.336-9.007,3.676,3.676,0,0,1,1.665-5.016c1.669-1,3.338-13.011,3.338-26.688,0-17.353,1.336-26.022,5.017-29.694s4.337-7.005,1.669-13.344a25.653,25.653,0,0,1-1.332-13.682A10.238,10.238,0,0,0,1439,495.54c-2.668-3-4-17.011-3.648-37.7.333-18.014,0-33.693-.333-35.362-.333-1.336-.666-3.334-1-5.017a38.631,38.631,0,0,0-18.014-24.358,63.393,63.393,0,0,1-17.33-18.347C1386,350.41,1357.307,301.7,1354.64,300.7a5.513,5.513,0,0,1-2.668-4.342c0-5.336-27.021-27.682-38.363-31.691a54.178,54.178,0,0,1-19.017-12c-9.34-10.343-44.037-30.027-47.037-27.026-1.336,1-2.335,0-2.335-2.335s-1-3.671-2-2.335c-1,1-7.671-.333-14.68-2.672s-13.682-3.648-14.68-2.672c-1,1.336-2,.333-2-1.669s-2.335-3-5.017-2c-2.668,1.336-5.017.67-5.017-1.336s-3-2.672-6.672-1.669-12.678-2-21.015-6.672a64.538,64.538,0,0,0-26.022-8.665,113.532,113.532,0,0,1-29.689-3.676,10.276,10.276,0,0,0-4.67-.328,55.063,55.063,0,0,1-13.344-2.673,193.975,193.975,0,0,0-23.017-5.669,186,186,0,0,1-26.022-6.334c-7.005-2.673-13.011-3.671-13.011-2.673,0,1.336-1.669.67-3.648-1.336a8.733,8.733,0,0,0-8.341-2c-2.668,1-4.67,0-4.67-2.33s-2-3.338-4.67-2.335a14.593,14.593,0,0,1-11.009-2.668A41.235,41.235,0,0,0,985,156.574a48.819,48.819,0,0,1-23.022-5.34c-5.336-4-12.008-5.016-22.347-3.671a44.545,44.545,0,0,1-16.345-.328c-6.339-6.339-51.041-7.342-54.726-1.336-2.668,4.337-23.683,4.337-56.044,0-19.683-2.668-18.014-18.019,2.335-21.352,15.679-2.672,18.352-6.339,13.682-19.013-3.334-8.341-2.668-9.012,4.337-9.012,6.339,0,8.665,2.34,10.343,9.677,2.335,10.676,10.01,15.679,14.01,9.34s16.35-12.345,30.026-14.343A130.083,130.083,0,0,0,907.6,96.179c4.337-1.665,9.34-2.33,11.009-1,1.669,1,3,0,3-2s1.336-3,3-2,6.339-1,10.676-4.337a184.923,184.923,0,0,1,44.037-19.017,7.813,7.813,0,0,0,3.334-1.337,158.813,158.813,0,0,1,24.02-4.67,45.491,45.491,0,0,0,10.01-2.335c0-.67,7.338-2,28.357-4.67,8.341-1.336,21.352-3.338,29.023-5.34a48.7,48.7,0,0,1,19.017-1,12.851,12.851,0,0,0,9.34-.67,30.326,30.326,0,0,1,12.678-3.329c4.67-.337,15.013-1.669,23.35-3.01,8.341-.994,19.017-2.663,23.687-3a39.992,39.992,0,0,0,12.345-3.338,7.675,7.675,0,0,1,7-.666c1.669,1,7.005-2,11.675-6.339,11.009-10.01,18.7-10.676,26.355-1.674a18.242,18.242,0,0,0,10.676,6.677c2.668,0,5.017,1.332,5.017,3s16.012,2.335,36.028,1.669c45.373-1.332,44.693-1.332,51.707-7.333,3-2.672,5.669-4.009,5.669-2.34,0,1.332,2.335.333,5.673-2,3-2.668,6.006-4.337,6.672-4a1.6,1.6,0,0,0,2,.671c.333,0,3-.671,5.669-1.336s14.01-4.674,25.019-8.665a115.641,115.641,0,0,1,43.7-6.672c18.014.337,25.357-.671,29.356-4.666a18.278,18.278,0,0,0,5.336-8.665c0-1.665,3.671-3.005,8.341-3.005a11.561,11.561,0,0,0,10.343-5.017c1.336-3.338,4.67-4.332,9.677-3,6.335,1.669,7.671.338,9.007-8a22.32,22.32,0,0,0-4.073-17.177,22.32,22.32,0,0,0-15.277-8.845c-11.342-2-10.01-2-52.04-1-18.014.661-33.36,0-34.7-1-1-1.336-4-1.336-6.672-.333a10.759,10.759,0,0,1-9.007-1.341c-2-1.664-19.017-3.333-37.364-4-18.347-.338-34.7-2.335-36.361-3.676a7.192,7.192,0,0,0-7.338-.994c-2.668.994-4.67.333-4.67-1.336,0-3.648-54.726-3.005-66.72,1-13.682,4.337-146.785,5.669-146.785,1.332,0-2-1.332-3-3-1.665a3.649,3.649,0,0,1-5.016-1c-2-3.648-52.378-3.333-57.714.333-2.335,1.669-4.337,1.669-4.337,0,0-1.332-1.332-1-2.668,1.336-1.669,2.33-20.682,4-59.05,4.67-31.012.333-58.717,2.335-60.714,4A10.763,10.763,0,0,1,866.91-54.6a8.734,8.734,0,0,0-8.341,2c-2,2-3.648,2.672-3.648,1.336s-4.337-.328-9.677,2.34c-16.678,8.665-45.035-3.338-41.364-17.681,1-3.334.333-7-1.336-8-2.668-1.669-2.335-48.373.666-74.068,1-7.333,2-15.675,2-18.343.333-2.668,2.335-13.011,5.017-23.021,2.335-10,3.648-19.346,2.668-20.677a3.9,3.9,0,0,1,2-4.67,3.908,3.908,0,0,0,2-4.674c-1-1.332.333-10.343,2.668-19.683,2.668-9.34,4-17.677,3-18.7-1-.666-.333-3.329,1-5.669a33.054,33.054,0,0,0,3-11.014c.333-4,2.668-20.682,5.017-37.36,3.338-25.019,3.338-35.025-.333-55.045a239.036,239.036,0,0,1-4-29.023c0-1.993-1-4-2.668-4s-3-2.335-3-5.016c0-7.675-7.342-21.686-11.342-21.686-2.335,0-3.648-16.345-3.648-50.038,0-27.363-1.336-50.043-2.668-50.043s-2.335-2-2-4.337c.666-7.333-4.337-19.013-8.665-19.013a30.73,30.73,0,0,1-9.34-1.669C781.049-553.536,775.376-550.526,771.039-545.86Zm29.689,737.6a40.843,40.843,0,0,1-6.006,9.34,35.28,35.28,0,0,0-6.672,18.7c0,11.009,2.668,13.011,9.34,6.339,3-3,22.684-8,40.032-10.006,2-.333,4-1.664,4-3,0-6.672,14.01,3.334,19.683,13.682,6.339,11.675,26.022,29.693,34.026,31.358,2.668.333,13.011,2.672,23.017,4.675s22.018,3.671,26.688,4c49.71.337,89.072,2.335,92.743,4.333a6.12,6.12,0,0,0,7.005.671c1.669-1,9.007.328,16.012,3,21.685,7.675,55.711,17.015,60.381,16.012a2.941,2.941,0,0,1,4,2.668c0,2,1.336,3,3,2s9.007.333,16.678,3.005,13.682,4,13.682,2.663c0-1,2-.328,4.337,1.669a13.835,13.835,0,0,0,7.338,3.676c28.69,2.663,75.728,35.7,90.07,64.048,7.005,13.011,18.347,53.358,16.345,56.715a3.9,3.9,0,0,0,2,4.665,4.059,4.059,0,0,1,1.669,5.34,6.668,6.668,0,0,0,.333,7c6.672,10.348,8.341,77.073,2.335,83.07a9.217,9.217,0,0,0-2.335,8.008c1,2.33-1.336,9.007-5.016,15.013-3.338,6-5.673,13.007-4.67,15.346,1,2.668,0,4.67-2.335,4.67-2,0-2.668,1.341-1.669,3.338,2.335,4-7.342,23.354-11.675,23.354-2,0-3.334,2.33-3.334,5.017,0,4.666-4,6.335-10.676,5.34-1.669,0-2.668,1-2.668,3.005,0,1.669-2,3.334-4.67,3.334-9.673,0-49.039,21.348-69.393,37.7a15.423,15.423,0,0,0-6.006,10.033c0,3-7.338,12.678-16.012,21.348a139.2,139.2,0,0,0-17.681,19.688c-2.668,6.667-135.11,74.724-145.786,74.724a4.054,4.054,0,0,0-4,4c0,2-1,3.005-2,1.665-1.336-1-6.339,0-11.342,2.672a341.465,341.465,0,0,1-43.371,16.678,134.6,134.6,0,0,0-17.015,6.339c-6.672,2.668-13.011,4-14.343,3.005-1-1.336-2-.338-2,1.665,0,2.335-1,3.671-2.335,3.338a256.315,256.315,0,0,0-32.694,8.665c-16.35,5.336-33.36,10.01-37.364,10.681a139.821,139.821,0,0,0-16.345,4.67c-4.67,2-10.01,2.668-11.675,1.336-1.669-1-3.005,0-3.005,2a2.937,2.937,0,0,1-4,2.668c-6.006-1.332-46.039,11.342-46.039,14.343,0,7.675-31.358,33.032-49.039,40.037-16.682,6.672-25.352,7.671-65.722,8.008-58.046,0-59.716-1.336-39.366-32.38a234.192,234.192,0,0,0,14.01-23.35c0-1-5.34-3-11.675-4-15.346-3.005-16.345-6.006-5.673-18.019,28.025-31.012,34.7-42.7,27.021-47.37-3.338-2.335-4.67-9.34-4-27.363.666-27.687,2.335-41.7,5.34-44.693a7.547,7.547,0,0,0,0-6.672c-1-2.663,0-4.666,2.335-4.666,2,0,3-1.336,1.669-3.338-1-1.669.333-8.341,3.005-14.676s4-12.345,2.668-13.349c-1-1,.333-2,2.668-2s3.648-1,2.335-2c-1-1.332.333-7.01,3.338-12.678a30.593,30.593,0,0,0,5.017-13.007c-.333-1.336.666-2.339,2.335-2.339,2,0,3-9.673,2.668-21.685-.666-18.7.333-22.347,6.672-26.688,6.006-4.337,7.005-8.341,7.005-30.692.333-21.352,1.336-26.693,6.672-31.012,3.334-2.672,5.673-7.005,5.017-9.007a5.231,5.231,0,0,1,2-5.669c2-1.332,2.668-6.672,1.336-12.345a93.948,93.948,0,0,1,2-29.028c2-10.339,4.337-26.688,5.017-35.7a141.742,141.742,0,0,1,2-17.677c.666-.338,1-2.007,1.336-3.671a8.7,8.7,0,0,1,3-5.673,14.953,14.953,0,0,0,2.335-8.665c0-3.334,1.669-6.006,3.649-6.006,1.669,0,2.335-1.664,1.336-3.334a7.994,7.994,0,0,1,.666-7.676c1.332-2,2-12.674,1.332-23.345-.333-10.348.333-19.017,2-19.017,2.335,0,9.34-16.016,19.683-45.04a167.9,167.9,0,0,0,3-28.353c1-30.026,4-36.028,27.363-52.711,6.006-4,10.006-9.34,9.34-11.67-2.668-7.005,21.685-15.013,40.032-13.016,9.349.921,17.02,1.929,17.69,2.258Z" transform="translate(175.831 552.618)"/>
  <path id="Path_88" data-name="Path 88" class="cls-1" d="M454.786-481.438a66.346,66.346,0,0,1-14.347,3A107.981,107.981,0,0,0,425.43-476.1a34.275,34.275,0,0,1-5.017,1.336c-1.669.666-4,1.332-5.017,1.669-1.336.67-27.363,2-65.717,3-5.017.333-9.007,4-12.678,11.342a85.385,85.385,0,0,1-13.011,19.346c-7.338,8.013-18.347,26.36-19.013,32.029a42.743,42.743,0,0,1-2.335,7c-2,5.669.333,7.671,11.675,9.007,9.335,1,37.693-13.682,37.693-19.679a20.443,20.443,0,0,1,5.34-9.007c4-4.67,9.007-5.336,25.685-4,25.019,2,29.023,6.335,29.023,29.023a135.8,135.8,0,0,1-20.021,66.72c-5.336,9.677-9.007,18.7-7.676,19.679,1,1.341,0,2.34-2.663,2.672s.333,1.665,6.672,3c12.674,3,22.684-1.336,25.685-10.676a13.226,13.226,0,0,1,7.338-7.342,63.286,63.286,0,0,0,14.681-10.006A92.127,92.127,0,0,1,466.1-346.332a306.556,306.556,0,0,0,31.011-11.675c16.012-7.342,33.027-13.344,36.028-12.345,1.332.333,2.335-1,2.335-3s2.335-3.005,5.017-2a5.737,5.737,0,0,0,6.668-.666c1.669-3.005,41.364-2.34,53.381.666,13.006,3.334,36.028,12.341,40.028,15.679,5.673,4.666,35.029,13.344,45.706,13.344a36.484,36.484,0,0,0,18.347-8c12.345-10.343,22.347-15.346,30.7-15.346a48.643,48.643,0,0,0,16.012-4,54.31,54.31,0,0,1,21.353-5.341c7-1,19.683-13.011,19.683-19.013,0-4-6.011-5.017-32.029-5.017-17.33,0-35.025-1.669-39.029-3.648-8.665-4.67-19.013-15.013-19.013-19.013s-32.694-24.02-43.371-27.026c-16.682-4-55.046-2-63.72,3.338a139.217,139.217,0,0,1-26.355,11.338c-20.349,6.676-31.012,12.345-43.371,24.02-10.339,9.34-49.039,25.357-55.379,23.017a5.359,5.359,0,0,0-6.339,1.336,13.258,13.258,0,0,1-10.006,3.338c-6.006,0-7.342-1.336-6.006-6.677,1-3.648,3.005-6.672,4.674-6.672s3-2.668,3-6.339a9.184,9.184,0,0,1,6.672-8.008c6.006-1.669,6.672-4.67,6.672-32.024,0-26.022-1-30.692-6.339-33.36A10.125,10.125,0,0,0,454.786-481.438Z" transform="translate(705.234 718.712)"/>
  <path id="Path_89" data-name="Path 89" class="cls-1" d="M552.935-310.953a42.82,42.82,0,0,0-11.675,8.008c-7.005,6.339-8.665,6.339-21.352,2.335-12.678-4.337-14.01-4-19.35,2.335-3,3.648-15.013,11.009-27.021,16.345a110.473,110.473,0,0,0-24.02,12.674c-3.338,4.675-12.345-4-17.681-17.011-5.673-13.344-12.008-14.014-29.689-3-7.338,4.337-15.346,7.005-18.014,6a8.592,8.592,0,0,0-9.007,4,21.3,21.3,0,0,1-10.343,7.005,172.09,172.09,0,0,0-21.015,6.672c-8.008,3-15.346,4.67-16.012,3.648-2.335-2.335-14.343,9.007-14.343,13.682,0,2.33-1.336,4.333-2.668,4.333-3,0-11.009,6.344-28.357,21.685-11.342,10.339-30.026,18.347-42.7,18.347s-12.345-6.339.333-18.347c5.336-5.336,10.006-12.345,10.006-15.346a10.266,10.266,0,0,1,7.338-8.341,39.791,39.791,0,0,0,13.682-8.341,41.044,41.044,0,0,1,18.014-8.341c6.006-1,11.009-3.338,11.009-4.67s4.337-4.342,9.34-6.339a98.631,98.631,0,0,0,20.682-14.01L341.1-297.659,333.428-303c-4.337-3-8.341-4-9.673-2a64.555,64.555,0,0,1-18.014,9.007c-10.676,4-17.015,8.665-19.017,13.682-4,10.343-14.343,15.684-31.358,16.349-10.006.338-19.683,4.67-35.362,15.346-25.019,16.682-60.048,50.708-60.048,58.375,0,2.668-1.336,5.017-3.338,5.017-1.669,0-2.335,4.337-1.336,9.677,2.668,13.344-2.335,21.352-34.359,53.358-15.346,15.679-28.69,32.029-30.026,36.7A43.617,43.617,0,0,1,80.219-70.472C72.548-62.8,56.2-25.779,55.533-14.761c0,2.335-1.336,4.337-3,4.337-1.336,0-2.668,2.335-2.668,5.336A19.966,19.966,0,0,1,41.856,6.587c-8.341,6.672-18.7,24.02-18.7,31.358a19.966,19.966,0,0,1-7,10.343C4.477,58.632,1.139,69.969.14,98c-.666,28.024,3.648,43.038,7.671,27.021,1-4.67,3.648-8.665,5.336-8.665,5.673,0,3.648,8.341-5.017,19.683C.46,146.709.46,147.712,5.463,157.718c3,5.669,8.341,14.68,12.008,20.016,5.673,8.008,7,15.346,7.338,38.368.666,30.692,4.337,40.7,17.33,46.7,6.006,2.668,7.671,2.668,7.671-1.332,0-10.01,7.338-8.341,20.016,5.017,7.338,7.675,13.344,15.351,13.344,17.015a3.293,3.293,0,0,0,3.338,3.005c2,0,3.338,2,3.338,4.67a7.808,7.808,0,0,0,5.336,6.672c3,1.332,4.67,3,3.648,4s9.34,12.674,22.684,26.018c23.354,22.689,53.709,41.7,68.408,43.038,7.671.333,12.008,9.007,6.672,12.341-2.668,1.669-2,3.005,1.669,4.67,6.339,2.335,11.675,0,17.681-8.341,5.673-8.341,14.01-4.337,14.01,7a41.045,41.045,0,0,0,17.33,32.38c4.337,2.335,18.347,4,31.358,4.337h24.02L304,413.294a18.807,18.807,0,0,0-1-12.341,39.677,39.677,0,0,1-4.67-11.009c-1.669-6.339-1.336-7.338,1.336-4.67a16.076,16.076,0,0,0,12.345,2c6.339-1,7.338-2.335,4.337-6-2-2.672-5.017-4-6.339-3.005a3.671,3.671,0,0,1-5.017-1.669,4.054,4.054,0,0,0-5.336-1.665c-1.669,1.332-3,.333-3-2s-1-3.338-2-2.335c-4.337,4.674-100.414-37.031-112.093-48.373a154.795,154.795,0,0,0-15.9-12.346c-10.01-7-50.043-45.706-50.043-48.373a78.954,78.954,0,0,0-9.673-11.342,49.582,49.582,0,0,1-11.675-23.687c-1-7.338-3.648-13.344-5.336-13.344-2,0-3.338-11.347-3.338-26.355,0-24.353-.666-26.688-7-28.695-5.673-2-6.339-3-2.668-5.336a26.561,26.561,0,0,1,12.008-3.005c7.671,0,8.665-8.665,1.336-13.007-2.668-1.674-4-8.008-3.334-16.349a38.582,38.582,0,0,0-1-16.012c-1.336-1-1-5.673.666-10.01s2-8,.666-8,0-2,2.668-4.333a54.158,54.158,0,0,0,8.341-9.344c2-3,6.006-9.34,9.34-14.01,5.673-8.008,5.673-9.34,1-18.7-9.007-17.33-6.672-19.683,12.008-12.008,5.017,2.007,6.006.666,6.006-7.675,0-5.669-1.336-11.337-3.338-12.341-6.672-4-3.338-15.013,5.336-18.347A123.943,123.943,0,0,0,151.308-25.41,90.163,90.163,0,0,1,167.99-37.085a24.382,24.382,0,0,0,8.008-6c3.648-3.005,15.679-14.01,27.363-24.02,38.03-32.69,60.048-54.375,60.048-58.375,0-2.335,5.673-8.341,12.678-13.682,6.672-5.017,15.679-12.341,19.683-16.012,10.343-10.343,17.015-15.346,19.683-15.346a37.456,37.456,0,0,0,11.675-10.006c10.343-10.672,23.354-17.681,55.046-30.022,14.01-5.345,22.018-10.681,25.689-17.33,3-5.017,7.338-9.34,9.673-9.34a84.838,84.838,0,0,0,21.015-8.341A163,163,0,0,1,457.9-253.9a37.4,37.4,0,0,0,12.008-6.672c14.68-10.344,68.723-26.688,88.406-26.688,6.672,0,12.008-1.336,12.008-3.334,0-1.669,4.67-5.34,10.01-8.341,8.008-4.337,9.34-6.006,6.006-9.673C582.647-312.632,562.968-313.954,552.935-310.953Z" transform="translate(-0.072 1113.358)"/>
</svg>
