<svg xmlns="http://www.w3.org/2000/svg" viewBox="0 0 258.482 60.157">
  <defs>
    <style>
      .cls-1 {
        opacity: 0.25;
      }

      .cls-2 {
        opacity: 0.731;
      }

      .cls-3 {
        fill: #fff;
      }

      .cls-4 {
        opacity: 0.8;
      }

      .cls-5 {
        opacity: 0.303;
      }
    </style>
  </defs>
  <g id="Group_855" data-name="Group 855" transform="translate(-452.814 -410.479)">
    <g id="Group_821" data-name="Group 821" transform="translate(466.368 410.479)">
      <g id="Group_831" data-name="Group 831" class="cls-1">
        <g id="standing-man-in-praying-posture-of-hands-in-front-his-face" class="cls-2" transform="translate(89.721 6.45)">
          <g id="Group_820" data-name="Group 820">
            <path id="Path_73" data-name="Path 73" class="cls-3" d="M55.247,20.9A1.724,1.724,0,0,0,53.2,19.741c-.77-1.426-1.637-3.115-2.4-4.663A1.749,1.749,0,0,0,47.652,15c-.76,1.549-1.628,3.237-2.4,4.663a1.723,1.723,0,0,0-2.044,1.161c-.728,2.326-1.356,4.335.424,5.045a1.879,1.879,0,0,0,.7.144c1.147,0,1.9-1.209,2.431-2.055.455-.729,1.034-1.751,1.722-3.038.247-.463.49-.925.72-1.368.241.465.5.954.759,1.444.687,1.287,1.267,2.31,1.722,3.038.528.846,1.283,2.056,2.43,2.056a1.871,1.871,0,0,0,.7-.144C56.6,25.237,55.974,23.228,55.247,20.9Z" transform="translate(-42.481 -9.184)"/>
            <path id="Path_74" data-name="Path 74" class="cls-3" d="M51.618,5.663a2.19,2.19,0,0,1,3.725-.343,2.126,2.126,0,0,1,.271.419c.315.641.647,1.3.983,1.962a4.436,4.436,0,1,0-6,0C50.947,7.015,51.292,6.327,51.618,5.663Z" transform="translate(-46.853)"/>
            <path id="Path_75" data-name="Path 75" class="cls-3" d="M55.483,37.58c-.462-.74-1.046-1.772-1.738-3.066l-.11-.207-.458-.025-.082.155c-.692,1.3-1.276,2.327-1.738,3.066-.519.832-1.284,2.051-2.494,2.247v5.457a3.481,3.481,0,0,0,.248,1.293,2,2,0,0,0-.021.275l.017,16.494A2.036,2.036,0,0,0,51.144,65.3h0a2.036,2.036,0,0,0,2.033-2.038l-.015-14.153c.08,0,.159.01.24.01l.05,0,.013,14.149A2.036,2.036,0,0,0,55.5,65.3h0a2.036,2.036,0,0,0,2.034-2.038l-.015-16.391a3.477,3.477,0,0,0,.422-1.667V39.821C56.754,39.609,56,38.4,55.483,37.58Z" transform="translate(-46.657 -22.427)"/>
          </g>
        </g>
        <g id="standing-man-in-praying-posture-of-hands-in-front-his-face-2" data-name="standing-man-in-praying-posture-of-hands-in-front-his-face" class="cls-4" transform="translate(131.086 6.45)">
          <g id="Group_820-2" data-name="Group 820" transform="translate(0)">
            <path id="Path_73-2" data-name="Path 73" class="cls-3" d="M55.247,20.9A1.724,1.724,0,0,0,53.2,19.741c-.77-1.426-1.637-3.115-2.4-4.663A1.749,1.749,0,0,0,47.652,15c-.76,1.549-1.628,3.237-2.4,4.663a1.723,1.723,0,0,0-2.044,1.161c-.728,2.326-1.356,4.335.424,5.045a1.879,1.879,0,0,0,.7.144c1.147,0,1.9-1.209,2.431-2.055.455-.729,1.034-1.751,1.722-3.038.247-.463.49-.925.72-1.368.241.465.5.954.759,1.444.687,1.287,1.267,2.31,1.722,3.038.528.846,1.283,2.056,2.43,2.056a1.871,1.871,0,0,0,.7-.144C56.6,25.237,55.974,23.228,55.247,20.9Z" transform="translate(-42.481 -9.184)"/>
            <path id="Path_74-2" data-name="Path 74" class="cls-3" d="M51.618,5.663a2.19,2.19,0,0,1,3.725-.343,2.126,2.126,0,0,1,.271.419c.315.641.647,1.3.983,1.962a4.436,4.436,0,1,0-6,0C50.947,7.015,51.292,6.327,51.618,5.663Z" transform="translate(-46.853)"/>
            <path id="Path_75-2" data-name="Path 75" class="cls-3" d="M55.483,37.58c-.462-.74-1.046-1.772-1.738-3.066l-.11-.207-.458-.025-.082.155c-.692,1.3-1.276,2.327-1.738,3.066-.519.832-1.284,2.051-2.494,2.247v5.457a3.481,3.481,0,0,0,.248,1.293,2,2,0,0,0-.021.275l.017,16.494A2.036,2.036,0,0,0,51.144,65.3h0a2.036,2.036,0,0,0,2.033-2.038l-.015-14.153c.08,0,.159.01.24.01l.05,0,.013,14.149A2.036,2.036,0,0,0,55.5,65.3h0a2.036,2.036,0,0,0,2.034-2.038l-.015-16.391a3.477,3.477,0,0,0,.422-1.667V39.821C56.754,39.609,56,38.4,55.483,37.58Z" transform="translate(-46.657 -22.427)"/>
          </g>
        </g>
        <g id="standing-man-in-praying-posture-of-hands-in-front-his-face-3" data-name="standing-man-in-praying-posture-of-hands-in-front-his-face" class="cls-4" transform="translate(167.099 6.45)">
          <g id="Group_820-3" data-name="Group 820" transform="translate(0)">
            <path id="Path_73-3" data-name="Path 73" class="cls-3" d="M55.247,20.9A1.724,1.724,0,0,0,53.2,19.741c-.77-1.426-1.637-3.115-2.4-4.663A1.749,1.749,0,0,0,47.652,15c-.76,1.549-1.628,3.237-2.4,4.663a1.723,1.723,0,0,0-2.044,1.161c-.728,2.326-1.356,4.335.424,5.045a1.879,1.879,0,0,0,.7.144c1.147,0,1.9-1.209,2.431-2.055.455-.729,1.034-1.751,1.722-3.038.247-.463.49-.925.72-1.368.241.465.5.954.759,1.444.687,1.287,1.267,2.31,1.722,3.038.528.846,1.283,2.056,2.43,2.056a1.871,1.871,0,0,0,.7-.144C56.6,25.237,55.974,23.228,55.247,20.9Z" transform="translate(-42.481 -9.184)"/>
            <path id="Path_74-3" data-name="Path 74" class="cls-3" d="M51.618,5.663a2.19,2.19,0,0,1,3.725-.343,2.126,2.126,0,0,1,.271.419c.315.641.647,1.3.983,1.962a4.436,4.436,0,1,0-6,0C50.947,7.015,51.292,6.327,51.618,5.663Z" transform="translate(-46.853)"/>
            <path id="Path_75-3" data-name="Path 75" class="cls-3" d="M55.483,37.58c-.462-.74-1.046-1.772-1.738-3.066l-.11-.207-.458-.025-.082.155c-.692,1.3-1.276,2.327-1.738,3.066-.519.832-1.284,2.051-2.494,2.247v5.457a3.481,3.481,0,0,0,.248,1.293,2,2,0,0,0-.021.275l.017,16.494A2.036,2.036,0,0,0,51.144,65.3h0a2.036,2.036,0,0,0,2.033-2.038l-.015-14.153c.08,0,.159.01.24.01l.05,0,.013,14.149A2.036,2.036,0,0,0,55.5,65.3h0a2.036,2.036,0,0,0,2.034-2.038l-.015-16.391a3.477,3.477,0,0,0,.422-1.667V39.821C56.754,39.609,56,38.4,55.483,37.58Z" transform="translate(-46.657 -22.427)"/>
          </g>
        </g>
        <g id="standing-man-in-praying-posture-of-hands-in-front-his-face-4" data-name="standing-man-in-praying-posture-of-hands-in-front-his-face" class="cls-5" transform="translate(19.447 8.673)">
          <g id="Group_820-4" data-name="Group 820" transform="translate(0)">
            <path id="Path_73-4" data-name="Path 73" class="cls-3" d="M52.655,19.508a1.374,1.374,0,0,0-1.629-.925c-.613-1.136-1.3-2.482-1.911-3.716a1.394,1.394,0,0,0-2.513-.061c-.606,1.234-1.3,2.58-1.911,3.716a1.373,1.373,0,0,0-1.629.925c-.58,1.854-1.08,3.455.338,4.021a1.5,1.5,0,0,0,.559.115c.914,0,1.516-.964,1.937-1.638.362-.581.824-1.4,1.372-2.421.2-.369.391-.737.574-1.09.192.371.4.76.6,1.151.548,1.026,1.01,1.841,1.372,2.421.421.674,1.023,1.638,1.937,1.638a1.491,1.491,0,0,0,.559-.115C53.735,22.963,53.234,21.362,52.655,19.508Z" transform="translate(-42.481 -10.169)"/>
            <path id="Path_74-4" data-name="Path 74" class="cls-3" d="M51.12,4.513a1.746,1.746,0,0,1,2.969-.273,1.694,1.694,0,0,1,.216.334c.251.511.516,1.04.783,1.564a3.535,3.535,0,1,0-4.781,0C50.585,5.591,50.86,5.042,51.12,4.513Z" transform="translate(-47.322 0)"/>
            <path id="Path_75-4" data-name="Path 75" class="cls-3" d="M54.139,36.91c-.368-.59-.834-1.412-1.385-2.444l-.087-.165-.365-.02-.066.124c-.551,1.032-1.017,1.854-1.385,2.443-.414.663-1.023,1.635-1.987,1.791v4.349a2.774,2.774,0,0,0,.2,1.031,1.59,1.59,0,0,0-.017.219l.013,13.145A1.623,1.623,0,0,0,50.681,59h0A1.623,1.623,0,0,0,52.3,57.38L52.291,46.1c.064,0,.127.008.191.008l.04,0,.01,11.276A1.622,1.622,0,0,0,54.155,59h0a1.623,1.623,0,0,0,1.621-1.624l-.012-13.063a2.771,2.771,0,0,0,.336-1.328V38.7C55.152,38.527,54.55,37.567,54.139,36.91Z" transform="translate(-47.105 -24.834)"/>
          </g>
        </g>
        <g id="standing-man-in-praying-posture-of-hands-in-front-his-face-5" data-name="standing-man-in-praying-posture-of-hands-in-front-his-face" class="cls-5" transform="translate(-13.553 12.673)">
          <g id="Group_820-5" data-name="Group 820" transform="translate(0)">
            <path id="Path_73-5" data-name="Path 73" class="cls-3" d="M49.559,17.844a.956.956,0,0,0-1.133-.644c-.427-.791-.908-1.727-1.329-2.586a.97.97,0,0,0-1.748-.042c-.421.859-.9,1.8-1.329,2.586a.955.955,0,0,0-1.133.644c-.4,1.29-.752,2.4.235,2.8a1.042,1.042,0,0,0,.389.08c.636,0,1.055-.67,1.348-1.14.252-.4.573-.971.955-1.685.137-.257.272-.513.4-.758.134.258.276.529.421.8.381.714.7,1.281.955,1.685.293.469.712,1.14,1.348,1.14a1.038,1.038,0,0,0,.389-.08C50.31,20.247,49.962,19.133,49.559,17.844Z" transform="translate(-42.481 -11.347)"/>
            <path id="Path_74-5" data-name="Path 74" class="cls-3" d="M50.525,3.14a1.214,1.214,0,0,1,2.065-.19,1.179,1.179,0,0,1,.151.232c.174.355.359.723.545,1.088a2.46,2.46,0,1,0-3.326,0C50.152,3.89,50.344,3.508,50.525,3.14Z" transform="translate(-47.883 0)"/>
            <path id="Path_75-5" data-name="Path 75" class="cls-3" d="M52.534,36.111c-.256-.41-.58-.982-.964-1.7L51.51,34.3l-.254-.014-.046.086c-.383.718-.708,1.29-.964,1.7-.288.461-.712,1.137-1.383,1.246v3.026a1.93,1.93,0,0,0,.137.717,1.107,1.107,0,0,0-.012.152L49,50.354a1.129,1.129,0,0,0,1.129,1.128h0a1.129,1.129,0,0,0,1.127-1.13L51.248,42.5c.044,0,.088.006.133.006l.028,0,.007,7.845a1.129,1.129,0,0,0,1.129,1.128h0a1.129,1.129,0,0,0,1.128-1.13l-.008-9.088a1.928,1.928,0,0,0,.234-.924V37.353C53.239,37.235,52.819,36.568,52.534,36.111Z" transform="translate(-47.64 -27.709)"/>
          </g>
        </g>
        <g id="standing-man-in-praying-posture-of-hands-in-front-his-face-6" data-name="standing-man-in-praying-posture-of-hands-in-front-his-face" class="cls-5" transform="translate(237.447 12.673)">
          <g id="Group_820-6" data-name="Group 820" transform="translate(0)">
            <path id="Path_73-6" data-name="Path 73" class="cls-3" d="M49.559,17.844a.956.956,0,0,0-1.133-.644c-.427-.791-.908-1.727-1.329-2.586a.97.97,0,0,0-1.748-.042c-.421.859-.9,1.8-1.329,2.586a.955.955,0,0,0-1.133.644c-.4,1.29-.752,2.4.235,2.8a1.042,1.042,0,0,0,.389.08c.636,0,1.055-.67,1.348-1.14.252-.4.573-.971.955-1.685.137-.257.272-.513.4-.758.134.258.276.529.421.8.381.714.7,1.281.955,1.685.293.469.712,1.14,1.348,1.14a1.038,1.038,0,0,0,.389-.08C50.31,20.247,49.962,19.133,49.559,17.844Z" transform="translate(-42.481 -11.347)"/>
            <path id="Path_74-6" data-name="Path 74" class="cls-3" d="M50.525,3.14a1.214,1.214,0,0,1,2.065-.19,1.179,1.179,0,0,1,.151.232c.174.355.359.723.545,1.088a2.46,2.46,0,1,0-3.326,0C50.152,3.89,50.344,3.508,50.525,3.14Z" transform="translate(-47.883 0)"/>
            <path id="Path_75-6" data-name="Path 75" class="cls-3" d="M52.534,36.111c-.256-.41-.58-.982-.964-1.7L51.51,34.3l-.254-.014-.046.086c-.383.718-.708,1.29-.964,1.7-.288.461-.712,1.137-1.383,1.246v3.026a1.93,1.93,0,0,0,.137.717,1.107,1.107,0,0,0-.012.152L49,50.354a1.129,1.129,0,0,0,1.129,1.128h0a1.129,1.129,0,0,0,1.127-1.13L51.248,42.5c.044,0,.088.006.133.006l.028,0,.007,7.845a1.129,1.129,0,0,0,1.129,1.128h0a1.129,1.129,0,0,0,1.128-1.13l-.008-9.088a1.928,1.928,0,0,0,.234-.924V37.353C53.239,37.235,52.819,36.568,52.534,36.111Z" transform="translate(-47.64 -27.709)"/>
          </g>
        </g>
        <g id="standing-man-in-praying-posture-of-hands-in-front-his-face-7" data-name="standing-man-in-praying-posture-of-hands-in-front-his-face" class="cls-5" transform="translate(203.112 6.45)">
          <g id="Group_820-7" data-name="Group 820" transform="translate(0)">
            <path id="Path_73-7" data-name="Path 73" class="cls-3" d="M55.247,20.9A1.724,1.724,0,0,0,53.2,19.741c-.77-1.426-1.637-3.115-2.4-4.663A1.749,1.749,0,0,0,47.652,15c-.76,1.549-1.628,3.237-2.4,4.663a1.723,1.723,0,0,0-2.044,1.161c-.728,2.326-1.356,4.335.424,5.045a1.879,1.879,0,0,0,.7.144c1.147,0,1.9-1.209,2.431-2.055.455-.729,1.034-1.751,1.722-3.038.247-.463.49-.925.72-1.368.241.465.5.954.759,1.444.687,1.287,1.267,2.31,1.722,3.038.528.846,1.283,2.056,2.43,2.056a1.871,1.871,0,0,0,.7-.144C56.6,25.237,55.974,23.228,55.247,20.9Z" transform="translate(-42.481 -9.184)"/>
            <path id="Path_74-7" data-name="Path 74" class="cls-3" d="M51.618,5.663a2.19,2.19,0,0,1,3.725-.343,2.126,2.126,0,0,1,.271.419c.315.641.647,1.3.983,1.962a4.436,4.436,0,1,0-6,0C50.947,7.015,51.292,6.327,51.618,5.663Z" transform="translate(-46.853)"/>
            <path id="Path_75-7" data-name="Path 75" class="cls-3" d="M55.483,37.58c-.462-.74-1.046-1.772-1.738-3.066l-.11-.207-.458-.025-.082.155c-.692,1.3-1.276,2.327-1.738,3.066-.519.832-1.284,2.051-2.494,2.247v5.457a3.481,3.481,0,0,0,.248,1.293,2,2,0,0,0-.021.275l.017,16.494A2.036,2.036,0,0,0,51.144,65.3h0a2.036,2.036,0,0,0,2.033-2.038l-.015-14.153c.08,0,.159.01.24.01l.05,0,.013,14.149A2.036,2.036,0,0,0,55.5,65.3h0a2.036,2.036,0,0,0,2.034-2.038l-.015-16.391a3.477,3.477,0,0,0,.422-1.667V39.821C56.754,39.609,56,38.4,55.483,37.58Z" transform="translate(-46.657 -22.427)"/>
          </g>
        </g>
        <g id="standing-man-in-praying-posture-of-hands-in-front-his-face-8" data-name="standing-man-in-praying-posture-of-hands-in-front-his-face" class="cls-4" transform="translate(54.019 6.45)">
          <g id="Group_820-8" data-name="Group 820" transform="translate(0)">
            <path id="Path_73-8" data-name="Path 73" class="cls-3" d="M55.247,20.9A1.724,1.724,0,0,0,53.2,19.741c-.77-1.426-1.637-3.115-2.4-4.663A1.749,1.749,0,0,0,47.652,15c-.76,1.549-1.628,3.237-2.4,4.663a1.723,1.723,0,0,0-2.044,1.161c-.728,2.326-1.356,4.335.424,5.045a1.879,1.879,0,0,0,.7.144c1.147,0,1.9-1.209,2.431-2.055.455-.729,1.034-1.751,1.722-3.038.247-.463.49-.925.72-1.368.241.465.5.954.759,1.444.687,1.287,1.267,2.31,1.722,3.038.528.846,1.283,2.056,2.43,2.056a1.871,1.871,0,0,0,.7-.144C56.6,25.237,55.974,23.228,55.247,20.9Z" transform="translate(-42.481 -9.184)"/>
            <path id="Path_74-8" data-name="Path 74" class="cls-3" d="M51.618,5.663a2.19,2.19,0,0,1,3.725-.343,2.126,2.126,0,0,1,.271.419c.315.641.647,1.3.983,1.962a4.436,4.436,0,1,0-6,0C50.947,7.015,51.292,6.327,51.618,5.663Z" transform="translate(-46.853)"/>
            <path id="Path_75-8" data-name="Path 75" class="cls-3" d="M55.483,37.58c-.462-.74-1.046-1.772-1.738-3.066l-.11-.207-.458-.025-.082.155c-.692,1.3-1.276,2.327-1.738,3.066-.519.832-1.284,2.051-2.494,2.247v5.457a3.481,3.481,0,0,0,.248,1.293,2,2,0,0,0-.021.275l.017,16.494A2.036,2.036,0,0,0,51.144,65.3h0a2.036,2.036,0,0,0,2.033-2.038l-.015-14.153c.08,0,.159.01.24.01l.05,0,.013,14.149A2.036,2.036,0,0,0,55.5,65.3h0a2.036,2.036,0,0,0,2.034-2.038l-.015-16.391a3.477,3.477,0,0,0,.422-1.667V39.821C56.754,39.609,56,38.4,55.483,37.58Z" transform="translate(-46.657 -22.427)"/>
          </g>
        </g>
        <g id="standing-man-in-praying-posture-of-hands-in-front-his-face-9" data-name="standing-man-in-praying-posture-of-hands-in-front-his-face" class="cls-2" transform="translate(151.123 9.118)">
          <g id="Group_820-9" data-name="Group 820" transform="translate(0)">
            <path id="Path_73-9" data-name="Path 73" class="cls-3" d="M52.64,19.5a1.372,1.372,0,0,0-1.627-.924c-.613-1.135-1.3-2.479-1.908-3.711A1.392,1.392,0,0,0,46.6,14.8c-.6,1.232-1.3,2.576-1.908,3.711a1.371,1.371,0,0,0-1.627.924c-.579,1.851-1.079,3.45.338,4.015a1.5,1.5,0,0,0,.558.114c.913,0,1.514-.962,1.934-1.636.362-.58.823-1.393,1.371-2.418.2-.369.39-.736.573-1.089.192.37.4.759.6,1.149.547,1.025,1.008,1.838,1.37,2.418.421.673,1.021,1.636,1.934,1.636a1.489,1.489,0,0,0,.558-.114C53.719,22.95,53.219,21.352,52.64,19.5Z" transform="translate(-42.481 -10.175)"/>
            <path id="Path_74-9" data-name="Path 74" class="cls-3" d="M51.117,4.507a1.743,1.743,0,0,1,2.965-.273,1.692,1.692,0,0,1,.216.334c.25.51.515,1.038.782,1.562a3.531,3.531,0,1,0-4.774,0C50.583,5.583,50.858,5.035,51.117,4.507Z" transform="translate(-47.325)"/>
            <path id="Path_75-9" data-name="Path 75" class="cls-3" d="M54.132,36.907c-.368-.589-.833-1.41-1.383-2.44l-.087-.165-.364-.02-.065.124c-.55,1.031-1.016,1.852-1.383,2.44-.413.662-1.022,1.632-1.985,1.788v4.343a2.77,2.77,0,0,0,.2,1.029,1.589,1.589,0,0,0-.017.219l.013,13.126a1.62,1.62,0,0,0,1.62,1.618h0A1.62,1.62,0,0,0,52.3,57.347l-.012-11.264c.064,0,.127.008.191.008l.04,0,.01,11.26a1.62,1.62,0,0,0,1.62,1.619h0a1.621,1.621,0,0,0,1.619-1.622L55.756,44.3a2.767,2.767,0,0,0,.336-1.326V38.69C55.143,38.521,54.542,37.563,54.132,36.907Z" transform="translate(-47.107 -24.847)"/>
          </g>
        </g>
        <g id="standing-man-in-praying-posture-of-hands-in-front-his-face-10" data-name="standing-man-in-praying-posture-of-hands-in-front-his-face" class="cls-5" transform="translate(0 6.45)">
          <g id="Group_820-10" data-name="Group 820" transform="translate(0)">
            <path id="Path_73-10" data-name="Path 73" class="cls-3" d="M55.247,20.9A1.724,1.724,0,0,0,53.2,19.741c-.77-1.426-1.637-3.115-2.4-4.663A1.749,1.749,0,0,0,47.652,15c-.76,1.549-1.628,3.237-2.4,4.663a1.723,1.723,0,0,0-2.044,1.161c-.728,2.326-1.356,4.335.424,5.045a1.879,1.879,0,0,0,.7.144c1.147,0,1.9-1.209,2.431-2.055.455-.729,1.034-1.751,1.722-3.038.247-.463.49-.925.72-1.368.241.465.5.954.759,1.444.687,1.287,1.267,2.31,1.722,3.038.528.846,1.283,2.056,2.43,2.056a1.871,1.871,0,0,0,.7-.144C56.6,25.237,55.974,23.228,55.247,20.9Z" transform="translate(-42.481 -9.184)"/>
            <path id="Path_74-10" data-name="Path 74" class="cls-3" d="M51.618,5.663a2.19,2.19,0,0,1,3.725-.343,2.126,2.126,0,0,1,.271.419c.315.641.647,1.3.983,1.962a4.436,4.436,0,1,0-6,0C50.947,7.015,51.292,6.327,51.618,5.663Z" transform="translate(-46.853)"/>
            <path id="Path_75-10" data-name="Path 75" class="cls-3" d="M55.483,37.58c-.462-.74-1.046-1.772-1.738-3.066l-.11-.207-.458-.025-.082.155c-.692,1.3-1.276,2.327-1.738,3.066-.519.832-1.284,2.051-2.494,2.247v5.457a3.481,3.481,0,0,0,.248,1.293,2,2,0,0,0-.021.275l.017,16.494A2.036,2.036,0,0,0,51.144,65.3h0a2.036,2.036,0,0,0,2.033-2.038l-.015-14.153c.08,0,.159.01.24.01l.05,0,.013,14.149A2.036,2.036,0,0,0,55.5,65.3h0a2.036,2.036,0,0,0,2.034-2.038l-.015-16.391a3.477,3.477,0,0,0,.422-1.667V39.821C56.754,39.609,56,38.4,55.483,37.58Z" transform="translate(-46.657 -22.427)"/>
          </g>
        </g>
        <g id="standing-man-in-praying-posture-of-hands-in-front-his-face-11" data-name="standing-man-in-praying-posture-of-hands-in-front-his-face" class="cls-5" transform="translate(185.105 6.45)">
          <g id="Group_820-11" data-name="Group 820" transform="translate(0)">
            <path id="Path_73-11" data-name="Path 73" class="cls-3" d="M53.317,19.864a1.464,1.464,0,0,0-1.735-.986c-.653-1.21-1.39-2.644-2.035-3.958a1.485,1.485,0,0,0-2.676-.065c-.645,1.314-1.382,2.748-2.035,3.958A1.463,1.463,0,0,0,43.1,19.8c-.618,1.974-1.151,3.679.36,4.282a1.6,1.6,0,0,0,.6.122c.974,0,1.614-1.026,2.063-1.745.386-.618.878-1.486,1.462-2.579.21-.393.416-.785.611-1.161.2.395.422.81.644,1.225.584,1.093,1.075,1.96,1.461,2.579.449.718,1.089,1.745,2.063,1.745a1.588,1.588,0,0,0,.6-.122C54.467,23.544,53.934,21.839,53.317,19.864Z" transform="translate(-42.481 -9.918)"/>
            <path id="Path_74-11" data-name="Path 74" class="cls-3" d="M51.247,4.807a1.859,1.859,0,0,1,3.162-.291,1.8,1.8,0,0,1,.23.356c.267.544.549,1.107.834,1.665a3.766,3.766,0,1,0-5.092,0C50.677,5.955,50.97,5.37,51.247,4.807Z" transform="translate(-47.202)"/>
            <path id="Path_75-11" data-name="Path 75" class="cls-3" d="M54.482,37.081c-.392-.628-.888-1.5-1.475-2.6l-.093-.176-.388-.021-.07.132c-.587,1.1-1.083,1.975-1.475,2.6-.441.706-1.09,1.741-2.117,1.907v4.632a2.955,2.955,0,0,0,.21,1.1,1.7,1.7,0,0,0-.018.233l.014,14A1.728,1.728,0,0,0,50.8,60.613h0a1.728,1.728,0,0,0,1.726-1.73l-.012-12.013c.068,0,.135.009.2.009l.042,0,.011,12.01A1.728,1.728,0,0,0,54.5,60.612h0a1.728,1.728,0,0,0,1.726-1.729L56.215,44.97a2.951,2.951,0,0,0,.358-1.415V38.983C55.561,38.8,54.92,37.781,54.482,37.081Z" transform="translate(-46.99 -24.219)"/>
          </g>
        </g>
        <g id="standing-man-in-praying-posture-of-hands-in-front-his-face-12" data-name="standing-man-in-praying-posture-of-hands-in-front-his-face" class="cls-5" transform="translate(36.013 6.45)">
          <g id="Group_820-12" data-name="Group 820" transform="translate(0)">
            <path id="Path_73-12" data-name="Path 73" class="cls-3" d="M54.03,20.248A1.56,1.56,0,0,0,52.181,19.2c-.7-1.29-1.481-2.818-2.169-4.219a1.582,1.582,0,0,0-2.852-.069c-.688,1.4-1.473,2.929-2.169,4.219a1.559,1.559,0,0,0-1.849,1.051c-.658,2.1-1.226,3.922.384,4.564a1.7,1.7,0,0,0,.635.13c1.038,0,1.721-1.094,2.2-1.86.411-.659.936-1.584,1.558-2.749.224-.419.443-.837.651-1.238.218.421.45.863.687,1.306.622,1.165,1.146,2.09,1.558,2.749.478.766,1.161,1.86,2.2,1.86a1.693,1.693,0,0,0,.635-.13C55.257,24.17,54.688,22.352,54.03,20.248Z" transform="translate(-42.481 -9.646)"/>
            <path id="Path_74-12" data-name="Path 74" class="cls-3" d="M51.384,5.123a1.982,1.982,0,0,1,3.37-.31A1.924,1.924,0,0,1,55,5.192c.285.58.586,1.18.889,1.775a4.014,4.014,0,1,0-5.427,0C50.777,6.347,51.089,5.724,51.384,5.123Z" transform="translate(-47.073)"/>
            <path id="Path_75-12" data-name="Path 75" class="cls-3" d="M54.853,37.266c-.418-.67-.947-1.6-1.572-2.774l-.1-.187-.414-.023-.074.14c-.626,1.172-1.155,2.1-1.572,2.774-.47.752-1.162,1.856-2.256,2.033v4.937a3.149,3.149,0,0,0,.224,1.17,1.806,1.806,0,0,0-.019.248l.015,14.922a1.842,1.842,0,0,0,1.842,1.84h0a1.842,1.842,0,0,0,1.84-1.844l-.013-12.8c.072,0,.144.009.217.009l.045,0,.012,12.8a1.842,1.842,0,0,0,1.842,1.84h0a1.842,1.842,0,0,0,1.84-1.843L56.7,45.674a3.146,3.146,0,0,0,.382-1.508V39.293C56,39.1,55.318,38.012,54.853,37.266Z" transform="translate(-46.867 -23.556)"/>
          </g>
        </g>
        <g id="standing-man-in-praying-posture-of-hands-in-front-his-face-13" data-name="standing-man-in-praying-posture-of-hands-in-front-his-face" class="cls-5" transform="translate(221.118 6.45)">
          <g id="Group_820-13" data-name="Group 820" transform="translate(0)">
            <path id="Path_73-13" data-name="Path 73" class="cls-3" d="M52.239,19.285a1.318,1.318,0,0,0-1.563-.888c-.588-1.09-1.252-2.381-1.833-3.565a1.337,1.337,0,0,0-2.41-.058c-.581,1.184-1.244,2.475-1.833,3.565a1.317,1.317,0,0,0-1.563.888C42.483,21,42,22.54,43.363,23.083a1.437,1.437,0,0,0,.536.11c.877,0,1.454-.924,1.858-1.571.348-.557.791-1.338,1.316-2.323.189-.354.375-.707.55-1.046.185.356.38.729.58,1.1.526.984.968,1.766,1.316,2.323.4.647.981,1.571,1.858,1.571a1.43,1.43,0,0,0,.536-.11C53.276,22.6,52.8,21.063,52.239,19.285Z" transform="translate(-42.481 -10.327)"/>
            <path id="Path_74-13" data-name="Path 74" class="cls-3" d="M51.04,4.329a1.674,1.674,0,0,1,2.848-.262,1.625,1.625,0,0,1,.208.32c.241.49.495,1,.751,1.5a3.391,3.391,0,1,0-4.586,0C50.527,5.363,50.791,4.836,51.04,4.329Z" transform="translate(-47.397)"/>
            <path id="Path_75-13" data-name="Path 75" class="cls-3" d="M53.924,36.8c-.353-.566-.8-1.354-1.329-2.344l-.084-.158-.35-.019L52.1,34.4c-.529.99-.976,1.779-1.329,2.344-.4.636-.982,1.568-1.906,1.717v4.172a2.661,2.661,0,0,0,.189.989,1.526,1.526,0,0,0-.016.21L49.05,56.44a1.556,1.556,0,0,0,1.556,1.555h0a1.556,1.556,0,0,0,1.554-1.558l-.011-10.819c.061,0,.122.008.183.008l.038,0,.01,10.816a1.556,1.556,0,0,0,1.556,1.555h0A1.557,1.557,0,0,0,55.5,56.437l-.011-12.53a2.658,2.658,0,0,0,.323-1.274V38.516C54.9,38.354,54.318,37.433,53.924,36.8Z" transform="translate(-47.177 -25.22)"/>
          </g>
        </g>
        <g id="standing-man-in-praying-posture-of-hands-in-front-his-face-14" data-name="standing-man-in-praying-posture-of-hands-in-front-his-face" class="cls-2" transform="translate(74.025 9.673)">
          <g id="Group_820-14" data-name="Group 820" transform="translate(0)">
            <path id="Path_73-14" data-name="Path 73" class="cls-3" d="M53.394,19.906a1.474,1.474,0,0,0-1.747-.993c-.658-1.219-1.4-2.663-2.05-3.986a1.5,1.5,0,0,0-2.7-.065c-.65,1.324-1.391,2.768-2.05,3.986a1.473,1.473,0,0,0-1.747.993c-.622,1.988-1.159,3.706.363,4.313a1.607,1.607,0,0,0,.6.123c.981,0,1.626-1.034,2.078-1.757.389-.623.884-1.5,1.472-2.6.211-.4.419-.791.615-1.169.206.4.425.815.649,1.234.588,1.1,1.083,1.974,1.472,2.6.452.723,1.1,1.757,2.078,1.757a1.6,1.6,0,0,0,.6-.123C54.552,23.611,54.015,21.894,53.394,19.906Z" transform="translate(-42.481 -9.888)"/>
            <path id="Path_74-14" data-name="Path 74" class="cls-3" d="M51.262,4.841a1.872,1.872,0,0,1,3.184-.293,1.817,1.817,0,0,1,.232.358c.269.548.553,1.115.84,1.677a3.792,3.792,0,1,0-5.128,0C50.688,6,50.983,5.408,51.262,4.841Z" transform="translate(-47.188)"/>
            <path id="Path_75-14" data-name="Path 75" class="cls-3" d="M54.522,37.1c-.395-.633-.895-1.514-1.486-2.621l-.094-.177-.391-.021-.07.133C51.89,35.522,51.39,36.4,51,37.036c-.444.711-1.1,1.753-2.132,1.921v4.665a2.975,2.975,0,0,0,.212,1.106,1.707,1.707,0,0,0-.018.235l.014,14.1a1.74,1.74,0,0,0,1.74,1.738h0a1.741,1.741,0,0,0,1.738-1.742l-.012-12.1c.068,0,.136.009.205.009l.043,0,.011,12.1A1.74,1.74,0,0,0,54.54,60.8h0a1.741,1.741,0,0,0,1.739-1.742l-.013-14.012a2.972,2.972,0,0,0,.361-1.425v-4.6C55.609,38.836,54.963,37.806,54.522,37.1Z" transform="translate(-46.977 -24.148)"/>
          </g>
        </g>
      </g>
      <g id="standing-man-in-praying-posture-of-hands-in-front-his-face-15" data-name="standing-man-in-praying-posture-of-hands-in-front-his-face" transform="translate(107.999 0)">
        <g id="Group_820-15" data-name="Group 820" transform="translate(0)">
          <path id="Path_73-15" data-name="Path 73" class="cls-3" d="M60.392,23.669a2.419,2.419,0,0,0-2.868-1.629c-1.08-2-2.3-4.37-3.364-6.543a2.454,2.454,0,0,0-4.423-.107c-1.066,2.173-2.284,4.542-3.364,6.543A2.418,2.418,0,0,0,43.5,23.562c-1.021,3.263-1.9,6.082.6,7.078a2.637,2.637,0,0,0,.984.2c1.609,0,2.669-1.7,3.41-2.884.638-1.022,1.451-2.457,2.416-4.263.347-.65.688-1.3,1.01-1.919.339.653.7,1.338,1.065,2.026.965,1.806,1.777,3.241,2.416,4.263.741,1.187,1.8,2.884,3.41,2.884a2.625,2.625,0,0,0,.984-.2C62.294,29.75,61.412,26.932,60.392,23.669Z" transform="translate(-42.481 -7.227)"/>
          <path id="Path_74-15" data-name="Path 74" class="cls-3" d="M52.607,7.945a3.073,3.073,0,0,1,5.226-.481,2.984,2.984,0,0,1,.381.588c.442.9.908,1.83,1.379,2.753a6.224,6.224,0,1,0-8.417-.006C51.665,9.843,52.15,8.877,52.607,7.945Z" transform="translate(-45.921)"/>
          <path id="Path_75-15" data-name="Path 75" class="cls-3" d="M58.151,38.909c-.648-1.038-1.468-2.486-2.439-4.3l-.154-.29-.642-.035L54.8,34.5c-.97,1.817-1.791,3.264-2.439,4.3-.729,1.167-1.8,2.878-3.5,3.152v7.657a4.884,4.884,0,0,0,.347,1.815,2.8,2.8,0,0,0-.029.385l.024,23.142a2.856,2.856,0,0,0,2.856,2.853h0a2.857,2.857,0,0,0,2.853-2.859L54.9,55.088c.112,0,.224.014.337.014.024,0,.047,0,.07,0l.018,19.852A2.856,2.856,0,0,0,58.179,77.8h0a2.857,2.857,0,0,0,2.853-2.859l-.021-23a4.878,4.878,0,0,0,.592-2.339V42.053C59.935,41.756,58.873,40.066,58.151,38.909Z" transform="translate(-45.767 -17.649)"/>
        </g>
      </g>
    </g>
  </g>
</svg>
