<svg xmlns="http://www.w3.org/2000/svg" viewBox="0 0 339.034 65.341">
  <defs>
    <style>
      .cls-1 {
        fill: #006da0;
      }

      .cls-2, .cls-3 {
        fill: #fff;
      }

      .cls-2 {
        font-size: 35px;
        font-family: Lato-Bold, Lato;
        font-weight: 700;
      }

      .cls-3 {
        font-size: 18px;
        font-family: Lato-Regular, Lato;
      }
    </style>
  </defs>
  <g id="Group_856" data-name="Group 856" transform="translate(-340 -20.904)">
    <g id="Group_631" data-name="Group 631" transform="translate(340 20.904)">
      <path id="Path_1" data-name="Path 1" class="cls-1" d="M100.021-552.359a.933.933,0,0,1-.473.308c-.189,0-.4.308-.367.5.012.059-.035.094-.106.094s-.083.047-.047.118c.095.154-.248.793-.5.935-.118.071-.177.13-.13.13s-.071.272-.272.6a5.444,5.444,0,0,0-.485,1.147c-.071.307-.2.757-.284.994s-.13.45-.095.45.012.083-.071.177-.118.177-.083.177,0,.225-.095.485a3.125,3.125,0,0,0-.177.769c0,.154-.047.284-.118.284s-.083.071-.047.154a1.685,1.685,0,0,1-.118.651,1.593,1.593,0,0,0-.13.5,1.532,1.532,0,0,1-.177.521,1.293,1.293,0,0,0-.154.591c.047.035.024.071-.047.071s-.118.071-.13.142a2.6,2.6,0,0,1-.4,1.041c-.047,0-.059.071-.035.154s-.059.2-.2.26a.8.8,0,0,0-.367.532,1.6,1.6,0,0,1-.379.662,4.75,4.75,0,0,0-.875,1.55.314.314,0,0,1-.012.154,12.282,12.282,0,0,0-.154,2.011l-.035,1.242-.7.083a1.608,1.608,0,0,0-.745.213,11.8,11.8,0,0,1-3.419-.012,10.559,10.559,0,0,0-3.454-.035,4.745,4.745,0,0,1-1.088.095.139.139,0,0,0-.166.071.139.139,0,0,1-.166.071,1.256,1.256,0,0,0-.556.047,12.331,12.331,0,0,1-1.621.142,3.97,3.97,0,0,0-1.23.13.123.123,0,0,1-.166.024c-.059-.047-.106.023-.106.154,0,.154.166.272.6.4a2.261,2.261,0,0,0,.757.142.2.2,0,0,1,.237.059c.071.118-.5.2-.828.13-.059-.012-.331-.035-.591-.047a1.929,1.929,0,0,1-.615-.107.392.392,0,0,0-.308-.012.324.324,0,0,1-.343-.178c-.189-.319-.45-.319-.45-.012,0,.13-.047.237-.106.237a7.675,7.675,0,0,0-1.94,2.248,11.673,11.673,0,0,1-.828,1.4c-.521.781-.331,1.124.745,1.408a4.337,4.337,0,0,0,.852.047,1.04,1.04,0,0,1,.627.106,1.963,1.963,0,0,0,1.3.012,17.3,17.3,0,0,1,2.993-.107,24.706,24.706,0,0,0,4.46-.2.841.841,0,0,0,.237-.059c0-.118.84-.166,2.7-.154,2.508,0,2.6.012,2.508.237a.945.945,0,0,0-.059.272c0,.059-.154.13-.355.178a.969.969,0,0,0-.355.13,3.7,3.7,0,0,0,.319.532c.319.473.319.5.095.651-.45.307-.532.414-.532.674s-.4.615-.592.5a.257.257,0,0,0-.26.012,1.984,1.984,0,0,1-.662.13c-.615.036-1.372.379-1.42.639s.473.379,1.077.213a7.133,7.133,0,0,1,1.278-.154l.769-.012-.024.994c-.024.769-.071,1.017-.213,1.1a.421.421,0,0,0-.189.331c0,.13-.047.236-.095.236s-.083.284-.047.639a2.013,2.013,0,0,1-.154,1.065,1.186,1.186,0,0,0-.166.461c.024.024.248.166.485.319a1.654,1.654,0,0,1,.521.532,1.744,1.744,0,0,1-.012,1.171.271.271,0,0,0-.083.284.658.658,0,0,1-.047.355,1.506,1.506,0,0,0-.154.509c-.035.3-.532.035-.651-.343-.118-.331-.154-.367-.331-.237a2.843,2.843,0,0,0-.39,1.514.136.136,0,0,1-.047.177.178.178,0,0,0-.059.225.229.229,0,0,1-.059.248.133.133,0,0,0-.071.177,1.717,1.717,0,0,1-.106.7,1.568,1.568,0,0,0-.106.651c.035.036.012.142-.059.225s-.118.189-.083.213a2.285,2.285,0,0,1-.106.662,1.988,1.988,0,0,0-.106.674c.035.036.012.142-.059.225s-.118.189-.083.213a2.985,2.985,0,0,1-.106.757,8.836,8.836,0,0,0-.177.946,6.73,6.73,0,0,1-.118.887,10.914,10.914,0,0,0-.083,1.242c-.024.651-.083,1.5-.118,1.893s-.083.863-.083,1.065a1.382,1.382,0,0,1-.118.5.237.237,0,0,0-.024.26,3.814,3.814,0,0,1-.071.982c-.071.473-.142.994-.154,1.159a1.244,1.244,0,0,1-.106.438.419.419,0,0,0-.012.32.456.456,0,0,1-.024.331,1.472,1.472,0,0,0-.13.45c-.071.532-.106.7-.177.781-.047.035-.047.142-.012.237s0,.166-.083.166-.13.142-.118.319c.035.556.012.627-.26.734a.52.52,0,0,1-.509-.047c-.213-.13-.3-.106-.686.225-.319.272-.426.438-.367.58.035.106.106.178.154.142a2.71,2.71,0,0,1,.781.166c.461.142.733.308.828.5A4.961,4.961,0,0,1,87.032-494c-.095.177-.106.154-.106-.083-.012-1.065-.319-2.307-.379-1.526a16.8,16.8,0,0,0,.225,3.951,1.9,1.9,0,0,1,.047.686.283.283,0,0,0,.059.237.659.659,0,0,1,.118.319c.012.095.036.308.071.473s.047.4.059.532c.024.225.024.225.177.024a4.1,4.1,0,0,0,.071-2.035,1.129,1.129,0,0,1-.083-.473,3.411,3.411,0,0,0-.083-.7l-.083-.343.284.343a1.814,1.814,0,0,1,.343,1.136,3.093,3.093,0,0,1,0,.864c-.083.083-.118.32-.213,1.538a6.2,6.2,0,0,1-.166,1.112c-.118.213.106.745.284.686a1.535,1.535,0,0,0,.414-.485c.26-.378.331-.426.627-.355.461.095.662-.106.757-.745.035-.284.142-.556.237-.592.237-.083.059-.39-.237-.39a1.04,1.04,0,0,0-.521.189c-.248.166-.26.166-.26-.118a2.818,2.818,0,0,1,.012-.379.3.3,0,0,0-.154-.189c-.225-.142.331-.6.627-.509.568.189,2-1.254,2-2.011,0-.095.047-.177.118-.177s.083-.083.047-.178a.365.365,0,0,1,.071-.355c.071-.095.106-.213.071-.272a3.945,3.945,0,0,1-.083-.769,1.373,1.373,0,0,0-.118-.674c-.166,0-.035-.592.142-.651.106-.035,1.23-.071,2.484-.083a14.8,14.8,0,0,0,2.827-.166c.71-.213,1.372-.213,1.455,0s1.5.26,1.5.059a.106.106,0,0,0-.106-.106c-.166,0-.083-.355.118-.485a.892.892,0,0,1,.414-.106.6.6,0,0,0,.379-.142,4.221,4.221,0,0,1,1.538-.178,6.9,6.9,0,0,0,2.721-.3c.686-.213,1.159-.592,1.017-.828-.035-.047,0-.095.059-.095a.13.13,0,0,0,.13-.118c0-.225-.461-.118-1.041.248a1.531,1.531,0,0,1-.864.308l-.284-.047.272-.095c.142-.047.26-.142.26-.213s.035-.095.071-.047.166-.024.3-.13a.989.989,0,0,1,.343-.213c.071-.012.154-.024.213-.035s.627-.024,1.289-.012l1.207.012.177-.331a2.7,2.7,0,0,1,.45-.592,6.891,6.891,0,0,1,1.786-.911c.651-.107,1.976-1.148,1.976-1.561,0-.083.343-.26.757-.4a3.937,3.937,0,0,0,1.017-.473,1.978,1.978,0,0,1,.39-.272q.142-.053-.071-.284c-.2-.236-.2-.248.237-.473.272-.142.461-.331.485-.485.047-.343.367-.331,1.1.036a1.549,1.549,0,0,0,.7.237c.071-.047.118-.036.118.024,0,.177,1.443.059,1.845-.154.225-.118.4-.248.4-.3a3.225,3.225,0,0,1,.355-.521,3.47,3.47,0,0,0,.5-.911.8.8,0,0,1,.935-.651.446.446,0,0,0,.39-.166c.106-.13.154-.225.118-.225a2.249,2.249,0,0,1,.3-.674c.26-.485.331-.71.237-.816s-.036-.331.189-.8a2.206,2.206,0,0,1,.4-.662,2.225,2.225,0,0,0,.414-.686c.177-.367.379-.769.438-.887a.415.415,0,0,0,.047-.319.13.13,0,0,1,.059-.177,2.361,2.361,0,0,0,.118-.946c0-.615.047-.923.177-1.053s.154-.248.059-.473a.91.91,0,0,1-.047-.485.363.363,0,0,0-.059-.343,3.223,3.223,0,0,1-.13-1.337c.012-.639,0-1.195-.012-1.254s-.024-.118-.036-.177a1.37,1.37,0,0,0-.639-.864,2.25,2.25,0,0,1-.615-.651,25.11,25.11,0,0,0-1.562-2.626.2.2,0,0,1-.095-.154,3.554,3.554,0,0,0-1.36-1.124,1.92,1.92,0,0,1-.674-.426,4.078,4.078,0,0,0-1.668-.958c-.047.036-.083,0-.083-.083s-.035-.13-.071-.083a1.082,1.082,0,0,1-.521-.095,1.083,1.083,0,0,0-.521-.095c-.035.047-.071.012-.071-.059s-.083-.106-.177-.071-.177.024-.177-.047-.106-.095-.237-.059a1.407,1.407,0,0,1-.745-.237,2.289,2.289,0,0,0-.923-.308,4.026,4.026,0,0,1-1.053-.13.365.365,0,0,0-.166-.012,1.952,1.952,0,0,1-.473-.095,6.863,6.863,0,0,0-.816-.2,6.592,6.592,0,0,1-.923-.225c-.248-.095-.461-.13-.461-.095s-.059.024-.13-.047a.31.31,0,0,0-.3-.071c-.095.035-.166,0-.166-.083s-.071-.118-.166-.083a.518.518,0,0,1-.39-.094,1.462,1.462,0,0,0-.745-.177,1.732,1.732,0,0,1-.816-.189,1.021,1.021,0,0,0-.793-.13,1.578,1.578,0,0,1-.58-.012,2.962,2.962,0,0,0-1.94-.047c-.095.154-.84.154-1.987,0-.7-.095-.639-.639.083-.757.556-.095.651-.225.485-.674-.118-.3-.095-.319.154-.319.225,0,.308.083.367.343.083.379.355.556.5.331a1.635,1.635,0,0,1,1.065-.509,4.6,4.6,0,0,0,.722-.177c.154-.059.331-.083.39-.035s.106,0,.106-.071.047-.106.106-.071.225-.035.379-.154a6.557,6.557,0,0,1,1.562-.674.275.275,0,0,0,.118-.047,5.635,5.635,0,0,1,.852-.166,1.613,1.613,0,0,0,.355-.083,4.739,4.739,0,0,1,1.006-.166c.3-.047.757-.118,1.029-.189a1.729,1.729,0,0,1,.674-.036.456.456,0,0,0,.331-.024,1.077,1.077,0,0,1,.45-.118c.166-.012.532-.059.828-.107s.674-.094.84-.106a1.418,1.418,0,0,0,.438-.118.272.272,0,0,1,.248-.024c.059.036.248-.071.414-.225.39-.355.662-.379.935-.059a.647.647,0,0,0,.379.237c.095,0,.177.047.177.106a3.941,3.941,0,0,0,1.278.059c1.609-.047,1.585-.047,1.834-.26.106-.095.2-.142.2-.083s.083.012.2-.071.213-.154.237-.142a.057.057,0,0,0,.071.024c.012,0,.106-.024.2-.047s.5-.166.887-.307a4.1,4.1,0,0,1,1.55-.237c.639.012.9-.024,1.041-.166a.648.648,0,0,0,.189-.308c0-.059.13-.107.3-.107a.41.41,0,0,0,.367-.177c.047-.118.166-.154.343-.106.225.059.272.012.319-.284a.791.791,0,0,0-.686-.923,7.207,7.207,0,0,0-1.845-.035,5.794,5.794,0,0,1-1.23-.036c-.035-.047-.142-.047-.237-.012a.382.382,0,0,1-.319-.047,5.49,5.49,0,0,0-1.325-.142,5.259,5.259,0,0,1-1.289-.13.255.255,0,0,0-.26-.035c-.095.035-.166.012-.166-.047a6.948,6.948,0,0,0-2.366.036,29.7,29.7,0,0,1-5.205.047c0-.071-.047-.106-.106-.059a.13.13,0,0,1-.177-.036,5.424,5.424,0,0,0-2.047.012c-.083.059-.154.059-.154,0s-.047-.035-.095.047a7.216,7.216,0,0,1-2.094.166,11.828,11.828,0,0,0-2.153.142.383.383,0,0,1-.319.047.31.31,0,0,0-.3.071c-.071.071-.13.095-.13.047s-.154-.012-.343.083c-.591.308-1.6-.118-1.467-.627.035-.118.012-.248-.047-.284a11.225,11.225,0,0,1,.024-2.626c.036-.26.071-.556.071-.651s.083-.461.177-.816a2.109,2.109,0,0,0,.095-.733.139.139,0,0,1,.071-.166.138.138,0,0,0,.071-.166,1.9,1.9,0,0,1,.095-.7,1.634,1.634,0,0,0,.106-.662c-.035-.024-.012-.118.036-.2a1.171,1.171,0,0,0,.106-.39c.012-.142.095-.733.177-1.325a5.115,5.115,0,0,0-.012-1.952,8.477,8.477,0,0,1-.142-1.029c0-.071-.035-.142-.095-.142s-.106-.083-.106-.178c0-.272-.26-.769-.4-.769-.083,0-.13-.58-.13-1.774a8.9,8.9,0,0,0-.095-1.775c-.047,0-.083-.071-.071-.154.024-.26-.154-.674-.308-.674a1.089,1.089,0,0,1-.331-.059C100.376-552.632,100.175-552.525,100.021-552.359Zm1.053,26.156a1.445,1.445,0,0,1-.213.331,1.251,1.251,0,0,0-.237.662c0,.391.095.461.331.225a4.279,4.279,0,0,1,1.42-.355c.071-.012.142-.059.142-.106,0-.237.5.118.7.485a3.014,3.014,0,0,0,1.207,1.112c.095.012.461.095.816.166s.781.13.946.142a23.083,23.083,0,0,1,3.289.154.217.217,0,0,0,.248.024,1.125,1.125,0,0,1,.568.107,10.909,10.909,0,0,0,2.141.568.1.1,0,0,1,.142.095c0,.071.047.106.106.071a1.241,1.241,0,0,1,.591.107c.272.094.485.142.485.094s.071-.012.154.059a.491.491,0,0,0,.26.13,5.13,5.13,0,0,1,3.194,2.271,6.776,6.776,0,0,1,.58,2.011.138.138,0,0,0,.071.166.144.144,0,0,1,.059.189.237.237,0,0,0,.012.248,6.577,6.577,0,0,1,.083,2.946.327.327,0,0,0-.083.284.88.88,0,0,1-.177.532.96.96,0,0,0-.166.544c.035.095,0,.166-.083.166s-.095.047-.059.118c.083.142-.26.828-.414.828-.071,0-.118.083-.118.177,0,.166-.142.225-.379.189-.059,0-.095.035-.095.107s-.071.118-.166.118a7.806,7.806,0,0,0-2.461,1.337.547.547,0,0,0-.213.355,2.23,2.23,0,0,1-.568.757,4.938,4.938,0,0,0-.627.7,33.142,33.142,0,0,1-5.17,2.65.144.144,0,0,0-.142.142c0,.071-.036.106-.071.059s-.225,0-.4.095a12.118,12.118,0,0,1-1.538.591,4.784,4.784,0,0,0-.6.225.942.942,0,0,1-.509.107c-.035-.047-.071-.012-.071.059s-.035.13-.083.118a9.092,9.092,0,0,0-1.159.308c-.58.189-1.183.355-1.325.379a4.96,4.96,0,0,0-.58.166.546.546,0,0,1-.414.047c-.059-.035-.106,0-.106.071a.1.1,0,0,1-.142.095,4.658,4.658,0,0,0-1.633.509c0,.272-1.112,1.171-1.739,1.42a5.352,5.352,0,0,1-2.331.284c-2.058,0-2.118-.047-1.4-1.148a8.3,8.3,0,0,0,.5-.828c0-.035-.189-.106-.414-.142-.544-.107-.58-.213-.2-.639.994-1.1,1.23-1.514.958-1.68-.118-.083-.166-.331-.142-.97a3.872,3.872,0,0,1,.189-1.585.268.268,0,0,0,0-.237c-.035-.094,0-.165.083-.165s.106-.047.059-.118a.948.948,0,0,1,.106-.52c.095-.225.142-.438.095-.473s.012-.071.095-.071.13-.035.083-.071.012-.249.118-.45a1.085,1.085,0,0,0,.177-.461c-.012-.047.024-.083.083-.083s.106-.343.095-.769c-.024-.662.012-.792.237-.946s.248-.3.248-1.088c.012-.757.047-.946.237-1.1.118-.095.2-.248.177-.319a.186.186,0,0,1,.071-.2c.071-.047.095-.237.047-.438a3.331,3.331,0,0,1,.071-1.029c.071-.367.154-.946.177-1.266a5.033,5.033,0,0,1,.071-.627c.024-.012.036-.071.047-.13a.309.309,0,0,1,.106-.2.53.53,0,0,0,.083-.308c0-.118.059-.213.13-.213s.083-.059.047-.118a.283.283,0,0,1,.024-.272,2.418,2.418,0,0,0,.047-.828c-.012-.367.012-.674.071-.674a5.328,5.328,0,0,0,.7-1.6,5.956,5.956,0,0,0,.106-1.006,1.777,1.777,0,0,1,.97-1.869c.213-.142.355-.331.331-.414-.095-.248.769-.532,1.42-.462C100.778-526.251,101.05-526.215,101.074-526.2Z" transform="translate(-66.445 552.596)"/>
      <path id="Path_2" data-name="Path 2" class="cls-1" d="M307.424-481.566a2.348,2.348,0,0,1-.509.107,3.827,3.827,0,0,0-.532.083,1.211,1.211,0,0,1-.177.047c-.059.024-.142.047-.177.059s-.97.071-2.33.107c-.177.012-.319.142-.45.4a3.028,3.028,0,0,1-.461.686,3.6,3.6,0,0,0-.674,1.136,1.512,1.512,0,0,1-.083.248c-.071.2.012.272.414.319.331.035,1.337-.485,1.337-.7a.725.725,0,0,1,.189-.32c.142-.166.319-.189.911-.142.887.071,1.029.225,1.029,1.029a4.816,4.816,0,0,1-.71,2.366c-.189.343-.319.663-.272.7s0,.083-.094.095.012.059.237.106c.45.106.8-.047.911-.378a.469.469,0,0,1,.26-.26,2.247,2.247,0,0,0,.521-.355,3.267,3.267,0,0,1,1.065-.544,10.86,10.86,0,0,0,1.1-.414,4.288,4.288,0,0,1,1.278-.438c.047.012.083-.035.083-.107s.083-.106.177-.071a.2.2,0,0,0,.237-.024,5.647,5.647,0,0,1,1.893.024,6.526,6.526,0,0,1,1.42.556,4.58,4.58,0,0,0,1.621.473,1.293,1.293,0,0,0,.651-.284,1.858,1.858,0,0,1,1.088-.544,1.727,1.727,0,0,0,.568-.142,1.926,1.926,0,0,1,.757-.189c.248-.035.7-.461.7-.674,0-.142-.213-.177-1.136-.177a5.277,5.277,0,0,1-1.384-.13c-.308-.166-.674-.532-.674-.674a4.724,4.724,0,0,0-1.538-.958,4.965,4.965,0,0,0-2.26.118,4.939,4.939,0,0,1-.935.4,3.56,3.56,0,0,0-1.538.852,4.612,4.612,0,0,1-1.964.816.19.19,0,0,0-.225.047.471.471,0,0,1-.355.118c-.213,0-.26-.047-.213-.237.036-.13.107-.237.166-.237s.106-.095.106-.225a.326.326,0,0,1,.237-.284c.213-.059.236-.166.236-1.136,0-.923-.035-1.088-.225-1.183A.359.359,0,0,0,307.424-481.566Z" transform="translate(-266.289 489.977)"/>
      <path id="Path_3" data-name="Path 3" class="cls-1" d="M19.684-312.532a1.519,1.519,0,0,0-.414.284c-.248.225-.308.225-.757.083s-.5-.142-.686.083a3.516,3.516,0,0,1-.958.58,3.914,3.914,0,0,0-.852.45c-.118.166-.438-.142-.627-.6s-.426-.5-1.053-.107a1.146,1.146,0,0,1-.639.213.3.3,0,0,0-.319.142.755.755,0,0,1-.367.248,6.115,6.115,0,0,0-.745.237,1.24,1.24,0,0,1-.568.13c-.083-.083-.509.319-.509.485,0,.083-.047.154-.095.154-.106,0-.39.225-1.006.769a2.608,2.608,0,0,1-1.514.651c-.45,0-.438-.225.012-.651a1.215,1.215,0,0,0,.355-.544.364.364,0,0,1,.26-.3,1.411,1.411,0,0,0,.485-.3,1.455,1.455,0,0,1,.639-.3c.213-.035.39-.118.39-.166s.154-.154.331-.225a3.5,3.5,0,0,0,.733-.5l.39-.355-.272-.189c-.154-.106-.3-.142-.343-.071a2.291,2.291,0,0,1-.639.319,1.1,1.1,0,0,0-.674.485c-.142.367-.509.556-1.112.58a2.4,2.4,0,0,0-1.254.544,7.274,7.274,0,0,0-2.129,2.07c0,.095-.047.177-.118.177s-.083.154-.047.343c.095.473-.083.757-1.218,1.893a6.371,6.371,0,0,0-1.065,1.3,1.546,1.546,0,0,1-.379.6,5.71,5.71,0,0,0-.875,1.976c0,.083-.047.154-.106.154s-.095.083-.095.189a.708.708,0,0,1-.284.414A2.136,2.136,0,0,0,.9-300.158a.708.708,0,0,1-.248.367c-.414.367-.532.769-.568,1.763s.13,1.526.272.958c.035-.166.13-.308.189-.308.2,0,.13.3-.177.7-.272.378-.272.414-.095.769.106.2.3.521.426.71.2.284.248.544.26,1.361.024,1.088.154,1.443.615,1.656.213.095.272.095.272-.047,0-.355.26-.3.71.177a2.415,2.415,0,0,1,.473.6.117.117,0,0,0,.118.107c.071,0,.118.071.118.166a.277.277,0,0,0,.189.237c.106.047.166.106.13.142a4.378,4.378,0,0,0,.8.923,5.659,5.659,0,0,0,2.425,1.526c.272.012.426.319.237.438-.095.059-.071.107.059.166.225.083.414,0,.627-.3s.5-.154.5.248a1.456,1.456,0,0,0,.615,1.148,3.615,3.615,0,0,0,1.112.154h.852l.047-.355a.667.667,0,0,0-.035-.438,1.407,1.407,0,0,1-.166-.39c-.059-.225-.047-.26.047-.166a.57.57,0,0,0,.438.071c.225-.035.26-.083.154-.213-.071-.095-.177-.142-.225-.107a.13.13,0,0,1-.177-.059.144.144,0,0,0-.189-.059c-.059.047-.106.012-.106-.071s-.035-.118-.071-.083a14.918,14.918,0,0,1-3.975-1.715,5.489,5.489,0,0,0-.568-.438,14.771,14.771,0,0,1-1.775-1.715,2.8,2.8,0,0,0-.343-.4,1.758,1.758,0,0,1-.414-.84c-.035-.26-.13-.473-.189-.473s-.118-.4-.118-.935c0-.864-.024-.946-.248-1.017-.2-.071-.225-.106-.095-.189a.942.942,0,0,1,.426-.107c.272,0,.308-.308.047-.461-.095-.059-.142-.284-.118-.58a1.368,1.368,0,0,0-.035-.568c-.047-.035-.035-.2.024-.355s.071-.284.024-.284,0-.071.095-.154a1.918,1.918,0,0,0,.3-.331c.071-.106.213-.331.331-.5.2-.284.2-.331.035-.663-.319-.615-.237-.7.426-.426.177.071.213.024.213-.272,0-.2-.047-.4-.118-.438-.237-.142-.118-.532.189-.651a4.393,4.393,0,0,0,.8-.532,3.2,3.2,0,0,1,.592-.414.865.865,0,0,0,.284-.213c.13-.107.556-.5.97-.852a11.512,11.512,0,0,0,2.129-2.07c0-.083.2-.3.45-.485s.556-.438.7-.568c.367-.367.6-.544.7-.544a1.328,1.328,0,0,0,.414-.355,5.081,5.081,0,0,1,1.952-1.065,1.639,1.639,0,0,0,.911-.615c.106-.177.26-.331.343-.331a3.007,3.007,0,0,0,.745-.3,5.782,5.782,0,0,1,.686-.3,1.325,1.325,0,0,0,.426-.237,8.956,8.956,0,0,1,3.135-.946c.237,0,.426-.047.426-.118s.166-.189.355-.3c.284-.154.331-.213.213-.343A1.8,1.8,0,0,0,19.684-312.532Z" transform="translate(-0.079 340.983)"/>
    </g>
    <text id="Singles_for_Christ" data-name="Singles for Christ" class="cls-2" transform="translate(413.034 57)"><tspan x="0" y="0">Singles for Christ</tspan></text>
    <text id="South_Bay" data-name="South Bay" class="cls-3" transform="translate(413.034 80)"><tspan x="0" y="0">South Bay</tspan></text>
  </g>
</svg>
