<svg xmlns="http://www.w3.org/2000/svg" viewBox="0 0 365.174 404.035">
  <defs>
    <style>
      .cls-1 {
        opacity: 0.2;
      }

      .cls-2 {
        fill: #006da0;
      }

      .cls-3, .cls-4, .cls-5 {
        fill: #fff;
      }

      .cls-3, .cls-5 {
        font-size: 70px;
      }

      .cls-3, .cls-4 {
        font-family: Palanquin-Medium, Palanquin;
        font-weight: 500;
      }

      .cls-4 {
        font-size: 50px;
      }

      .cls-5 {
        font-family: Palanquin-SemiBold, Palanquin;
        font-weight: 600;
      }

      .cls-6 {
        fill: #0095da;
        font-size: 69px;
        font-family: DancingScript, Dancing Script;
      }
    </style>
  </defs>
  <g id="Group_899" data-name="Group 899" transform="translate(-1280.154 -3059.102)">
    <g id="Group_886" data-name="Group 886" transform="translate(-13 15.491)">
      <g id="Group_884" data-name="Group 884" class="cls-1" transform="translate(1293.154 3043.611)">
        <path id="Path_87" data-name="Path 87" class="cls-2" d="M227.905-551.136a5.77,5.77,0,0,1-2.926,1.9c-1.17,0-2.487,1.9-2.268,3.073.073.366-.219.584-.658.584-.366,0-.512.294-.293.732.585.951-1.536,4.9-3.072,5.779-.732.438-1.1.806-.8.806s-.439,1.682-1.682,3.73a33.678,33.678,0,0,0-3,7.1c-.439,1.9-1.243,4.681-1.755,6.144-.586,1.537-.8,2.781-.586,2.781.293,0,.073.512-.439,1.1s-.731,1.1-.512,1.1c.292,0,0,1.39-.585,3a19.318,19.318,0,0,0-1.1,4.755c0,.951-.292,1.756-.731,1.756-.366,0-.512.438-.293.95a10.42,10.42,0,0,1-.731,4.023,9.852,9.852,0,0,0-.8,3.073,9.477,9.477,0,0,1-1.1,3.218c-.731,1.755-1.17,3.438-.951,3.657.293.22.146.439-.292.439-.366,0-.732.439-.8.877-.146,1.757-1.975,6.438-2.487,6.438-.292,0-.366.439-.22.951.22.438-.366,1.242-1.243,1.608a4.98,4.98,0,0,0-2.268,3.292,9.871,9.871,0,0,1-2.341,4.1c-1.682,1.536-5.559,8.485-5.413,9.583a1.941,1.941,0,0,1-.073.951c-.366,1.025-.732,5.486-.951,12.436l-.22,7.681-4.316.512c-2.414.365-4.462.878-4.609,1.316-.366,1.024-18.507.95-21.14-.073-3.146-1.171-14.484-1.316-21.36-.219-3.438.511-6.437.8-6.73.586a.856.856,0,0,0-1.024.439.857.857,0,0,1-1.024.438c-.292-.22-1.829-.073-3.438.293a76.164,76.164,0,0,1-10.021.877c-4.023.072-7.388.439-7.608.805a.76.76,0,0,1-1.024.146c-.366-.293-.658.145-.658.95,0,.951,1.024,1.682,3.731,2.488a14.018,14.018,0,0,0,4.682.878,1.223,1.223,0,0,1,1.463.364c.439.732-3.072,1.244-5.121.805-.366-.073-2.048-.218-3.657-.291a11.947,11.947,0,0,1-3.8-.659,2.419,2.419,0,0,0-1.9-.073,2,2,0,0,1-2.121-1.1c-1.171-1.974-2.78-1.974-2.78-.073,0,.805-.293,1.462-.658,1.462-1.536,0-10.022,9.8-12,13.9a72.194,72.194,0,0,1-5.121,8.632c-3.218,4.827-2.048,6.949,4.609,8.7a26.883,26.883,0,0,0,5.267.293c1.829-.073,3.585.219,3.877.658.585.952,7.461.952,8.047.074.219-.44,7.9-.732,18.507-.659,15.8.074,21.726-.219,27.578-1.244a5.224,5.224,0,0,0,1.463-.364c0-.732,5.194-1.025,16.678-.952,15.508,0,16.093.074,15.508,1.464a5.841,5.841,0,0,0-.366,1.681c0,.367-.951.8-2.194,1.1a5.991,5.991,0,0,0-2.194.8,22.854,22.854,0,0,0,1.975,3.292c1.975,2.926,1.975,3.071.585,4.023-2.78,1.9-3.292,2.56-3.292,4.17,0,1.682-2.487,3.8-3.658,3.073a1.586,1.586,0,0,0-1.609.073,12.259,12.259,0,0,1-4.1.8c-3.8.219-8.485,2.341-8.778,3.95-.292,1.683,2.926,2.342,6.657,1.317a44.093,44.093,0,0,1,7.9-.952l4.755-.074-.146,6.146c-.146,4.754-.439,6.291-1.317,6.8a2.6,2.6,0,0,0-1.17,2.048c0,.8-.293,1.462-.585,1.462-.366,0-.512,1.756-.293,3.951a12.445,12.445,0,0,1-.951,6.583,7.333,7.333,0,0,0-1.024,2.853c.147.146,1.536,1.024,3,1.975a10.224,10.224,0,0,1,3.219,3.291c.8,2.487.732,6.365-.073,7.242a1.674,1.674,0,0,0-.512,1.756,4.066,4.066,0,0,1-.292,2.195,9.31,9.31,0,0,0-.951,3.145c-.22,1.828-3.292.219-4.023-2.122-.731-2.048-.951-2.267-2.048-1.463-1.171.952-3.072,8.267-2.414,9.364a.844.844,0,0,1-.293,1.1,1.1,1.1,0,0,0-.365,1.39,1.418,1.418,0,0,1-.366,1.536.823.823,0,0,0-.439,1.1c.219.366-.073,2.341-.658,4.316s-.878,3.8-.658,4.023.073.877-.366,1.39c-.512.585-.731,1.17-.512,1.317a14.123,14.123,0,0,1-.658,4.1,12.294,12.294,0,0,0-.658,4.169c.219.22.073.879-.366,1.39-.512.586-.732,1.17-.512,1.318a18.459,18.459,0,0,1-.658,4.681,54.649,54.649,0,0,0-1.1,5.852,41.593,41.593,0,0,1-.732,5.486,67.505,67.505,0,0,0-.512,7.681c-.146,4.023-.512,9.29-.731,11.7s-.512,5.339-.512,6.583a8.548,8.548,0,0,1-.732,3.073,1.465,1.465,0,0,0-.146,1.609c.219.365,0,3.146-.439,6.071s-.878,6.146-.951,7.17a7.692,7.692,0,0,1-.658,2.706,2.59,2.59,0,0,0-.073,1.976,2.819,2.819,0,0,1-.146,2.047,9.1,9.1,0,0,0-.8,2.78c-.439,3.291-.658,4.316-1.1,4.828-.293.219-.293.878-.073,1.463s0,1.024-.512,1.024c-.439,0-.8.878-.731,1.974.219,3.438.073,3.878-1.61,4.536a3.215,3.215,0,0,1-3.145-.293c-1.317-.8-1.829-.658-4.243,1.389-1.975,1.683-2.633,2.706-2.268,3.585.219.658.658,1.1.951.878a16.73,16.73,0,0,1,4.828,1.024c2.853.878,4.535,1.9,5.121,3.072,1.1,1.9.878,12.364-.293,14.337-.585,1.1-.658.951-.658-.512-.073-6.583-1.975-14.264-2.341-9.437a103.893,103.893,0,0,0,1.39,24.432c.366,1.975.512,3.878.293,4.243a1.749,1.749,0,0,0,.366,1.463,4.078,4.078,0,0,1,.731,1.975c.073.585.22,1.9.439,2.927.146,1.024.293,2.487.366,3.291.147,1.39.147,1.39,1.1.146,1.1-1.39,1.463-11.265.439-12.582a6.983,6.983,0,0,1-.512-2.927,21.105,21.105,0,0,0-.512-4.316l-.512-2.121,1.756,2.121c1.317,1.61,1.829,3.292,2.121,7.022.219,2.707.219,5.12,0,5.34-.512.512-.732,1.976-1.317,9.51a38.345,38.345,0,0,1-1.024,6.876c-.731,1.317.658,4.608,1.756,4.242a9.482,9.482,0,0,0,2.56-3c1.609-2.341,2.048-2.634,3.877-2.195,2.853.586,4.1-.658,4.682-4.608.219-1.756.878-3.439,1.463-3.658,1.463-.511.365-2.414-1.463-2.414a6.426,6.426,0,0,0-3.219,1.17c-1.536,1.024-1.609,1.024-1.609-.731a17.423,17.423,0,0,1,.073-2.341,1.859,1.859,0,0,0-.951-1.171c-1.39-.877,2.048-3.73,3.877-3.145,3.511,1.171,12.362-7.754,12.362-12.436,0-.585.293-1.1.732-1.1.366,0,.512-.513.292-1.1a2.258,2.258,0,0,1,.439-2.194c.439-.585.658-1.317.439-1.683a24.387,24.387,0,0,1-.512-4.755c-.073-2.268-.439-4.169-.731-4.169-1.024,0-.219-3.658.878-4.024.658-.219,7.608-.439,15.362-.512,9.509-.073,15.288-.366,17.483-1.024,4.389-1.317,8.486-1.317,9,0,.512,1.243,9.29,1.608,9.29.365a.656.656,0,0,0-.658-.658c-1.024,0-.512-2.195.731-3a5.519,5.519,0,0,1,2.56-.657,3.693,3.693,0,0,0,2.341-.878c.585-.587,3.95-.952,9.51-1.1,11.7-.22,11.631-.22,16.824-1.83,4.243-1.316,7.169-3.658,6.291-5.12-.22-.292,0-.585.366-.585a.8.8,0,0,0,.8-.732c0-1.39-2.853-.731-6.437,1.536-2.341,1.39-4.243,2.122-5.34,1.9l-1.756-.293,1.683-.585c.878-.292,1.609-.878,1.609-1.317s.219-.585.439-.293c.22.219,1.024-.146,1.829-.8a6.117,6.117,0,0,1,2.121-1.317c.439-.073.951-.146,1.317-.219.292-.074,3.877-.146,7.973-.074l7.461.074,1.1-2.047a16.69,16.69,0,0,1,2.78-3.659c1.609-1.463,9.071-5.34,11.046-5.632,4.023-.659,12.216-7.1,12.216-9.656,0-.513,2.121-1.61,4.682-2.487a24.354,24.354,0,0,0,6.291-2.927,12.219,12.219,0,0,1,2.414-1.682q.878-.33-.439-1.757c-1.244-1.462-1.244-1.536,1.463-2.926,1.683-.878,2.853-2.048,3-3,.293-2.122,2.268-2.048,6.8.22,1.975,1.024,3.95,1.682,4.316,1.463.439-.293.731-.22.731.146,0,1.1,8.925.366,11.411-.951,1.39-.732,2.487-1.536,2.487-1.828a19.947,19.947,0,0,1,2.195-3.219,21.466,21.466,0,0,0,3.072-5.633c.878-3,3.292-4.682,5.779-4.023a2.756,2.756,0,0,0,2.414-1.024c.658-.8.951-1.389.731-1.389s.585-1.83,1.829-4.17c1.609-3,2.048-4.39,1.463-5.048-.512-.658-.22-2.048,1.17-4.974,1.1-2.268,2.194-4.1,2.487-4.1s1.463-1.9,2.56-4.244c1.1-2.267,2.341-4.755,2.707-5.486a2.563,2.563,0,0,0,.293-1.975.806.806,0,0,1,.365-1.1c.366-.219.732-2.853.732-5.852,0-3.805.293-5.706,1.1-6.511s.951-1.536.366-2.926a5.625,5.625,0,0,1-.292-3,2.245,2.245,0,0,0-.366-2.122c-.585-.658-.878-3.73-.8-8.266.073-3.95,0-7.388-.073-7.754-.073-.293-.146-.731-.22-1.1a8.471,8.471,0,0,0-3.95-5.341,13.9,13.9,0,0,1-3.8-4.023c-2.78-5.339-9.071-16.02-9.656-16.239a1.209,1.209,0,0,1-.585-.952c0-1.17-5.925-6.07-8.412-6.949a11.879,11.879,0,0,1-4.17-2.632c-2.048-2.268-9.656-6.584-10.314-5.926-.293.219-.512,0-.512-.512s-.219-.805-.439-.512c-.219.219-1.682-.073-3.219-.586s-3-.8-3.219-.586c-.219.293-.439.073-.439-.366s-.512-.658-1.1-.438c-.585.293-1.1.147-1.1-.293s-.658-.586-1.463-.366-2.78-.439-4.608-1.463a14.152,14.152,0,0,0-5.706-1.9,24.894,24.894,0,0,1-6.51-.806,2.253,2.253,0,0,0-1.024-.072,12.072,12.072,0,0,1-2.926-.586,42.544,42.544,0,0,0-5.047-1.243,40.784,40.784,0,0,1-5.706-1.389c-1.536-.586-2.853-.805-2.853-.586,0,.293-.366.147-.8-.293a1.915,1.915,0,0,0-1.829-.439c-.585.219-1.024,0-1.024-.511s-.439-.732-1.024-.512a3.2,3.2,0,0,1-2.414-.585,9.042,9.042,0,0,0-4.608-1.1,10.705,10.705,0,0,1-5.048-1.171c-1.17-.878-2.633-1.1-4.9-.805a9.768,9.768,0,0,1-3.584-.072c-1.39-1.39-11.192-1.61-12-.293-.585.951-5.193.951-12.289,0-4.316-.585-3.95-3.951.512-4.682,3.438-.586,4.024-1.39,3-4.169-.731-1.829-.585-1.976.951-1.976,1.39,0,1.9.513,2.268,2.122.512,2.341,2.195,3.438,3.072,2.048s3.585-2.707,6.584-3.145a28.525,28.525,0,0,0,4.462-1.1c.951-.365,2.048-.511,2.414-.22.366.22.658,0,.658-.439s.293-.657.658-.439,1.39-.219,2.341-.951a40.548,40.548,0,0,1,9.656-4.17,1.713,1.713,0,0,0,.731-.293,34.829,34.829,0,0,1,5.267-1.024,9.973,9.973,0,0,0,2.195-.512c0-.147,1.609-.439,6.218-1.024,1.829-.293,4.682-.732,6.364-1.171a10.678,10.678,0,0,1,4.17-.219,2.818,2.818,0,0,0,2.048-.147,6.65,6.65,0,0,1,2.78-.73c1.024-.074,3.292-.366,5.12-.66,1.829-.218,4.17-.584,5.194-.658a8.769,8.769,0,0,0,2.707-.732,1.683,1.683,0,0,1,1.536-.146c.366.219,1.536-.438,2.56-1.39,2.414-2.195,4.1-2.341,5.779-.367a4,4,0,0,0,2.341,1.464c.585,0,1.1.292,1.1.658s3.511.512,7.9.366c9.949-.292,9.8-.292,11.338-1.608.658-.586,1.243-.879,1.243-.513,0,.292.512.073,1.244-.439.658-.585,1.317-.951,1.463-.878a.351.351,0,0,0,.439.147c.073,0,.658-.147,1.243-.293s3.072-1.025,5.486-1.9a25.357,25.357,0,0,1,9.583-1.463c3.95.074,5.56-.147,6.437-1.023a4.008,4.008,0,0,0,1.17-1.9c0-.365.805-.659,1.829-.659a2.535,2.535,0,0,0,2.268-1.1c.293-.732,1.024-.95,2.122-.658,1.389.366,1.682.074,1.975-1.755a4.894,4.894,0,0,0-4.243-5.706c-2.487-.439-2.195-.439-11.411-.219-3.95.145-7.315,0-7.608-.22-.22-.293-.878-.293-1.463-.073a2.359,2.359,0,0,1-1.975-.294c-.439-.365-4.17-.731-8.193-.877-4.023-.074-7.608-.512-7.973-.806a1.577,1.577,0,0,0-1.609-.218c-.585.218-1.024.073-1.024-.293,0-.8-12-.659-14.63.22-3,.951-32.186,1.243-32.186.292,0-.438-.292-.658-.658-.365a.8.8,0,0,1-1.1-.219c-.439-.8-11.485-.731-12.655.073-.512.366-.951.366-.951,0,0-.292-.292-.219-.585.293-.366.511-4.535.877-12.948,1.024-6.8.073-12.875.512-13.313.877a2.36,2.36,0,0,1-1.975.294,1.915,1.915,0,0,0-1.829.438c-.439.439-.8.586-.8.293s-.951-.072-2.122.513c-3.657,1.9-9.875-.732-9.07-3.877.219-.731.073-1.535-.293-1.755-.585-.366-.512-10.607.146-16.241.22-1.608.439-3.437.439-4.022.073-.585.512-2.853,1.1-5.048.512-2.193.8-4.242.585-4.534a.856.856,0,0,1,.439-1.024.857.857,0,0,0,.439-1.025c-.22-.292.073-2.268.585-4.316.585-2.048.878-3.876.658-4.1-.219-.146-.073-.73.22-1.243a7.248,7.248,0,0,0,.658-2.415c.073-.877.585-4.535,1.1-8.192.732-5.486.732-7.68-.073-12.07a52.411,52.411,0,0,1-.878-6.364c0-.437-.22-.877-.585-.877s-.658-.512-.658-1.1c0-1.683-1.61-4.755-2.487-4.755-.512,0-.8-3.584-.8-10.972,0-6-.293-10.973-.585-10.973s-.512-.438-.439-.951c.146-1.608-.951-4.169-1.9-4.169a6.737,6.737,0,0,1-2.048-.366C230.1-552.819,228.856-552.159,227.905-551.136Zm6.51,161.736a8.956,8.956,0,0,1-1.317,2.048,7.736,7.736,0,0,0-1.463,4.1c0,2.414.585,2.853,2.048,1.39.658-.658,4.974-1.755,8.778-2.194.439-.073.878-.365.878-.657,0-1.463,3.072.731,4.316,3,1.39,2.56,5.706,6.511,7.461,6.876.585.073,2.853.586,5.047,1.025s4.828.805,5.852.878c10.9.074,19.531.512,20.336.95a1.342,1.342,0,0,0,1.536.147c.366-.22,1.975.072,3.511.658,4.755,1.683,12.216,3.731,13.24,3.511a.645.645,0,0,1,.878.585c0,.439.293.658.658.439s1.975.073,3.657.659,3,.877,3,.584c0-.219.439-.072.951.366a3.034,3.034,0,0,0,1.609.806c6.291.584,16.605,7.827,19.75,14.044,1.536,2.853,4.023,11.7,3.584,12.436a.855.855,0,0,0,.439,1.023.89.89,0,0,1,.366,1.171,1.462,1.462,0,0,0,.073,1.535c1.463,2.269,1.829,16.9.512,18.215a2.021,2.021,0,0,0-.512,1.756c.219.511-.293,1.975-1.1,3.292-.732,1.316-1.244,2.852-1.024,3.365.219.585,0,1.024-.512,1.024-.439,0-.585.294-.366.732.512.878-1.61,5.121-2.56,5.121-.439,0-.731.511-.731,1.1,0,1.023-.878,1.389-2.341,1.171-.366,0-.585.219-.585.659,0,.366-.439.731-1.024.731-2.121,0-10.753,4.681-15.216,8.266a3.382,3.382,0,0,0-1.317,2.2c0,.658-1.609,2.78-3.511,4.681a30.525,30.525,0,0,0-3.877,4.317c-.585,1.462-29.626,16.385-31.967,16.385a.889.889,0,0,0-.878.878c0,.438-.22.659-.439.365-.293-.219-1.39,0-2.487.586a74.874,74.874,0,0,1-9.51,3.657,29.515,29.515,0,0,0-3.731,1.39c-1.463.585-2.853.878-3.145.659-.22-.293-.439-.074-.439.365,0,.512-.219.805-.512.732a56.205,56.205,0,0,0-7.169,1.9c-3.585,1.17-7.315,2.195-8.193,2.342a30.664,30.664,0,0,0-3.584,1.024c-1.024.438-2.195.585-2.56.293-.366-.219-.659,0-.659.439a.644.644,0,0,1-.877.585c-1.317-.292-10.095,2.487-10.095,3.145,0,1.683-6.876,7.243-10.753,8.779-3.658,1.463-5.559,1.682-14.411,1.756-12.728,0-13.094-.293-8.632-7.1a51.353,51.353,0,0,0,3.072-5.12c0-.219-1.171-.658-2.56-.878-3.365-.659-3.584-1.317-1.244-3.951,6.145-6.8,7.608-9.363,5.925-10.387-.732-.512-1.024-2.048-.878-6,.146-6.071.512-9.143,1.171-9.8a1.655,1.655,0,0,0,0-1.463c-.219-.584,0-1.023.512-1.023.439,0,.658-.293.366-.732-.219-.366.073-1.829.659-3.218s.878-2.707.585-2.927c-.219-.219.073-.439.585-.439s.8-.219.512-.439c-.219-.292.073-1.537.732-2.78a6.708,6.708,0,0,0,1.1-2.852c-.073-.293.146-.513.512-.513.439,0,.658-2.121.585-4.755-.146-4.1.073-4.9,1.463-5.852,1.317-.951,1.536-1.829,1.536-6.73.073-4.682.293-5.853,1.463-6.8.731-.586,1.244-1.536,1.1-1.975a1.147,1.147,0,0,1,.439-1.243c.439-.292.585-1.463.293-2.707a20.6,20.6,0,0,1,.439-6.365c.439-2.267.951-5.852,1.1-7.827a31.077,31.077,0,0,1,.439-3.876c.146-.074.219-.44.293-.805a1.907,1.907,0,0,1,.658-1.244,3.279,3.279,0,0,0,.512-1.9c0-.731.366-1.317.8-1.317.366,0,.512-.365.293-.731a1.753,1.753,0,0,1,.146-1.683c.292-.439.439-2.779.292-5.119-.073-2.269.073-4.17.439-4.17.512,0,2.048-3.512,4.316-9.876a36.813,36.813,0,0,0,.658-6.217c.219-6.584.878-7.9,6-11.558,1.317-.878,2.194-2.048,2.048-2.559-.585-1.536,4.755-3.292,8.778-2.854C232.587-389.693,234.269-389.472,234.416-389.4Z" transform="translate(-20.289 552.596)"/>
        <path id="Path_88" data-name="Path 88" class="cls-2" d="M335.5-481.52a14.548,14.548,0,0,1-3.146.658,23.674,23.674,0,0,0-3.291.512,7.513,7.513,0,0,1-1.1.293c-.366.146-.878.292-1.1.366-.293.147-6,.439-14.41.658-1.1.073-1.975.878-2.78,2.487a18.725,18.725,0,0,1-2.853,4.242c-1.609,1.757-4.023,5.78-4.169,7.023a9.374,9.374,0,0,1-.512,1.536c-.439,1.243.073,1.682,2.56,1.975,2.047.219,8.265-3,8.265-4.315a4.483,4.483,0,0,1,1.171-1.975c.877-1.024,1.975-1.17,5.632-.878,5.486.439,6.364,1.389,6.364,6.364a29.776,29.776,0,0,1-4.39,14.63c-1.17,2.122-1.975,4.1-1.683,4.315.22.294,0,.513-.584.586s.073.365,1.463.658c2.779.658,4.974-.293,5.632-2.341a2.9,2.9,0,0,1,1.609-1.61,13.878,13.878,0,0,0,3.219-2.194,20.2,20.2,0,0,1,6.584-3.365,67.212,67.212,0,0,0,6.8-2.56c3.511-1.61,7.242-2.926,7.9-2.707.292.073.512-.219.512-.658s.512-.659,1.1-.438a1.258,1.258,0,0,0,1.462-.146c.366-.659,9.07-.513,11.705.146,2.852.731,7.9,2.706,8.777,3.438,1.244,1.023,7.681,2.926,10.022,2.926a8,8,0,0,0,4.023-1.755c2.707-2.268,4.9-3.365,6.731-3.365a10.667,10.667,0,0,0,3.511-.878,11.909,11.909,0,0,1,4.682-1.171c1.536-.219,4.316-2.853,4.316-4.169,0-.878-1.318-1.1-7.023-1.1-3.8,0-7.68-.366-8.558-.8-1.9-1.024-4.169-3.292-4.169-4.169s-7.169-5.267-9.51-5.926c-3.658-.878-12.07-.439-13.972.732a30.53,30.53,0,0,1-5.779,2.486c-4.462,1.464-6.8,2.707-9.51,5.267-2.267,2.048-10.753,5.56-12.143,5.047a1.175,1.175,0,0,0-1.39.293,2.907,2.907,0,0,1-2.194.732c-1.317,0-1.61-.293-1.317-1.464.22-.8.659-1.463,1.025-1.463s.658-.585.658-1.39a2.014,2.014,0,0,1,1.463-1.756c1.317-.366,1.463-1.024,1.463-7.022,0-5.706-.219-6.73-1.39-7.315A2.22,2.22,0,0,0,335.5-481.52Z" transform="translate(-81.146 533.526)"/>
        <path id="Path_89" data-name="Path 89" class="cls-2" d="M121.3-312.232a9.389,9.389,0,0,0-2.56,1.756c-1.536,1.39-1.9,1.39-4.682.512-2.78-.951-3.072-.877-4.243.512-.658.8-3.292,2.414-5.925,3.584a24.222,24.222,0,0,0-5.267,2.779c-.732,1.025-2.707-.877-3.877-3.73-1.244-2.926-2.633-3.073-6.51-.658-1.609.951-3.365,1.536-3.95,1.316a1.884,1.884,0,0,0-1.975.878,4.67,4.67,0,0,1-2.268,1.536,37.733,37.733,0,0,0-4.608,1.463c-1.756.658-3.365,1.024-3.511.8-.512-.512-3.145,1.975-3.145,3,0,.511-.293.95-.585.95-.658,0-2.414,1.391-6.218,4.755-2.487,2.267-6.584,4.023-9.363,4.023s-2.707-1.39.073-4.023c1.17-1.17,2.194-2.707,2.194-3.365a2.251,2.251,0,0,1,1.609-1.829,8.725,8.725,0,0,0,3-1.829,9,9,0,0,1,3.95-1.829c1.317-.219,2.414-.732,2.414-1.024s.951-.952,2.048-1.39a21.628,21.628,0,0,0,4.535-3.072l2.414-2.2-1.682-1.17c-.951-.658-1.829-.878-2.121-.439a14.154,14.154,0,0,1-3.95,1.975c-2.341.878-3.731,1.9-4.17,3-.878,2.268-3.145,3.439-6.876,3.585-2.194.074-4.316,1.024-7.754,3.365-5.486,3.658-13.167,11.119-13.167,12.8,0,.585-.293,1.1-.732,1.1-.366,0-.512.951-.293,2.122.585,2.926-.512,4.682-7.534,11.7-3.365,3.438-6.291,7.023-6.584,8.047a9.564,9.564,0,0,1-2.341,3.731c-1.682,1.682-5.267,9.8-5.413,12.216,0,.512-.293.951-.658.951-.293,0-.585.512-.585,1.17a4.378,4.378,0,0,1-1.756,2.56c-1.829,1.463-4.1,5.267-4.1,6.876a4.378,4.378,0,0,1-1.536,2.268c-2.56,2.268-3.292,4.754-3.511,10.9-.146,6.145.8,9.437,1.682,5.925.219-1.024.8-1.9,1.17-1.9,1.244,0,.8,1.829-1.1,4.316-1.682,2.34-1.682,2.56-.585,4.754.658,1.243,1.829,3.219,2.633,4.389,1.244,1.756,1.536,3.365,1.609,8.413.146,6.73.951,8.924,3.8,10.241,1.317.585,1.682.585,1.682-.292,0-2.195,1.609-1.829,4.389,1.1,1.609,1.683,2.926,3.366,2.926,3.731a.722.722,0,0,0,.732.659c.439,0,.732.439.732,1.024a1.712,1.712,0,0,0,1.17,1.463c.658.292,1.024.658.8.878s2.048,2.779,4.974,5.705c5.121,4.975,11.777,9.144,15,9.437,1.682.073,2.633,1.975,1.463,2.706-.585.366-.439.659.366,1.024,1.39.512,2.56,0,3.877-1.829,1.244-1.829,3.072-.951,3.072,1.536a9,9,0,0,0,3.8,7.1c.951.512,4.023.877,6.876.951h5.267l.293-2.195a4.124,4.124,0,0,0-.219-2.706,8.7,8.7,0,0,1-1.024-2.414c-.366-1.39-.293-1.609.293-1.024a3.525,3.525,0,0,0,2.707.439c1.39-.219,1.609-.512.951-1.316-.439-.586-1.1-.878-1.39-.659a.805.805,0,0,1-1.1-.366.889.889,0,0,0-1.17-.365c-.366.292-.658.073-.658-.439s-.219-.732-.439-.512c-.951,1.025-22.018-8.12-24.579-10.607A33.943,33.943,0,0,0,36.6-176.1c-2.195-1.536-10.973-10.022-10.973-10.607a17.312,17.312,0,0,0-2.121-2.487,10.872,10.872,0,0,1-2.56-5.194c-.219-1.609-.8-2.926-1.17-2.926-.439,0-.732-2.488-.732-5.779,0-5.34-.146-5.852-1.536-6.292-1.244-.439-1.39-.658-.585-1.17a5.824,5.824,0,0,1,2.633-.659c1.682,0,1.9-1.9.293-2.852-.585-.367-.878-1.756-.731-3.585a8.46,8.46,0,0,0-.219-3.511c-.293-.22-.219-1.244.146-2.195s.439-1.755.146-1.755,0-.439.585-.95a11.876,11.876,0,0,0,1.829-2.049c.439-.658,1.317-2.048,2.048-3.072,1.244-1.756,1.244-2.048.219-4.1-1.975-3.8-1.463-4.316,2.633-2.633,1.1.44,1.317.146,1.317-1.683,0-1.243-.293-2.486-.732-2.706-1.463-.877-.732-3.292,1.17-4.023a27.179,27.179,0,0,0,4.974-3.292,19.772,19.772,0,0,1,3.658-2.56,5.346,5.346,0,0,0,1.756-1.316c.8-.659,3.438-3.072,6-5.267,8.339-7.168,13.167-11.923,13.167-12.8,0-.512,1.244-1.829,2.78-3,1.463-1.1,3.438-2.706,4.316-3.511,2.268-2.268,3.731-3.365,4.316-3.365a8.213,8.213,0,0,0,2.56-2.194c2.268-2.34,5.121-3.877,12.07-6.583,3.072-1.172,4.828-2.342,5.633-3.8.658-1.1,1.609-2.048,2.121-2.048a18.605,18.605,0,0,0,4.608-1.829,35.745,35.745,0,0,1,4.243-1.829,8.2,8.2,0,0,0,2.633-1.463c3.219-2.268,15.069-5.852,19.385-5.852,1.463,0,2.633-.293,2.633-.731,0-.366,1.024-1.171,2.195-1.829,1.756-.951,2.048-1.317,1.317-2.121C127.815-312.6,123.5-312.89,121.3-312.232Z" transform="translate(-0.079 488.156)"/>
      </g>
    </g>
    <g id="Group_900" data-name="Group 900">
      <text id="Singles" class="cls-3" transform="translate(1473.093 3200.066)"><tspan x="-109.935" y="0">Singles</tspan></text>
      <text id="for" class="cls-4" transform="translate(1473.093 3252.066)"><tspan x="-30.7" y="0">for</tspan></text>
      <text id="Christ" class="cls-5" transform="translate(1473.093 3307.066)"><tspan x="-89.74" y="0">Christ</tspan></text>
      <text id="South_Bay" data-name="South Bay" class="cls-6" transform="translate(1472 3375)"><tspan x="-130.859" y="0">South Bay</tspan></text>
    </g>
  </g>
</svg>
