<svg xmlns="http://www.w3.org/2000/svg" viewBox="0 0 37.997 42.041">
  <defs>
    <style>
      .cls-1 {
        fill: #0095da;
      }
    </style>
  </defs>
  <g id="Group_657" data-name="Group 657" transform="translate(0 0)">
    <path id="Path_1" data-name="Path 1" class="cls-1" d="M91.223-552.444a.6.6,0,0,1-.3.2c-.122,0-.259.2-.236.32.008.038-.023.061-.069.061s-.053.031-.03.076c.061.1-.16.51-.32.6-.076.046-.114.084-.084.084s-.046.175-.175.388a3.5,3.5,0,0,0-.312.738c-.046.2-.129.487-.183.639s-.084.289-.061.289.008.053-.046.114-.076.114-.053.114,0,.145-.061.312a2.011,2.011,0,0,0-.114.495c0,.1-.03.183-.076.183s-.053.046-.03.1a1.084,1.084,0,0,1-.076.419,1.025,1.025,0,0,0-.084.32.986.986,0,0,1-.114.335.832.832,0,0,0-.1.381c.03.023.015.046-.03.046s-.076.046-.084.091a1.67,1.67,0,0,1-.259.67c-.03,0-.038.046-.023.1s-.038.129-.129.167a.518.518,0,0,0-.236.342,1.028,1.028,0,0,1-.244.426,3.056,3.056,0,0,0-.563,1,.2.2,0,0,1-.008.1,7.9,7.9,0,0,0-.1,1.294l-.023.8-.449.053a1.035,1.035,0,0,0-.48.137,7.592,7.592,0,0,1-2.2-.008,6.792,6.792,0,0,0-2.223-.023,3.05,3.05,0,0,1-.7.061.089.089,0,0,0-.107.046.089.089,0,0,1-.107.046.808.808,0,0,0-.358.03,7.94,7.94,0,0,1-1.043.091,2.555,2.555,0,0,0-.792.084.079.079,0,0,1-.107.015c-.038-.031-.069.015-.069.1,0,.1.107.175.388.259a1.455,1.455,0,0,0,.487.091.127.127,0,0,1,.152.038c.046.076-.32.129-.533.084-.038-.008-.213-.023-.381-.03a1.242,1.242,0,0,1-.4-.069.252.252,0,0,0-.2-.008.208.208,0,0,1-.221-.114c-.122-.206-.289-.206-.289-.008,0,.084-.03.152-.069.152a4.938,4.938,0,0,0-1.248,1.446,7.516,7.516,0,0,1-.533.9c-.335.5-.213.723.48.906a2.791,2.791,0,0,0,.548.03.67.67,0,0,1,.4.068,1.263,1.263,0,0,0,.837.008,11.122,11.122,0,0,1,1.926-.069,15.891,15.891,0,0,0,2.87-.13.537.537,0,0,0,.152-.038c0-.076.54-.107,1.735-.1,1.614,0,1.675.008,1.614.152a.608.608,0,0,0-.038.175c0,.038-.1.084-.228.114a.622.622,0,0,0-.228.084,2.38,2.38,0,0,0,.205.343c.206.3.206.32.061.419-.289.2-.343.266-.343.434s-.259.4-.381.32a.165.165,0,0,0-.167.008,1.277,1.277,0,0,1-.426.084c-.4.023-.883.244-.913.411s.3.244.693.137a4.59,4.59,0,0,1,.822-.1l.495-.008-.015.639c-.015.495-.046.655-.137.708a.271.271,0,0,0-.122.213c0,.084-.03.152-.061.152s-.053.183-.03.411a1.3,1.3,0,0,1-.1.685.763.763,0,0,0-.107.3c.015.015.16.107.312.205a1.063,1.063,0,0,1,.335.343,1.122,1.122,0,0,1-.008.754.174.174,0,0,0-.053.183.423.423,0,0,1-.03.228.969.969,0,0,0-.1.327c-.023.19-.343.023-.419-.221-.076-.213-.1-.236-.213-.152a1.829,1.829,0,0,0-.251.974.088.088,0,0,1-.03.114.114.114,0,0,0-.038.145.148.148,0,0,1-.038.16.086.086,0,0,0-.046.114,1.1,1.1,0,0,1-.068.449,1.009,1.009,0,0,0-.069.419c.023.023.008.091-.038.145s-.076.122-.053.137a1.47,1.47,0,0,1-.069.426,1.279,1.279,0,0,0-.068.434c.023.023.008.091-.038.145s-.076.122-.053.137a1.922,1.922,0,0,1-.068.487,5.685,5.685,0,0,0-.114.609,4.333,4.333,0,0,1-.076.571,7.02,7.02,0,0,0-.053.8c-.015.419-.053.967-.076,1.218s-.053.556-.053.685a.889.889,0,0,1-.076.32.152.152,0,0,0-.015.167,2.454,2.454,0,0,1-.046.632c-.046.3-.091.639-.1.746a.8.8,0,0,1-.068.282.27.27,0,0,0-.008.206.293.293,0,0,1-.015.213.947.947,0,0,0-.084.289c-.046.343-.069.449-.114.5-.03.023-.03.091-.008.152s0,.107-.053.107-.084.091-.076.206c.023.358.008.4-.167.472a.335.335,0,0,1-.327-.03c-.137-.084-.19-.068-.441.145-.206.175-.274.282-.236.373.023.068.068.114.1.091a1.742,1.742,0,0,1,.5.107c.3.091.472.2.533.32a3.192,3.192,0,0,1-.03,1.492c-.061.114-.069.1-.069-.053-.008-.685-.206-1.484-.244-.982a10.811,10.811,0,0,0,.145,2.542,1.225,1.225,0,0,1,.03.441.182.182,0,0,0,.038.152.425.425,0,0,1,.076.206c.008.061.023.2.046.3s.03.259.038.343c.015.145.015.145.114.015a2.637,2.637,0,0,0,.046-1.309.727.727,0,0,1-.053-.3,2.2,2.2,0,0,0-.053-.449l-.053-.221.183.221a1.167,1.167,0,0,1,.221.731,1.991,1.991,0,0,1,0,.556c-.053.053-.076.206-.137.99a3.988,3.988,0,0,1-.107.715c-.076.137.069.48.183.441a.987.987,0,0,0,.266-.312c.167-.243.213-.274.4-.228.3.061.426-.068.487-.479.023-.183.091-.358.152-.381.152-.053.038-.251-.152-.251a.669.669,0,0,0-.335.122c-.16.107-.167.107-.167-.076a1.813,1.813,0,0,1,.008-.244.193.193,0,0,0-.1-.122c-.145-.091.213-.388.4-.327.365.122,1.286-.807,1.286-1.294,0-.061.03-.114.076-.114s.053-.053.03-.114a.235.235,0,0,1,.046-.228c.046-.061.068-.137.046-.175a2.539,2.539,0,0,1-.053-.495.884.884,0,0,0-.076-.434c-.107,0-.023-.381.091-.419.069-.023.792-.046,1.6-.053a9.526,9.526,0,0,0,1.819-.107c.457-.137.883-.137.936,0s.967.167.967.038a.068.068,0,0,0-.069-.068c-.107,0-.053-.228.076-.312a.574.574,0,0,1,.266-.068.384.384,0,0,0,.244-.091,2.718,2.718,0,0,1,.99-.114,4.439,4.439,0,0,0,1.751-.19c.441-.137.746-.381.655-.533-.023-.03,0-.061.038-.061a.083.083,0,0,0,.084-.076c0-.145-.3-.076-.67.16a.985.985,0,0,1-.556.2l-.183-.03.175-.061c.091-.03.167-.091.167-.137s.023-.061.046-.03.107-.015.19-.084a.636.636,0,0,1,.221-.137c.046-.008.1-.015.137-.023s.4-.015.83-.008l.776.008.114-.213a1.736,1.736,0,0,1,.289-.381,4.433,4.433,0,0,1,1.149-.586c.419-.068,1.271-.738,1.271-1,0-.053.221-.167.487-.259a2.534,2.534,0,0,0,.655-.3,1.275,1.275,0,0,1,.251-.175q.091-.034-.046-.183c-.129-.152-.129-.16.152-.3.175-.091.3-.213.312-.312.03-.221.236-.213.708.023a1,1,0,0,0,.449.152c.046-.03.076-.023.076.015,0,.114.929.038,1.187-.1.145-.076.259-.16.259-.19a2.075,2.075,0,0,1,.228-.335,2.233,2.233,0,0,0,.32-.586.513.513,0,0,1,.6-.419.287.287,0,0,0,.251-.107c.068-.084.1-.145.076-.145a1.447,1.447,0,0,1,.19-.434c.167-.312.213-.457.152-.525s-.023-.213.122-.518a1.42,1.42,0,0,1,.259-.426,1.432,1.432,0,0,0,.266-.442c.114-.236.244-.495.282-.571a.267.267,0,0,0,.03-.206.084.084,0,0,1,.038-.114,1.519,1.519,0,0,0,.076-.609c0-.4.03-.594.114-.677s.1-.16.038-.3a.585.585,0,0,1-.03-.312.234.234,0,0,0-.038-.221,2.073,2.073,0,0,1-.084-.86c.008-.411,0-.769-.008-.807s-.015-.076-.023-.114a.882.882,0,0,0-.411-.556,1.447,1.447,0,0,1-.4-.419,16.162,16.162,0,0,0-1-1.69.126.126,0,0,1-.061-.1,2.287,2.287,0,0,0-.875-.723,1.236,1.236,0,0,1-.434-.274,2.624,2.624,0,0,0-1.073-.617c-.03.023-.053,0-.053-.053s-.023-.084-.046-.053a.7.7,0,0,1-.335-.061.7.7,0,0,0-.335-.061c-.023.031-.046.008-.046-.038s-.053-.068-.114-.046-.114.015-.114-.03-.069-.061-.152-.038a.906.906,0,0,1-.48-.152,1.473,1.473,0,0,0-.594-.2,2.593,2.593,0,0,1-.677-.084.234.234,0,0,0-.107-.008,1.254,1.254,0,0,1-.3-.061,4.423,4.423,0,0,0-.525-.129,4.245,4.245,0,0,1-.594-.145c-.16-.061-.3-.084-.3-.061s-.038.015-.084-.03a.2.2,0,0,0-.19-.046c-.061.023-.107,0-.107-.053s-.046-.076-.107-.053a.333.333,0,0,1-.251-.061.94.94,0,0,0-.48-.114,1.114,1.114,0,0,1-.525-.122.657.657,0,0,0-.51-.084,1.017,1.017,0,0,1-.373-.008,1.906,1.906,0,0,0-1.248-.03c-.061.1-.54.1-1.279,0-.449-.061-.411-.411.053-.487.358-.061.419-.145.312-.434-.076-.19-.061-.206.1-.206.145,0,.2.053.236.221.053.244.228.358.32.213a1.052,1.052,0,0,1,.685-.327,2.956,2.956,0,0,0,.464-.114c.1-.038.213-.053.251-.023s.069,0,.069-.046.03-.068.068-.046.145-.023.244-.1a4.221,4.221,0,0,1,1-.434.177.177,0,0,0,.076-.03,3.624,3.624,0,0,1,.548-.107,1.04,1.04,0,0,0,.228-.053,3.051,3.051,0,0,1,.647-.107c.19-.031.487-.076.662-.122a1.113,1.113,0,0,1,.434-.023.293.293,0,0,0,.213-.015.693.693,0,0,1,.289-.076c.107-.008.343-.038.533-.069s.434-.061.54-.068a.912.912,0,0,0,.282-.076.175.175,0,0,1,.16-.015c.038.023.16-.046.266-.145.251-.228.426-.244.6-.038a.417.417,0,0,0,.244.152c.061,0,.114.03.114.068a2.536,2.536,0,0,0,.822.038c1.035-.03,1.02-.03,1.18-.167.068-.061.129-.091.129-.053s.053.008.129-.046.137-.1.152-.091a.037.037,0,0,0,.046.015c.008,0,.069-.015.129-.03s.32-.107.571-.2a2.637,2.637,0,0,1,1-.152c.411.008.578-.015.67-.107a.417.417,0,0,0,.122-.2c0-.038.084-.069.19-.069a.264.264,0,0,0,.236-.114c.03-.076.107-.1.221-.068.145.038.175.008.205-.183a.509.509,0,0,0-.441-.594,4.643,4.643,0,0,0-1.187-.023,3.734,3.734,0,0,1-.792-.023c-.023-.031-.091-.031-.152-.008a.246.246,0,0,1-.205-.031,3.526,3.526,0,0,0-.853-.091,3.389,3.389,0,0,1-.83-.084.164.164,0,0,0-.167-.023c-.061.023-.107.008-.107-.03a4.468,4.468,0,0,0-1.522.023,19.125,19.125,0,0,1-3.349.03c0-.046-.03-.069-.069-.038a.084.084,0,0,1-.114-.023,3.489,3.489,0,0,0-1.317.008c-.053.038-.1.038-.1,0s-.03-.023-.061.03a4.643,4.643,0,0,1-1.347.107,7.6,7.6,0,0,0-1.385.091.246.246,0,0,1-.206.031.2.2,0,0,0-.19.046c-.046.046-.084.061-.084.031s-.1-.008-.221.053c-.381.2-1.028-.076-.944-.4.023-.076.008-.16-.03-.183a7.222,7.222,0,0,1,.015-1.69c.023-.167.046-.358.046-.419s.053-.3.114-.525a1.357,1.357,0,0,0,.061-.472.089.089,0,0,1,.046-.107.089.089,0,0,0,.046-.107,1.223,1.223,0,0,1,.061-.449,1.051,1.051,0,0,0,.068-.426c-.023-.015-.008-.076.023-.129a.754.754,0,0,0,.069-.251c.008-.091.061-.472.114-.852a3.291,3.291,0,0,0-.008-1.256,5.452,5.452,0,0,1-.091-.662c0-.046-.023-.091-.061-.091s-.068-.053-.068-.114c0-.175-.167-.495-.259-.495-.053,0-.084-.373-.084-1.142a5.726,5.726,0,0,0-.061-1.142c-.03,0-.053-.046-.046-.1.015-.167-.1-.434-.2-.434a.7.7,0,0,1-.213-.038C91.451-552.619,91.322-552.55,91.223-552.444Zm.677,16.829a.931.931,0,0,1-.137.213.805.805,0,0,0-.152.426c0,.251.061.3.213.145a2.755,2.755,0,0,1,.913-.228c.046-.008.091-.038.091-.068,0-.152.32.076.449.312a1.939,1.939,0,0,0,.776.715c.061.008.3.061.525.107s.5.084.609.091a14.842,14.842,0,0,1,2.116.1.14.14,0,0,0,.16.015.723.723,0,0,1,.365.068,7.016,7.016,0,0,0,1.378.365.067.067,0,0,1,.091.061c0,.046.03.068.069.046a.8.8,0,0,1,.381.069c.175.061.312.091.312.061s.046-.008.1.038a.316.316,0,0,0,.167.084,3.3,3.3,0,0,1,2.055,1.461,4.36,4.36,0,0,1,.373,1.294.089.089,0,0,0,.046.107.093.093,0,0,1,.038.122.152.152,0,0,0,.008.16,4.231,4.231,0,0,1,.053,1.9.21.21,0,0,0-.053.183.566.566,0,0,1-.114.343.618.618,0,0,0-.107.35c.023.061,0,.107-.053.107s-.061.031-.038.076c.053.091-.167.533-.266.533-.046,0-.076.053-.076.114,0,.107-.091.145-.244.122-.038,0-.061.023-.061.069s-.046.076-.107.076a5.023,5.023,0,0,0-1.583.86.352.352,0,0,0-.137.228,1.434,1.434,0,0,1-.365.487,3.176,3.176,0,0,0-.4.449,21.323,21.323,0,0,1-3.326,1.7.093.093,0,0,0-.091.091c0,.046-.023.068-.046.038s-.145,0-.259.061a7.781,7.781,0,0,1-.989.38,3.083,3.083,0,0,0-.388.145.606.606,0,0,1-.327.069c-.023-.031-.046-.008-.046.038s-.023.084-.053.076a5.829,5.829,0,0,0-.746.2c-.373.122-.761.228-.852.244a3.2,3.2,0,0,0-.373.107.351.351,0,0,1-.266.031c-.038-.023-.069,0-.069.046a.067.067,0,0,1-.091.061,3,3,0,0,0-1.05.327c0,.175-.715.754-1.119.913a3.445,3.445,0,0,1-1.5.183c-1.324,0-1.362-.031-.9-.738a5.336,5.336,0,0,0,.32-.533c0-.023-.122-.068-.266-.091-.35-.069-.373-.137-.129-.411.639-.708.792-.974.617-1.081-.076-.053-.107-.213-.091-.624a2.491,2.491,0,0,1,.122-1.02.172.172,0,0,0,0-.152c-.023-.061,0-.107.053-.107s.069-.03.038-.076a.61.61,0,0,1,.069-.335c.061-.145.091-.282.061-.3s.008-.046.061-.046.084-.023.053-.046.008-.16.076-.289a.7.7,0,0,0,.114-.3c-.008-.03.015-.053.053-.053s.069-.221.061-.495c-.015-.426.008-.51.152-.609s.16-.19.16-.7c.008-.487.03-.609.152-.708.076-.061.129-.16.114-.206a.119.119,0,0,1,.046-.129c.046-.03.061-.152.03-.282a2.143,2.143,0,0,1,.046-.662c.046-.236.1-.609.114-.814a3.24,3.24,0,0,1,.046-.4c.015-.008.023-.046.03-.084a.2.2,0,0,1,.068-.129.341.341,0,0,0,.053-.2c0-.076.038-.137.084-.137s.053-.038.03-.076a.182.182,0,0,1,.015-.175,1.556,1.556,0,0,0,.03-.533c-.008-.236.008-.434.046-.434a3.427,3.427,0,0,0,.449-1.028,3.833,3.833,0,0,0,.069-.647,1.143,1.143,0,0,1,.624-1.2c.137-.091.228-.213.213-.266-.061-.16.495-.343.913-.3C91.71-535.645,91.885-535.622,91.9-535.615Z" transform="translate(-69.62 552.595)"/>
    <path id="Path_2" data-name="Path 2" class="cls-1" d="M305.492-481.569a1.51,1.51,0,0,1-.327.069,2.464,2.464,0,0,0-.343.053.775.775,0,0,1-.114.03c-.038.015-.091.03-.114.038s-.624.046-1.5.069c-.114.008-.206.091-.289.259a1.949,1.949,0,0,1-.3.441,2.317,2.317,0,0,0-.434.731.972.972,0,0,1-.053.16c-.046.129.008.175.266.206.213.023.86-.312.86-.449a.467.467,0,0,1,.122-.206c.091-.107.205-.122.586-.091.571.046.662.145.662.662a3.1,3.1,0,0,1-.457,1.522c-.122.221-.205.426-.175.449s0,.053-.061.061.008.038.152.068c.289.068.518-.03.586-.244a.3.3,0,0,1,.167-.167,1.447,1.447,0,0,0,.335-.228,2.1,2.1,0,0,1,.685-.35,7,7,0,0,0,.708-.266,2.758,2.758,0,0,1,.822-.282c.03.008.053-.023.053-.069s.053-.068.114-.046a.131.131,0,0,0,.152-.015,3.634,3.634,0,0,1,1.218.015,4.2,4.2,0,0,1,.913.358,2.946,2.946,0,0,0,1.043.3.832.832,0,0,0,.419-.183,1.2,1.2,0,0,1,.7-.35,1.111,1.111,0,0,0,.365-.091,1.24,1.24,0,0,1,.487-.122c.16-.023.449-.3.449-.434,0-.091-.137-.114-.731-.114a3.4,3.4,0,0,1-.891-.084c-.2-.107-.434-.343-.434-.434a3.039,3.039,0,0,0-.99-.617,3.194,3.194,0,0,0-1.454.076,3.175,3.175,0,0,1-.6.259,2.29,2.29,0,0,0-.99.548,2.967,2.967,0,0,1-1.263.525.122.122,0,0,0-.145.031.3.3,0,0,1-.228.076c-.137,0-.167-.03-.137-.152.023-.084.069-.152.107-.152s.069-.061.069-.145a.21.21,0,0,1,.152-.183c.137-.038.152-.107.152-.731,0-.594-.023-.7-.145-.761A.231.231,0,0,0,305.492-481.569Z" transform="translate(-279.026 486.981)"/>
    <path id="Path_3" data-name="Path 3" class="cls-1" d="M12.693-312.553a.977.977,0,0,0-.266.183c-.16.145-.2.145-.487.053s-.32-.091-.441.053a2.263,2.263,0,0,1-.617.373,2.518,2.518,0,0,0-.548.289c-.076.107-.282-.091-.4-.388s-.274-.32-.677-.069a.737.737,0,0,1-.411.137.2.2,0,0,0-.206.091.486.486,0,0,1-.236.16,3.932,3.932,0,0,0-.48.152.8.8,0,0,1-.365.084c-.053-.053-.327.206-.327.312,0,.053-.03.1-.061.1-.069,0-.251.145-.647.495a1.678,1.678,0,0,1-.974.419c-.289,0-.282-.145.008-.419a.782.782,0,0,0,.228-.35.234.234,0,0,1,.167-.19.907.907,0,0,0,.312-.19.936.936,0,0,1,.411-.19c.137-.023.251-.076.251-.107s.1-.1.213-.145a2.248,2.248,0,0,0,.472-.32l.251-.228-.175-.122c-.1-.069-.19-.091-.221-.046a1.474,1.474,0,0,1-.411.206.707.707,0,0,0-.434.312c-.091.236-.327.358-.715.373a1.545,1.545,0,0,0-.807.35,4.68,4.68,0,0,0-1.37,1.332c0,.061-.03.114-.076.114s-.053.1-.03.221c.061.3-.053.487-.784,1.218a4.1,4.1,0,0,0-.685.837,1,1,0,0,1-.244.388,3.674,3.674,0,0,0-.563,1.271c0,.053-.03.1-.069.1s-.061.053-.061.122a.456.456,0,0,1-.183.266,1.375,1.375,0,0,0-.426.715.455.455,0,0,1-.16.236c-.266.236-.343.495-.365,1.134s.084.982.175.617c.023-.107.084-.2.122-.2.129,0,.084.19-.114.449-.175.244-.175.266-.061.495.069.129.19.335.274.457.129.183.16.35.167.875.015.7.1.929.4,1.066.137.061.175.061.175-.03,0-.228.167-.19.457.114a1.553,1.553,0,0,1,.3.388.075.075,0,0,0,.076.069c.046,0,.076.046.076.107a.178.178,0,0,0,.122.152c.069.03.107.068.084.091a2.816,2.816,0,0,0,.518.594,3.641,3.641,0,0,0,1.56.982c.175.008.274.205.152.282-.061.038-.046.069.038.107.145.053.266,0,.4-.19s.32-.1.32.16a.937.937,0,0,0,.4.738,2.325,2.325,0,0,0,.715.1h.548l.03-.228a.429.429,0,0,0-.023-.282.906.906,0,0,1-.107-.251c-.038-.145-.03-.167.03-.107a.367.367,0,0,0,.282.046c.145-.023.167-.053.1-.137-.046-.061-.114-.091-.145-.069a.084.084,0,0,1-.114-.038.092.092,0,0,0-.122-.038c-.038.03-.069.008-.069-.046s-.023-.076-.046-.053a9.6,9.6,0,0,1-2.557-1.1,3.53,3.53,0,0,0-.365-.282,9.5,9.5,0,0,1-1.142-1.1,1.8,1.8,0,0,0-.221-.259,1.131,1.131,0,0,1-.266-.54c-.023-.167-.084-.3-.122-.3s-.076-.259-.076-.6c0-.556-.015-.609-.16-.655-.129-.046-.145-.068-.061-.122a.606.606,0,0,1,.274-.069c.175,0,.2-.2.03-.3-.061-.038-.091-.183-.076-.373a.88.88,0,0,0-.023-.365c-.03-.023-.023-.129.015-.228s.046-.183.015-.183,0-.046.061-.1a1.233,1.233,0,0,0,.19-.213c.046-.068.137-.213.213-.32.129-.183.129-.213.023-.426-.206-.4-.152-.449.274-.274.114.046.137.015.137-.175,0-.129-.03-.259-.076-.282-.152-.091-.076-.343.122-.419a2.826,2.826,0,0,0,.518-.343,2.057,2.057,0,0,1,.381-.266.556.556,0,0,0,.183-.137c.084-.069.358-.32.624-.548a7.4,7.4,0,0,0,1.37-1.332c0-.053.129-.19.289-.312s.358-.282.449-.365c.236-.236.388-.35.449-.35a.854.854,0,0,0,.266-.228,3.269,3.269,0,0,1,1.256-.685,1.054,1.054,0,0,0,.586-.4c.069-.114.167-.213.221-.213a1.934,1.934,0,0,0,.48-.19,3.724,3.724,0,0,1,.441-.19.853.853,0,0,0,.274-.152,5.762,5.762,0,0,1,2.017-.609c.152,0,.274-.03.274-.076s.107-.122.228-.19c.183-.1.213-.137.137-.221A1.158,1.158,0,0,0,12.693-312.553Z" transform="translate(-0.079 330.858)"/>
  </g>
</svg>
