<svg xmlns="http://www.w3.org/2000/svg" xmlns:xlink="http://www.w3.org/1999/xlink" viewBox="0 0 960.912 228.996">
  <defs>
    <style>
      .cls-1 {
        fill: #fff;
        stroke: #707070;
        opacity: 0.324;
      }

      .cls-2 {
        clip-path: url(#clip-path);
      }

      .cls-3 {
        fill: #4bc4d8;
      }

      .cls-4, .cls-6 {
        font-size: 100px;
      }

      .cls-4 {
        font-family: Palanquin-Medium, Palanquin;
        font-weight: 500;
      }

      .cls-5 {
        font-size: 72px;
      }

      .cls-5, .cls-6 {
        font-family: Palanquin-SemiBold, Palanquin;
        font-weight: 600;
      }

      .cls-7 {
        fill: #21606a;
        font-size: 86px;
        font-family: DancingScript-Bold, Dancing Script;
        font-weight: 700;
      }
    </style>
    <clipPath id="clip-path">
      <rect id="Rectangle_460" data-name="Rectangle 460" class="cls-1" width="960.913" height="228.996" transform="translate(-2349 7849)"/>
    </clipPath>
  </defs>
  <g id="Mask_Group_146" data-name="Mask Group 146" class="cls-2" transform="translate(2349 -7849)">
    <g id="Group_933" data-name="Group 933" transform="translate(-2337.404 7825.907)">
      <g id="Group_931" data-name="Group 931" transform="translate(0 30.024)">
        <g id="Group_930" data-name="Group 930" transform="translate(0)">
          <path id="Path_92" data-name="Path 92" class="cls-3" d="M156.613-551.818a3.074,3.074,0,0,1-1.559,1.013c-.623,0-1.325,1.013-1.208,1.637.039.195-.117.311-.351.311-.195,0-.273.156-.156.39.312.507-.818,2.611-1.636,3.078-.39.233-.584.429-.429.429s-.234.9-.9,1.987a17.938,17.938,0,0,0-1.6,3.78c-.234,1.013-.662,2.493-.935,3.273-.312.819-.429,1.481-.312,1.481.156,0,.039.273-.234.584s-.39.584-.273.584c.156,0,0,.741-.312,1.6a10.288,10.288,0,0,0-.585,2.533c0,.507-.156.935-.39.935-.195,0-.273.233-.156.506a5.55,5.55,0,0,1-.39,2.143,5.247,5.247,0,0,0-.429,1.637,5.048,5.048,0,0,1-.585,1.714,4.261,4.261,0,0,0-.507,1.948c.156.117.078.234-.156.234-.195,0-.39.234-.429.467-.078.936-1.052,3.429-1.325,3.429-.156,0-.195.234-.117.507.117.233-.195.662-.662.857a2.653,2.653,0,0,0-1.208,1.754,5.258,5.258,0,0,1-1.247,2.182c-.9.818-2.961,4.52-2.884,5.1a1.034,1.034,0,0,1-.039.507,40.459,40.459,0,0,0-.507,6.625l-.117,4.092-2.3.273a5.3,5.3,0,0,0-2.455.7c-.195.545-9.858.506-11.261-.039-1.676-.624-7.715-.7-11.378-.117a15.657,15.657,0,0,1-3.585.312.456.456,0,0,0-.546.234.456.456,0,0,1-.546.234,4.14,4.14,0,0,0-1.831.156,40.588,40.588,0,0,1-5.338.467,13.067,13.067,0,0,0-4.053.429.4.4,0,0,1-.545.078c-.195-.156-.351.077-.351.506,0,.507.545.9,1.987,1.325a7.465,7.465,0,0,0,2.494.468.652.652,0,0,1,.779.194c.234.39-1.637.663-2.728.429-.195-.039-1.091-.116-1.948-.155a6.362,6.362,0,0,1-2.026-.351,1.288,1.288,0,0,0-1.013-.039,1.067,1.067,0,0,1-1.13-.585c-.624-1.052-1.481-1.052-1.481-.039,0,.429-.156.779-.351.779-.818,0-5.338,5.222-6.39,7.4a38.456,38.456,0,0,1-2.728,4.6c-1.714,2.571-1.091,3.7,2.455,4.637a14.321,14.321,0,0,0,2.805.156,3.428,3.428,0,0,1,2.065.35c.312.507,3.975.507,4.286.04.117-.234,4.208-.39,9.858-.351,8.417.04,11.573-.116,14.69-.663a2.777,2.777,0,0,0,.779-.194c0-.39,2.767-.546,8.884-.507,8.261,0,8.573.039,8.261.78a3.111,3.111,0,0,0-.195.9c0,.2-.506.429-1.169.585a3.2,3.2,0,0,0-1.169.428,12.17,12.17,0,0,0,1.052,1.754c1.052,1.559,1.052,1.636.312,2.143-1.481,1.013-1.753,1.364-1.753,2.221,0,.9-1.325,2.026-1.948,1.637a.845.845,0,0,0-.857.039,6.528,6.528,0,0,1-2.182.428c-2.026.117-4.52,1.247-4.676,2.1-.156.9,1.559,1.248,3.546.7a23.484,23.484,0,0,1,4.208-.507l2.533-.039-.078,3.274c-.078,2.532-.234,3.351-.7,3.624a1.386,1.386,0,0,0-.624,1.091c0,.429-.156.779-.312.779-.195,0-.273.936-.156,2.1a6.629,6.629,0,0,1-.507,3.507,3.906,3.906,0,0,0-.546,1.52c.078.078.818.546,1.6,1.052a5.445,5.445,0,0,1,1.714,1.753c.429,1.325.39,3.39-.039,3.858a.892.892,0,0,0-.273.935,2.166,2.166,0,0,1-.156,1.169,4.959,4.959,0,0,0-.507,1.675c-.117.974-1.753.117-2.143-1.13-.39-1.091-.506-1.208-1.091-.78-.624.507-1.637,4.4-1.286,4.988a.45.45,0,0,1-.156.585.585.585,0,0,0-.195.74.755.755,0,0,1-.195.818.438.438,0,0,0-.234.585,5.659,5.659,0,0,1-.351,2.3,5.166,5.166,0,0,0-.351,2.143c.117.117.039.467-.195.741-.273.312-.39.623-.273.7a7.522,7.522,0,0,1-.351,2.182,6.549,6.549,0,0,0-.351,2.221c.117.117.039.468-.195.74-.273.312-.39.623-.273.7a9.833,9.833,0,0,1-.351,2.493,29.1,29.1,0,0,0-.585,3.117,22.161,22.161,0,0,1-.39,2.922,35.956,35.956,0,0,0-.273,4.091c-.078,2.143-.273,4.949-.39,6.235s-.273,2.844-.273,3.507a4.553,4.553,0,0,1-.39,1.637.78.78,0,0,0-.078.857,12.566,12.566,0,0,1-.234,3.234c-.234,1.559-.468,3.274-.507,3.819a4.1,4.1,0,0,1-.351,1.441,1.379,1.379,0,0,0-.039,1.052,1.5,1.5,0,0,1-.078,1.091,4.849,4.849,0,0,0-.429,1.481c-.234,1.753-.351,2.3-.585,2.572-.156.117-.156.468-.039.779s0,.546-.273.546c-.234,0-.429.467-.39,1.052.117,1.832.039,2.066-.857,2.416a1.712,1.712,0,0,1-1.675-.156c-.7-.429-.974-.35-2.26.74-1.052.9-1.4,1.441-1.208,1.91.117.35.351.585.507.468a8.916,8.916,0,0,1,2.572.545c1.52.468,2.416,1.013,2.728,1.636.584,1.013.467,6.586-.156,7.637-.312.585-.351.507-.351-.273-.039-3.507-1.052-7.6-1.247-5.027a55.341,55.341,0,0,0,.74,13.015,6.272,6.272,0,0,1,.156,2.26.932.932,0,0,0,.195.779,2.173,2.173,0,0,1,.39,1.052c.039.312.117,1.013.234,1.559.078.545.156,1.325.195,1.753.078.74.078.74.585.078.585-.741.779-6,.234-6.7a3.719,3.719,0,0,1-.273-1.559,11.243,11.243,0,0,0-.273-2.3l-.273-1.13.935,1.13c.7.857.974,1.753,1.13,3.741a10.188,10.188,0,0,1,0,2.844c-.273.273-.39,1.052-.7,5.066a20.426,20.426,0,0,1-.546,3.663c-.39.7.351,2.455.935,2.26a5.05,5.05,0,0,0,1.364-1.6c.857-1.247,1.091-1.4,2.065-1.169,1.52.312,2.182-.35,2.494-2.455.117-.935.468-1.832.779-1.948.779-.272.195-1.286-.779-1.286a3.423,3.423,0,0,0-1.714.623c-.818.546-.857.546-.857-.389a9.281,9.281,0,0,1,.039-1.247.99.99,0,0,0-.507-.624c-.74-.467,1.091-1.987,2.065-1.675,1.87.624,6.585-4.131,6.585-6.625,0-.312.156-.584.39-.584.195,0,.273-.273.156-.585a1.2,1.2,0,0,1,.234-1.169c.234-.312.351-.7.234-.9a12.994,12.994,0,0,1-.273-2.533,4.523,4.523,0,0,0-.39-2.221c-.546,0-.117-1.949.468-2.143.351-.117,4.052-.234,8.183-.273,5.066-.039,8.144-.195,9.313-.545,2.338-.7,4.52-.7,4.793,0,.273.662,4.949.857,4.949.195a.349.349,0,0,0-.351-.35c-.546,0-.273-1.169.39-1.6a2.94,2.94,0,0,1,1.364-.35,1.967,1.967,0,0,0,1.247-.468c.312-.313,2.1-.507,5.066-.585,6.235-.117,6.2-.117,8.962-.975,2.26-.7,3.819-1.949,3.351-2.727-.117-.156,0-.312.195-.312a.427.427,0,0,0,.429-.39c0-.74-1.52-.389-3.429.818a5.044,5.044,0,0,1-2.845,1.013l-.935-.156.9-.312c.468-.156.857-.468.857-.7s.117-.312.234-.156c.117.117.546-.078.974-.429a3.258,3.258,0,0,1,1.13-.7c.234-.039.507-.078.7-.117.156-.039,2.065-.078,4.247-.039l3.975.039.584-1.091a8.889,8.889,0,0,1,1.481-1.949,22.692,22.692,0,0,1,5.884-3c2.143-.351,6.507-3.78,6.507-5.143,0-.273,1.13-.857,2.494-1.325a12.975,12.975,0,0,0,3.351-1.559,6.505,6.505,0,0,1,1.286-.9q.468-.176-.234-.936c-.662-.779-.662-.818.779-1.558.9-.468,1.52-1.091,1.6-1.6.156-1.13,1.208-1.091,3.624.117a5.106,5.106,0,0,0,2.3.779c.234-.156.39-.117.39.078,0,.584,4.754.195,6.079-.507.74-.39,1.325-.818,1.325-.974a10.625,10.625,0,0,1,1.169-1.715,11.435,11.435,0,0,0,1.637-3c.467-1.6,1.753-2.494,3.078-2.143a1.467,1.467,0,0,0,1.286-.545c.351-.428.506-.74.39-.74a7.407,7.407,0,0,1,.974-2.221c.857-1.6,1.091-2.338.779-2.689-.273-.35-.117-1.091.623-2.65a7.262,7.262,0,0,1,1.325-2.182,7.333,7.333,0,0,0,1.364-2.261c.585-1.208,1.247-2.533,1.442-2.922a1.365,1.365,0,0,0,.156-1.052.429.429,0,0,1,.195-.584,7.776,7.776,0,0,0,.39-3.117c0-2.027.156-3.04.585-3.468s.507-.818.195-1.559a3,3,0,0,1-.156-1.6,1.2,1.2,0,0,0-.195-1.13c-.312-.35-.468-1.987-.429-4.4.039-2.1,0-3.935-.039-4.131-.039-.156-.078-.389-.117-.584a4.512,4.512,0,0,0-2.1-2.845,7.4,7.4,0,0,1-2.026-2.143c-1.481-2.844-4.832-8.534-5.144-8.65a.644.644,0,0,1-.312-.507c0-.623-3.156-3.234-4.481-3.7a6.327,6.327,0,0,1-2.221-1.4c-1.091-1.208-5.143-3.507-5.494-3.157-.156.117-.273,0-.273-.273s-.117-.429-.234-.273a3.566,3.566,0,0,1-1.715-.312,3.568,3.568,0,0,0-1.715-.312c-.117.156-.234.039-.234-.195s-.273-.351-.585-.234c-.312.156-.584.078-.584-.156s-.351-.312-.779-.195a4.637,4.637,0,0,1-2.455-.779,7.538,7.538,0,0,0-3.039-1.013,13.257,13.257,0,0,1-3.468-.429,1.2,1.2,0,0,0-.546-.038,6.437,6.437,0,0,1-1.559-.312,22.679,22.679,0,0,0-2.689-.662,21.738,21.738,0,0,1-3.039-.74c-.818-.312-1.52-.429-1.52-.312,0,.156-.195.078-.429-.156a1.02,1.02,0,0,0-.974-.234c-.312.117-.546,0-.546-.272s-.234-.39-.545-.273a1.706,1.706,0,0,1-1.286-.311,4.817,4.817,0,0,0-2.455-.585,5.7,5.7,0,0,1-2.689-.624,3.364,3.364,0,0,0-2.611-.429,5.2,5.2,0,0,1-1.909-.039c-.74-.74-5.962-.857-6.39-.156-.312.507-2.766.507-6.546,0-2.3-.312-2.1-2.1.273-2.494,1.832-.312,2.143-.74,1.6-2.221-.39-.974-.312-1.052.507-1.052.74,0,1.013.273,1.208,1.13.273,1.247,1.169,1.831,1.637,1.091a5.387,5.387,0,0,1,3.507-1.676,15.189,15.189,0,0,0,2.377-.585c.507-.195,1.091-.272,1.286-.117.195.117.351,0,.351-.234s.156-.35.351-.234.74-.116,1.247-.507a21.6,21.6,0,0,1,5.144-2.221.912.912,0,0,0,.39-.156,18.552,18.552,0,0,1,2.806-.545,5.312,5.312,0,0,0,1.169-.273,15.591,15.591,0,0,1,3.312-.545c.974-.156,2.494-.39,3.39-.624a5.686,5.686,0,0,1,2.221-.117,1.5,1.5,0,0,0,1.091-.078,3.543,3.543,0,0,1,1.481-.389c.546-.039,1.754-.2,2.728-.352.974-.116,2.221-.311,2.767-.35a4.671,4.671,0,0,0,1.442-.39.9.9,0,0,1,.818-.078c.195.117.818-.234,1.364-.74,1.286-1.169,2.182-1.247,3.078-.2a2.132,2.132,0,0,0,1.247.78c.312,0,.584.155.584.35s1.87.273,4.208.195c5.3-.155,5.221-.155,6.04-.857.351-.312.662-.468.662-.273,0,.156.273.039.662-.234.351-.311.7-.506.779-.468a.187.187,0,0,0,.234.078c.039,0,.351-.078.662-.156s1.637-.546,2.923-1.013a13.5,13.5,0,0,1,5.1-.779c2.1.039,2.961-.078,3.429-.545a2.135,2.135,0,0,0,.623-1.014c0-.195.429-.351.974-.351a1.351,1.351,0,0,0,1.208-.584c.156-.39.545-.506,1.13-.351.74.195.9.039,1.052-.935a2.607,2.607,0,0,0-2.26-3.039c-1.325-.234-1.169-.234-6.079-.117a19.1,19.1,0,0,1-4.053-.117c-.117-.156-.468-.156-.779-.039a1.257,1.257,0,0,1-1.052-.156,18.1,18.1,0,0,0-4.364-.467,17.3,17.3,0,0,1-4.247-.429.84.84,0,0,0-.857-.116c-.312.116-.546.039-.546-.156,0-.428-6.39-.351-7.793.117-1.6.506-17.145.662-17.145.155,0-.234-.156-.35-.351-.195a.428.428,0,0,1-.584-.117c-.234-.428-6.118-.389-6.741.039-.273.195-.507.195-.507,0,0-.155-.156-.116-.312.156-.195.272-2.416.467-6.9.545a38.968,38.968,0,0,0-7.092.467,1.257,1.257,0,0,1-1.052.156,1.02,1.02,0,0,0-.974.233c-.234.234-.429.312-.429.156s-.507-.039-1.13.273c-1.948,1.013-5.26-.39-4.832-2.065.117-.389.039-.818-.156-.935-.312-.195-.273-5.65.078-8.651.117-.857.234-1.831.234-2.143.039-.311.273-1.52.584-2.689a6.946,6.946,0,0,0,.312-2.415.456.456,0,0,1,.234-.546.456.456,0,0,0,.234-.546,6.257,6.257,0,0,1,.312-2.3,5.381,5.381,0,0,0,.351-2.182c-.117-.078-.039-.389.117-.662a3.861,3.861,0,0,0,.351-1.286c.039-.467.312-2.415.584-4.364a16.846,16.846,0,0,0-.039-6.429,27.916,27.916,0,0,1-.468-3.39c0-.233-.117-.467-.312-.467s-.351-.273-.351-.585c0-.9-.857-2.533-1.325-2.533-.273,0-.429-1.909-.429-5.844a29.309,29.309,0,0,0-.312-5.845c-.156,0-.273-.234-.234-.507.078-.857-.507-2.221-1.013-2.221a3.591,3.591,0,0,1-1.091-.2C157.782-552.714,157.12-552.363,156.613-551.818Zm3.468,86.154a4.768,4.768,0,0,1-.7,1.091,4.121,4.121,0,0,0-.779,2.182c0,1.286.312,1.52,1.091.741a14.1,14.1,0,0,1,4.676-1.169c.234-.039.468-.195.468-.35,0-.78,1.637.389,2.3,1.6.74,1.364,3.039,3.468,3.975,3.663.312.039,1.52.312,2.689.546s2.572.429,3.117.468c5.806.039,10.4.273,10.833.506a.715.715,0,0,0,.818.078,3.705,3.705,0,0,1,1.87.351c2.533.9,6.507,1.988,7.053,1.87a.344.344,0,0,1,.468.312c0,.234.156.35.351.234a4.085,4.085,0,0,1,1.948.351c.9.311,1.6.467,1.6.311,0-.116.234-.039.507.2a1.616,1.616,0,0,0,.857.429c3.351.311,8.845,4.169,10.521,7.481.818,1.52,2.143,6.234,1.909,6.625a.455.455,0,0,0,.234.545.474.474,0,0,1,.195.624.779.779,0,0,0,.039.818c.779,1.208.974,9,.273,9.7a1.077,1.077,0,0,0-.273.935,2.9,2.9,0,0,1-.584,1.754,3.164,3.164,0,0,0-.546,1.792c.117.312,0,.545-.273.545-.234,0-.312.156-.195.39.273.468-.857,2.728-1.364,2.728-.234,0-.39.272-.39.584,0,.545-.468.74-1.247.624-.195,0-.312.117-.312.351,0,.195-.234.389-.545.389-1.13,0-5.728,2.494-8.105,4.4a1.8,1.8,0,0,0-.7,1.169,7.344,7.344,0,0,1-1.87,2.493,16.26,16.26,0,0,0-2.065,2.3c-.312.779-15.781,8.728-17.028,8.728a.474.474,0,0,0-.467.468c0,.233-.117.351-.234.195-.156-.117-.74,0-1.325.312a39.883,39.883,0,0,1-5.066,1.948,15.7,15.7,0,0,0-1.987.74,3.108,3.108,0,0,1-1.675.351c-.117-.156-.234-.039-.234.194,0,.273-.117.429-.273.39a29.935,29.935,0,0,0-3.819,1.013c-1.909.624-3.9,1.169-4.364,1.247a16.312,16.312,0,0,0-1.909.545,1.8,1.8,0,0,1-1.364.156c-.195-.117-.351,0-.351.234a.343.343,0,0,1-.467.312c-.7-.156-5.377,1.325-5.377,1.675,0,.9-3.663,3.858-5.728,4.676-1.948.779-2.961.9-7.676.935-6.78,0-6.975-.156-4.6-3.78a27.328,27.328,0,0,0,1.637-2.727c0-.117-.624-.351-1.364-.468-1.792-.351-1.909-.7-.662-2.1,3.273-3.623,4.053-4.987,3.156-5.533-.39-.273-.546-1.091-.468-3.2.078-3.234.273-4.87.624-5.222a.882.882,0,0,0,0-.779c-.117-.311,0-.545.273-.545.234,0,.351-.156.195-.39a3.121,3.121,0,0,1,.351-1.714c.312-.74.468-1.442.312-1.559-.117-.117.039-.234.312-.234s.429-.117.273-.234c-.117-.156.039-.819.39-1.481a3.573,3.573,0,0,0,.585-1.519c-.039-.156.078-.273.273-.273.234,0,.351-1.13.312-2.533-.078-2.182.039-2.61.779-3.117.7-.507.818-.974.818-3.585.039-2.494.156-3.118.779-3.624.39-.312.663-.818.584-1.052a.611.611,0,0,1,.234-.662c.234-.156.312-.779.156-1.442a10.971,10.971,0,0,1,.234-3.391c.234-1.207.507-3.117.585-4.169a16.553,16.553,0,0,1,.234-2.065c.078-.039.117-.234.156-.429a1.016,1.016,0,0,1,.351-.663,1.747,1.747,0,0,0,.273-1.013c0-.389.195-.7.428-.7.2,0,.273-.195.156-.39a.934.934,0,0,1,.078-.9,7.962,7.962,0,0,0,.156-2.727c-.039-1.209.039-2.221.234-2.221.273,0,1.091-1.871,2.3-5.261a19.61,19.61,0,0,0,.351-3.312c.117-3.507.468-4.209,3.2-6.157.7-.468,1.169-1.091,1.091-1.363-.312-.818,2.533-1.754,4.676-1.52C159.107-465.82,160-465.7,160.081-465.664Z" transform="translate(-46.02 552.595)"/>
          <path id="Path_93" data-name="Path 93" class="cls-3" d="M319.851-481.545a7.755,7.755,0,0,1-1.676.351,12.606,12.606,0,0,0-1.753.273,4.007,4.007,0,0,1-.585.156c-.2.078-.468.155-.585.195-.156.078-3.2.234-7.676.351-.585.039-1.052.468-1.481,1.325a9.974,9.974,0,0,1-1.52,2.26,11.852,11.852,0,0,0-2.221,3.741,5,5,0,0,1-.273.818c-.234.662.039.9,1.364,1.052,1.09.117,4.4-1.6,4.4-2.3a2.388,2.388,0,0,1,.624-1.052c.467-.545,1.052-.623,3-.468,2.922.234,3.39.74,3.39,3.39a15.861,15.861,0,0,1-2.338,7.793c-.623,1.13-1.052,2.182-.9,2.3.117.156,0,.273-.311.312s.039.195.779.351c1.48.351,2.65-.156,3-1.247a1.546,1.546,0,0,1,.857-.858,7.391,7.391,0,0,0,1.715-1.169,10.759,10.759,0,0,1,3.507-1.793,35.809,35.809,0,0,0,3.624-1.364c1.871-.858,3.858-1.559,4.209-1.442.156.039.273-.116.273-.35s.273-.351.585-.234a.67.67,0,0,0,.779-.078c.195-.351,4.832-.273,6.235.078a21.491,21.491,0,0,1,4.676,1.831,15.089,15.089,0,0,0,5.338,1.558,4.259,4.259,0,0,0,2.143-.935c1.442-1.208,2.611-1.792,3.585-1.792a5.682,5.682,0,0,0,1.87-.468,6.344,6.344,0,0,1,2.494-.624c.818-.117,2.3-1.52,2.3-2.221,0-.468-.7-.585-3.741-.585a17.39,17.39,0,0,1-4.559-.428c-1.013-.546-2.221-1.754-2.221-2.221s-3.819-2.806-5.066-3.156c-1.948-.468-6.429-.234-7.443.39a16.265,16.265,0,0,1-3.078,1.324,11.727,11.727,0,0,0-5.066,2.806c-1.208,1.091-5.728,2.962-6.468,2.689a.626.626,0,0,0-.74.156,1.549,1.549,0,0,1-1.169.39c-.7,0-.858-.156-.7-.78.117-.429.351-.779.546-.779s.351-.312.351-.74a1.073,1.073,0,0,1,.779-.935c.7-.195.779-.545.779-3.741,0-3.039-.117-3.585-.74-3.9A1.182,1.182,0,0,0,319.851-481.545Z" transform="translate(-184.358 509.249)"/>
          <path id="Path_94" data-name="Path 94" class="cls-3" d="M64.654-312.4a5,5,0,0,0-1.364.935c-.818.74-1.013.74-2.494.273-1.481-.506-1.637-.467-2.26.273a11.58,11.58,0,0,1-3.156,1.909,12.9,12.9,0,0,0-2.806,1.481c-.39.546-1.442-.467-2.065-1.987-.662-1.558-1.4-1.637-3.468-.351a3.774,3.774,0,0,1-2.1.7,1,1,0,0,0-1.052.468,2.487,2.487,0,0,1-1.208.818,20.085,20.085,0,0,0-2.455.779,4.083,4.083,0,0,1-1.87.428c-.273-.273-1.676,1.052-1.676,1.6,0,.272-.156.506-.312.506-.351,0-1.286.741-3.312,2.533a8.59,8.59,0,0,1-4.988,2.143c-1.481,0-1.442-.741.039-2.143a4,4,0,0,0,1.169-1.792,1.2,1.2,0,0,1,.857-.974,4.648,4.648,0,0,0,1.6-.974,4.8,4.8,0,0,1,2.1-.974c.7-.117,1.286-.39,1.286-.545s.507-.507,1.091-.74a11.524,11.524,0,0,0,2.416-1.637l1.286-1.169-.9-.623c-.507-.351-.974-.467-1.13-.234a7.542,7.542,0,0,1-2.1,1.052,3.62,3.62,0,0,0-2.221,1.6c-.468,1.208-1.676,1.832-3.663,1.909-1.169.039-2.3.546-4.13,1.793-2.922,1.948-7.014,5.923-7.014,6.819,0,.311-.156.584-.39.584-.195,0-.273.507-.156,1.13.312,1.558-.273,2.494-4.014,6.234a20.988,20.988,0,0,0-3.507,4.286A5.1,5.1,0,0,1,9.439-284.3,18.806,18.806,0,0,0,6.556-277.8c0,.273-.156.507-.351.507-.156,0-.312.273-.312.623a2.333,2.333,0,0,1-.935,1.364,7.037,7.037,0,0,0-2.182,3.663,2.332,2.332,0,0,1-.818,1.208C.594-269.225.2-267.9.087-264.627c-.078,3.273.429,5.027.9,3.156.117-.546.429-1.013.623-1.013.662,0,.429.974-.584,2.3-.9,1.247-.9,1.363-.312,2.533.351.662.974,1.715,1.4,2.338.662.935.818,1.793.857,4.481.078,3.585.507,4.754,2.026,5.455.7.312.9.312.9-.156,0-1.169.857-.974,2.338.584a7.964,7.964,0,0,1,1.559,1.987.385.385,0,0,0,.39.351c.234,0,.39.234.39.545a.912.912,0,0,0,.623.779c.351.156.546.351.429.468a14.423,14.423,0,0,0,2.65,3.039c2.728,2.65,6.274,4.871,7.988,5.027.9.039,1.4,1.052.779,1.442-.312.2-.234.351.195.546.74.273,1.364,0,2.065-.974.662-.974,1.637-.506,1.637.818a4.8,4.8,0,0,0,2.026,3.78,11.913,11.913,0,0,0,3.663.507H35.43l.156-1.169a2.2,2.2,0,0,0-.117-1.442,4.635,4.635,0,0,1-.546-1.286c-.195-.74-.156-.857.156-.546a1.877,1.877,0,0,0,1.442.234c.74-.117.857-.273.507-.7-.234-.312-.584-.467-.74-.351a.429.429,0,0,1-.584-.195.474.474,0,0,0-.623-.195c-.195.156-.351.039-.351-.234s-.117-.39-.234-.273c-.507.546-11.729-4.325-13.093-5.65a18.086,18.086,0,0,0-1.87-1.442,48.658,48.658,0,0,1-5.845-5.65,9.22,9.22,0,0,0-1.13-1.325,5.792,5.792,0,0,1-1.364-2.767c-.117-.857-.429-1.559-.623-1.559-.234,0-.39-1.325-.39-3.078,0-2.844-.078-3.117-.818-3.351-.662-.234-.74-.35-.312-.623a3.1,3.1,0,0,1,1.4-.351c.9,0,1.013-1.013.156-1.519-.312-.2-.468-.936-.39-1.91a4.506,4.506,0,0,0-.117-1.87c-.156-.117-.117-.663.078-1.169s.234-.935.078-.935,0-.234.312-.506a6.328,6.328,0,0,0,.974-1.092c.234-.351.7-1.091,1.091-1.636.662-.935.662-1.091.117-2.182-1.052-2.026-.779-2.3,1.4-1.4.584.234.7.078.7-.9,0-.662-.156-1.324-.39-1.441-.779-.467-.39-1.754.623-2.143a14.481,14.481,0,0,0,2.65-1.754,10.536,10.536,0,0,1,1.948-1.364,2.848,2.848,0,0,0,.935-.7c.429-.351,1.831-1.637,3.2-2.806,4.442-3.818,7.014-6.351,7.014-6.819,0-.273.662-.974,1.481-1.6.779-.584,1.831-1.442,2.3-1.87,1.208-1.208,1.987-1.793,2.3-1.793a4.375,4.375,0,0,0,1.364-1.169c1.208-1.247,2.728-2.065,6.429-3.507,1.637-.624,2.572-1.248,3-2.027.351-.584.857-1.091,1.13-1.091a9.911,9.911,0,0,0,2.455-.974,19.051,19.051,0,0,1,2.26-.974,4.366,4.366,0,0,0,1.4-.779c1.715-1.208,8.027-3.117,10.326-3.117.779,0,1.4-.156,1.4-.39,0-.195.546-.624,1.169-.974.935-.507,1.091-.7.7-1.13C68.122-312.594,65.823-312.75,64.654-312.4Z" transform="translate(-0.079 406.111)"/>
        </g>
      </g>
      <g id="Group_932" data-name="Group 932" transform="translate(247.971)">
        <text id="Singles" class="cls-4" transform="translate(157 132)"><tspan x="-157.05" y="0">Singles</tspan></text>
        <text id="for" class="cls-5" transform="translate(379.348 129.784)"><tspan x="-45.864" y="0">for</tspan></text>
        <text id="Christ" class="cls-6" transform="translate(567.15 132)"><tspan x="-128.2" y="0">Christ</tspan></text>
        <text id="South_Bay" data-name="South Bay" class="cls-7" transform="translate(242.781 207.895)"><tspan x="-168.775" y="0">South Bay</tspan></text>
      </g>
    </g>
  </g>
</svg>
