<svg xmlns="http://www.w3.org/2000/svg" xmlns:xlink="http://www.w3.org/1999/xlink" viewBox="0 0 663 158">
  <defs>
    <style>
      .cls-1 {
        fill: #fff;
        stroke: #707070;
        opacity: 0.324;
      }

      .cls-2 {
        clip-path: url(#clip-path);
      }

      .cls-3 {
        fill: #006da0;
      }

      .cls-4, .cls-6 {
        font-size: 70px;
      }

      .cls-4 {
        font-family: Palanquin-Medium, Palanquin;
        font-weight: 500;
      }

      .cls-5 {
        font-size: 50px;
      }

      .cls-5, .cls-6 {
        font-family: Palanquin-SemiBold, Palanquin;
        font-weight: 600;
      }

      .cls-7 {
        fill: #0095da;
        font-size: 60px;
        font-family: DancingScript-Bold, Dancing Script;
        font-weight: 700;
      }
    </style>
    <clipPath id="clip-path">
      <rect id="Rectangle_449" data-name="Rectangle 449" class="cls-1" width="663" height="158" transform="translate(-2349 7849)"/>
    </clipPath>
  </defs>
  <g id="Mask_Group_145" data-name="Mask Group 145" class="cls-2" transform="translate(2349 -7849)">
    <g id="Group_912" data-name="Group 912" transform="translate(-3866 4725)">
      <g id="Group_886" data-name="Group 886" transform="translate(231.847 85.171)">
        <g id="Group_884" data-name="Group 884" transform="translate(1293.154 3043.611)">
          <path id="Path_87" data-name="Path 87" class="cls-3" d="M131.419-552.059a2.121,2.121,0,0,1-1.075.7c-.43,0-.914.7-.833,1.129.027.134-.081.215-.242.215-.134,0-.188.108-.108.269.215.35-.565,1.8-1.129,2.124-.269.161-.4.3-.3.3s-.161.618-.618,1.371a12.378,12.378,0,0,0-1.1,2.608c-.161.7-.457,1.72-.645,2.258-.215.565-.3,1.022-.215,1.022.108,0,.027.188-.161.4s-.269.4-.188.4c.107,0,0,.511-.215,1.1a7.1,7.1,0,0,0-.4,1.747c0,.35-.107.645-.269.645-.134,0-.188.161-.108.349a3.829,3.829,0,0,1-.269,1.478,3.62,3.62,0,0,0-.3,1.13,3.483,3.483,0,0,1-.4,1.183,2.94,2.94,0,0,0-.35,1.344c.108.081.054.161-.107.161-.134,0-.269.161-.3.323a5.9,5.9,0,0,1-.914,2.366c-.107,0-.134.161-.081.35.081.161-.134.457-.457.591a1.83,1.83,0,0,0-.833,1.21,3.628,3.628,0,0,1-.86,1.505,10.8,10.8,0,0,0-1.99,3.522.713.713,0,0,1-.027.35,27.916,27.916,0,0,0-.35,4.571l-.081,2.823-1.586.188a3.653,3.653,0,0,0-1.694.484c-.134.376-6.8.349-7.77-.027-1.156-.43-5.323-.484-7.851-.081a10.805,10.805,0,0,1-2.473.215.315.315,0,0,0-.376.161.315.315,0,0,1-.376.161,2.857,2.857,0,0,0-1.264.108,28,28,0,0,1-3.683.322,9.015,9.015,0,0,0-2.8.3.279.279,0,0,1-.376.054c-.134-.108-.242.053-.242.349,0,.35.376.618,1.371.914a5.151,5.151,0,0,0,1.721.323.45.45,0,0,1,.538.134c.161.269-1.129.457-1.882.3-.134-.027-.753-.08-1.344-.107a4.389,4.389,0,0,1-1.4-.242.889.889,0,0,0-.7-.027.736.736,0,0,1-.78-.4c-.43-.726-1.022-.726-1.022-.027,0,.3-.108.537-.242.537-.565,0-3.683,3.6-4.409,5.109a26.533,26.533,0,0,1-1.882,3.172c-1.183,1.774-.753,2.554,1.694,3.2a9.883,9.883,0,0,0,1.936.108,2.365,2.365,0,0,1,1.425.242c.215.35,2.742.35,2.957.027.081-.162,2.9-.269,6.8-.242,5.807.027,7.985-.08,10.136-.457a1.918,1.918,0,0,0,.538-.134c0-.269,1.909-.377,6.13-.35,5.7,0,5.915.027,5.7.538a2.146,2.146,0,0,0-.135.618c0,.135-.349.3-.806.4a2.2,2.2,0,0,0-.807.3,8.4,8.4,0,0,0,.726,1.21c.726,1.075.726,1.129.215,1.478-1.022.7-1.21.941-1.21,1.533,0,.618-.914,1.4-1.344,1.129a.583.583,0,0,0-.591.027,4.5,4.5,0,0,1-1.506.3c-1.4.081-3.119.86-3.226,1.452-.107.618,1.075.861,2.447.484a16.206,16.206,0,0,1,2.9-.35l1.748-.027-.054,2.259c-.054,1.747-.161,2.312-.484,2.5a.956.956,0,0,0-.43.753c0,.3-.108.537-.215.537-.134,0-.188.646-.108,1.452a4.574,4.574,0,0,1-.35,2.42,2.7,2.7,0,0,0-.376,1.049c.054.054.565.376,1.1.726a3.757,3.757,0,0,1,1.183,1.21,3.964,3.964,0,0,1-.027,2.662.615.615,0,0,0-.188.645,1.494,1.494,0,0,1-.107.807,3.422,3.422,0,0,0-.35,1.156c-.081.672-1.21.081-1.479-.78-.269-.753-.349-.833-.753-.538a6.462,6.462,0,0,0-.887,3.442.31.31,0,0,1-.108.4.4.4,0,0,0-.134.511.521.521,0,0,1-.135.565.3.3,0,0,0-.161.4,3.9,3.9,0,0,1-.242,1.586,3.564,3.564,0,0,0-.242,1.479c.081.081.027.322-.134.511-.188.215-.269.43-.188.484a5.19,5.19,0,0,1-.242,1.505,4.519,4.519,0,0,0-.242,1.532c.081.081.027.323-.134.511-.188.215-.269.43-.188.484a6.784,6.784,0,0,1-.242,1.72,20.086,20.086,0,0,0-.4,2.151,15.288,15.288,0,0,1-.269,2.016,24.81,24.81,0,0,0-.188,2.823c-.054,1.478-.188,3.414-.269,4.3s-.188,1.962-.188,2.419a3.141,3.141,0,0,1-.269,1.129.538.538,0,0,0-.054.591,8.67,8.67,0,0,1-.161,2.231c-.161,1.076-.323,2.259-.35,2.635a2.827,2.827,0,0,1-.242.995.952.952,0,0,0-.027.726,1.036,1.036,0,0,1-.054.753,3.346,3.346,0,0,0-.3,1.022c-.161,1.21-.242,1.586-.4,1.775-.108.081-.108.323-.027.538s0,.376-.188.376c-.161,0-.3.323-.269.726.081,1.264.027,1.425-.592,1.667a1.181,1.181,0,0,1-1.156-.108c-.484-.3-.672-.242-1.559.511-.726.618-.968.995-.833,1.318.081.242.242.4.349.323a6.15,6.15,0,0,1,1.774.376c1.049.323,1.667.7,1.882,1.129a11.276,11.276,0,0,1-.108,5.269c-.215.4-.242.35-.242-.188-.027-2.419-.726-5.243-.86-3.468a38.184,38.184,0,0,0,.511,8.98,4.328,4.328,0,0,1,.108,1.56.643.643,0,0,0,.134.538,1.5,1.5,0,0,1,.269.726c.027.215.081.7.161,1.076.054.376.108.914.134,1.21.054.511.054.511.4.054.4-.511.538-4.14.161-4.624a2.566,2.566,0,0,1-.188-1.076,7.757,7.757,0,0,0-.188-1.586l-.188-.78.645.78a4.124,4.124,0,0,1,.78,2.581,7.03,7.03,0,0,1,0,1.963c-.188.188-.269.726-.484,3.5a14.094,14.094,0,0,1-.376,2.527c-.269.484.242,1.694.645,1.559a3.485,3.485,0,0,0,.941-1.1c.592-.86.753-.968,1.425-.807,1.049.215,1.506-.242,1.721-1.694.081-.645.323-1.264.538-1.344.538-.188.134-.887-.538-.887a2.362,2.362,0,0,0-1.183.43c-.565.376-.591.376-.591-.269a6.4,6.4,0,0,1,.027-.86.683.683,0,0,0-.349-.43c-.511-.322.753-1.371,1.425-1.156,1.291.43,4.544-2.85,4.544-4.571,0-.215.108-.4.269-.4.134,0,.188-.188.107-.4a.83.83,0,0,1,.161-.806c.161-.215.242-.484.161-.618a8.964,8.964,0,0,1-.188-1.748,3.121,3.121,0,0,0-.269-1.532c-.376,0-.081-1.344.323-1.479.242-.081,2.8-.161,5.646-.188a33.64,33.64,0,0,0,6.426-.376c1.613-.484,3.119-.484,3.307,0,.188.457,3.414.591,3.414.134a.241.241,0,0,0-.242-.242c-.376,0-.188-.807.269-1.1a2.028,2.028,0,0,1,.941-.241,1.357,1.357,0,0,0,.86-.323c.215-.216,1.452-.35,3.5-.4,4.3-.081,4.275-.081,6.184-.672,1.559-.484,2.635-1.344,2.312-1.882-.081-.107,0-.215.134-.215a.294.294,0,0,0,.3-.269c0-.511-1.048-.269-2.366.565a3.481,3.481,0,0,1-1.963.7l-.645-.108.618-.215c.323-.107.591-.323.591-.484s.081-.215.161-.108c.081.08.376-.054.672-.3a2.248,2.248,0,0,1,.78-.484c.161-.027.35-.054.484-.08.107-.027,1.425-.054,2.93-.027l2.742.027.4-.752a6.133,6.133,0,0,1,1.022-1.345,15.658,15.658,0,0,1,4.06-2.07c1.479-.242,4.49-2.608,4.49-3.549,0-.188.78-.592,1.721-.914a8.953,8.953,0,0,0,2.312-1.076,4.49,4.49,0,0,1,.887-.618q.323-.121-.161-.646c-.457-.537-.457-.564.538-1.075.618-.323,1.049-.753,1.1-1.1.108-.78.833-.753,2.5.081a3.523,3.523,0,0,0,1.586.538c.161-.108.269-.081.269.054,0,.4,3.28.134,4.194-.35.511-.269.914-.564.914-.672a7.329,7.329,0,0,1,.807-1.183,7.89,7.89,0,0,0,1.129-2.07,1.812,1.812,0,0,1,2.124-1.479,1.013,1.013,0,0,0,.887-.376c.242-.3.349-.511.269-.511a5.109,5.109,0,0,1,.672-1.533c.591-1.1.753-1.613.538-1.855-.188-.242-.081-.753.43-1.828a5.011,5.011,0,0,1,.914-1.505,5.06,5.06,0,0,0,.941-1.56c.4-.833.86-1.747.995-2.016a.942.942,0,0,0,.108-.726.3.3,0,0,1,.134-.4,5.365,5.365,0,0,0,.269-2.151c0-1.4.108-2.1.4-2.393s.35-.565.134-1.076a2.068,2.068,0,0,1-.107-1.1.825.825,0,0,0-.135-.78,7.324,7.324,0,0,1-.3-3.038c.027-1.452,0-2.715-.027-2.85-.027-.108-.054-.269-.081-.4a3.113,3.113,0,0,0-1.452-1.963,5.109,5.109,0,0,1-1.4-1.479,57.037,57.037,0,0,0-3.549-5.968.444.444,0,0,1-.215-.35c0-.43-2.178-2.231-3.092-2.554a4.365,4.365,0,0,1-1.533-.968c-.753-.834-3.549-2.42-3.791-2.178-.108.081-.188,0-.188-.188s-.081-.3-.161-.188a2.461,2.461,0,0,1-1.183-.215,2.461,2.461,0,0,0-1.183-.215c-.081.108-.161.027-.161-.134s-.188-.242-.4-.161c-.215.108-.4.054-.4-.108s-.242-.215-.538-.134a3.2,3.2,0,0,1-1.694-.538,5.2,5.2,0,0,0-2.1-.7,9.148,9.148,0,0,1-2.393-.3.828.828,0,0,0-.376-.026,4.44,4.44,0,0,1-1.075-.215,15.644,15.644,0,0,0-1.855-.457,14.992,14.992,0,0,1-2.1-.511c-.565-.216-1.049-.3-1.049-.216,0,.108-.134.054-.3-.108a.7.7,0,0,0-.672-.161c-.215.081-.377,0-.377-.188s-.161-.269-.376-.188a1.177,1.177,0,0,1-.887-.215,3.324,3.324,0,0,0-1.694-.4,3.934,3.934,0,0,1-1.855-.43,2.321,2.321,0,0,0-1.8-.3,3.589,3.589,0,0,1-1.317-.027c-.511-.511-4.113-.592-4.409-.107-.215.35-1.909.35-4.517,0-1.586-.215-1.452-1.452.188-1.721,1.264-.215,1.479-.511,1.1-1.532-.269-.672-.215-.726.35-.726.511,0,.7.189.833.78.188.86.807,1.263,1.129.753a3.717,3.717,0,0,1,2.42-1.156,10.48,10.48,0,0,0,1.64-.4c.35-.134.753-.188.887-.081.134.081.242,0,.242-.161s.108-.242.242-.161.511-.08.86-.35a14.906,14.906,0,0,1,3.549-1.533.63.63,0,0,0,.269-.108,12.8,12.8,0,0,1,1.936-.376,3.664,3.664,0,0,0,.807-.188,10.758,10.758,0,0,1,2.285-.376c.672-.108,1.721-.269,2.339-.43a3.923,3.923,0,0,1,1.533-.081,1.036,1.036,0,0,0,.753-.054,2.444,2.444,0,0,1,1.022-.268c.376-.027,1.21-.135,1.882-.243.672-.08,1.532-.215,1.909-.242a3.223,3.223,0,0,0,.995-.269.619.619,0,0,1,.565-.054c.134.081.565-.161.941-.511.887-.807,1.506-.86,2.124-.135a1.471,1.471,0,0,0,.86.538c.215,0,.4.107.4.242a8.964,8.964,0,0,0,2.9.134c3.656-.107,3.6-.107,4.167-.591.242-.215.457-.323.457-.188,0,.107.188.027.457-.161.242-.215.484-.349.538-.323a.129.129,0,0,0,.161.054c.027,0,.242-.054.457-.108s1.129-.377,2.016-.7a9.318,9.318,0,0,1,3.522-.538c1.452.027,2.043-.054,2.366-.376a1.473,1.473,0,0,0,.43-.7c0-.134.3-.242.672-.242a.932.932,0,0,0,.833-.4c.108-.269.376-.349.78-.242.511.134.618.027.726-.645a1.8,1.8,0,0,0-1.559-2.1c-.914-.161-.807-.161-4.194-.081a13.181,13.181,0,0,1-2.8-.081c-.081-.108-.323-.108-.538-.027a.867.867,0,0,1-.726-.108,12.485,12.485,0,0,0-3.011-.322,11.939,11.939,0,0,1-2.93-.3.58.58,0,0,0-.592-.08c-.215.08-.376.027-.376-.108,0-.3-4.409-.242-5.377.081-1.1.349-11.83.457-11.83.107,0-.161-.107-.242-.242-.134a.3.3,0,0,1-.4-.081c-.161-.3-4.221-.269-4.651.027-.188.134-.35.134-.35,0,0-.107-.108-.08-.215.108-.134.188-1.667.322-4.759.376a26.884,26.884,0,0,0-4.893.322.867.867,0,0,1-.726.108.7.7,0,0,0-.672.161c-.161.161-.3.215-.3.108s-.35-.027-.78.188c-1.344.7-3.629-.269-3.334-1.425.081-.269.027-.564-.108-.645-.215-.135-.188-3.9.054-5.969.081-.591.161-1.263.161-1.478.027-.215.188-1.049.4-1.855a4.792,4.792,0,0,0,.215-1.666.315.315,0,0,1,.161-.377.315.315,0,0,0,.161-.377,4.318,4.318,0,0,1,.215-1.586,3.713,3.713,0,0,0,.242-1.506c-.081-.054-.027-.268.081-.457a2.664,2.664,0,0,0,.242-.887c.027-.322.215-1.667.4-3.011a11.623,11.623,0,0,0-.027-4.436,19.264,19.264,0,0,1-.323-2.339c0-.161-.081-.322-.215-.322s-.242-.188-.242-.4c0-.618-.592-1.748-.914-1.748-.188,0-.3-1.317-.3-4.032a20.222,20.222,0,0,0-.215-4.033c-.108,0-.188-.161-.161-.35.054-.591-.35-1.532-.7-1.532a2.478,2.478,0,0,1-.753-.135C132.226-552.678,131.768-552.435,131.419-552.059Zm2.393,59.444a3.289,3.289,0,0,1-.484.753,2.843,2.843,0,0,0-.538,1.505c0,.887.215,1.049.753.511a9.728,9.728,0,0,1,3.226-.807c.161-.027.323-.134.323-.242,0-.538,1.129.269,1.586,1.1a6.85,6.85,0,0,0,2.742,2.527c.215.027,1.049.215,1.855.377s1.774.3,2.151.323a52.471,52.471,0,0,1,7.474.349.493.493,0,0,0,.565.054,2.557,2.557,0,0,1,1.29.242,24.783,24.783,0,0,0,4.866,1.29.237.237,0,0,1,.323.215c0,.161.107.242.242.161a2.818,2.818,0,0,1,1.344.242c.618.215,1.1.322,1.1.215,0-.08.161-.027.35.135a1.115,1.115,0,0,0,.592.3c2.312.215,6.1,2.877,7.259,5.162a15.4,15.4,0,0,1,1.317,4.571.314.314,0,0,0,.161.376.327.327,0,0,1,.135.43.537.537,0,0,0,.027.564c.538.834.672,6.211.188,6.695a.743.743,0,0,0-.188.645,2,2,0,0,1-.4,1.21,2.183,2.183,0,0,0-.376,1.237c.081.215,0,.376-.188.376-.161,0-.215.108-.134.269.188.323-.592,1.882-.941,1.882-.161,0-.269.188-.269.4,0,.376-.323.511-.86.43-.134,0-.215.08-.215.242,0,.134-.161.269-.376.269-.78,0-3.952,1.72-5.592,3.038a1.243,1.243,0,0,0-.484.807,5.067,5.067,0,0,1-1.29,1.72,11.22,11.22,0,0,0-1.425,1.587c-.215.537-10.889,6.022-11.749,6.022a.327.327,0,0,0-.323.323c0,.161-.081.242-.161.134-.108-.08-.511,0-.914.215a27.522,27.522,0,0,1-3.5,1.344,10.837,10.837,0,0,0-1.371.511,2.144,2.144,0,0,1-1.156.242c-.081-.108-.161-.027-.161.134,0,.188-.081.3-.188.269a20.656,20.656,0,0,0-2.635.7c-1.317.43-2.689.807-3.011.861a11.257,11.257,0,0,0-1.317.376,1.242,1.242,0,0,1-.941.108c-.135-.081-.242,0-.242.161a.237.237,0,0,1-.322.215,10.585,10.585,0,0,0-3.71,1.156c0,.618-2.527,2.662-3.952,3.226-1.344.538-2.043.618-5.3.645-4.678,0-4.812-.108-3.172-2.608a18.862,18.862,0,0,0,1.129-1.882c0-.081-.43-.242-.941-.323-1.237-.242-1.317-.484-.457-1.452,2.258-2.5,2.8-3.441,2.178-3.818-.269-.188-.376-.753-.323-2.2.054-2.231.188-3.361.43-3.6a.608.608,0,0,0,0-.538c-.081-.215,0-.376.188-.376.161,0,.242-.108.134-.269a2.154,2.154,0,0,1,.242-1.183c.215-.511.323-.995.215-1.076-.081-.081.027-.161.215-.161s.3-.08.188-.161c-.081-.107.027-.565.269-1.022a2.465,2.465,0,0,0,.4-1.048c-.027-.108.054-.188.188-.188.161,0,.242-.78.215-1.748-.054-1.506.027-1.8.538-2.151.484-.35.565-.672.565-2.473.027-1.721.108-2.151.538-2.5.269-.215.457-.565.4-.726a.421.421,0,0,1,.161-.457c.161-.107.215-.538.108-.995a7.57,7.57,0,0,1,.161-2.339c.161-.833.35-2.151.4-2.877a11.424,11.424,0,0,1,.161-1.425c.054-.027.081-.162.108-.3a.7.7,0,0,1,.242-.457,1.205,1.205,0,0,0,.188-.7c0-.269.134-.484.3-.484.135,0,.188-.134.108-.269a.644.644,0,0,1,.054-.618,5.494,5.494,0,0,0,.107-1.882c-.027-.834.027-1.533.161-1.533.188,0,.753-1.291,1.586-3.63a13.531,13.531,0,0,0,.242-2.285c.081-2.42.323-2.9,2.2-4.248.484-.323.807-.753.753-.941-.215-.565,1.748-1.21,3.226-1.049C133.14-492.723,133.758-492.642,133.812-492.615Z" transform="translate(-55.113 552.596)"/>
          <path id="Path_88" data-name="Path 88" class="cls-3" d="M314.319-481.555a5.35,5.35,0,0,1-1.156.242,8.693,8.693,0,0,0-1.21.188,2.763,2.763,0,0,1-.4.108c-.135.054-.323.107-.4.134-.108.054-2.2.161-5.3.242-.4.027-.726.323-1.022.914a6.882,6.882,0,0,1-1.048,1.559,8.178,8.178,0,0,0-1.532,2.581,3.449,3.449,0,0,1-.188.565c-.161.457.027.618.941.726.752.08,3.038-1.1,3.038-1.586a1.648,1.648,0,0,1,.431-.726c.322-.376.726-.43,2.07-.323,2.016.161,2.339.511,2.339,2.339a10.944,10.944,0,0,1-1.613,5.377c-.43.78-.726,1.506-.618,1.586.081.108,0,.188-.215.215s.027.134.538.242c1.021.242,1.828-.108,2.07-.86a1.067,1.067,0,0,1,.592-.592,5.1,5.1,0,0,0,1.183-.806,7.424,7.424,0,0,1,2.42-1.237,24.706,24.706,0,0,0,2.5-.941,9.752,9.752,0,0,1,2.9-1c.107.027.188-.08.188-.242s.188-.242.4-.161a.462.462,0,0,0,.537-.054c.134-.242,3.334-.189,4.3.054a14.829,14.829,0,0,1,3.226,1.264,10.411,10.411,0,0,0,3.683,1.075,2.939,2.939,0,0,0,1.478-.645,4.223,4.223,0,0,1,2.474-1.237,3.92,3.92,0,0,0,1.29-.323,4.378,4.378,0,0,1,1.721-.43c.564-.08,1.586-1.048,1.586-1.532,0-.323-.484-.4-2.581-.4a12,12,0,0,1-3.145-.3c-.7-.376-1.532-1.21-1.532-1.532s-2.635-1.936-3.5-2.178a11.282,11.282,0,0,0-5.135.269,11.221,11.221,0,0,1-2.124.914,8.091,8.091,0,0,0-3.5,1.936c-.833.753-3.952,2.044-4.463,1.855a.432.432,0,0,0-.511.108,1.068,1.068,0,0,1-.806.269c-.484,0-.592-.108-.484-.538.081-.3.242-.538.377-.538s.242-.215.242-.511a.74.74,0,0,1,.538-.645c.484-.134.538-.376.538-2.581,0-2.1-.08-2.473-.511-2.688A.816.816,0,0,0,314.319-481.555Z" transform="translate(-220.833 500.669)"/>
          <path id="Path_89" data-name="Path 89" class="cls-3" d="M44.634-312.459a3.451,3.451,0,0,0-.941.645c-.565.511-.7.511-1.721.188-1.022-.349-1.129-.322-1.559.188a7.991,7.991,0,0,1-2.178,1.317A8.9,8.9,0,0,0,36.3-309.1c-.269.377-.995-.322-1.425-1.371-.457-1.075-.968-1.129-2.393-.242a2.6,2.6,0,0,1-1.452.484.692.692,0,0,0-.726.323,1.716,1.716,0,0,1-.833.565,13.859,13.859,0,0,0-1.694.538,2.817,2.817,0,0,1-1.29.3c-.188-.188-1.156.726-1.156,1.1,0,.188-.108.349-.215.349-.242,0-.887.511-2.285,1.748a5.927,5.927,0,0,1-3.441,1.479c-1.022,0-.995-.511.027-1.479a2.762,2.762,0,0,0,.807-1.237.828.828,0,0,1,.591-.672,3.207,3.207,0,0,0,1.1-.672,3.309,3.309,0,0,1,1.452-.672c.484-.081.887-.269.887-.376s.35-.35.753-.511a7.951,7.951,0,0,0,1.667-1.129l.887-.807-.618-.43c-.35-.242-.672-.323-.78-.161a5.2,5.2,0,0,1-1.452.726,2.5,2.5,0,0,0-1.532,1.1c-.323.834-1.156,1.264-2.527,1.318a5.458,5.458,0,0,0-2.85,1.237c-2.016,1.344-4.839,4.087-4.839,4.705,0,.215-.108.4-.269.4-.134,0-.188.35-.108.78.215,1.075-.188,1.721-2.769,4.3a14.481,14.481,0,0,0-2.42,2.957,3.515,3.515,0,0,1-.86,1.371,12.975,12.975,0,0,0-1.99,4.49c0,.188-.108.35-.242.35-.108,0-.215.188-.215.43a1.609,1.609,0,0,1-.645.941,4.855,4.855,0,0,0-1.506,2.527,1.609,1.609,0,0,1-.565.834c-.941.833-1.21,1.747-1.29,4.006-.054,2.258.3,3.468.618,2.178.081-.376.3-.7.43-.7.457,0,.3.672-.4,1.586-.618.86-.618.941-.215,1.747.242.457.672,1.183.968,1.613.457.645.565,1.237.591,3.092.054,2.473.35,3.28,1.4,3.764.484.215.618.215.618-.107,0-.807.591-.672,1.613.4a5.5,5.5,0,0,1,1.075,1.371.265.265,0,0,0,.269.242c.161,0,.269.161.269.376a.629.629,0,0,0,.43.538c.242.107.376.242.3.323a9.951,9.951,0,0,0,1.828,2.1c1.882,1.828,4.329,3.361,5.512,3.468.618.027.968.726.538.995-.215.135-.161.242.134.376.511.188.941,0,1.425-.672.457-.672,1.129-.349,1.129.565a3.308,3.308,0,0,0,1.4,2.608,8.219,8.219,0,0,0,2.527.35H24.47l.108-.807a1.516,1.516,0,0,0-.081-.995,3.2,3.2,0,0,1-.376-.887c-.134-.511-.108-.591.108-.377a1.3,1.3,0,0,0,.995.161c.511-.081.591-.188.35-.484-.161-.215-.4-.323-.511-.242a.3.3,0,0,1-.4-.134.327.327,0,0,0-.43-.134c-.134.107-.242.027-.242-.161s-.081-.269-.161-.188c-.35.377-8.093-2.984-9.033-3.9a12.477,12.477,0,0,0-1.29-.995,33.573,33.573,0,0,1-4.033-3.9,6.361,6.361,0,0,0-.78-.914,4,4,0,0,1-.941-1.909c-.081-.592-.3-1.075-.43-1.075-.161,0-.269-.914-.269-2.124,0-1.963-.054-2.151-.565-2.312-.457-.161-.511-.242-.215-.43a2.14,2.14,0,0,1,.968-.242c.618,0,.7-.7.108-1.048-.215-.135-.323-.646-.269-1.318a3.109,3.109,0,0,0-.081-1.29c-.108-.081-.081-.457.054-.807s.161-.645.054-.645,0-.161.215-.349a4.366,4.366,0,0,0,.672-.753c.161-.242.484-.753.753-1.129.457-.645.457-.753.081-1.506-.726-1.4-.538-1.586.968-.968.4.162.484.054.484-.619,0-.457-.108-.914-.269-.995-.538-.323-.269-1.21.43-1.479a9.991,9.991,0,0,0,1.828-1.21,7.269,7.269,0,0,1,1.344-.941,1.965,1.965,0,0,0,.645-.484c.3-.242,1.264-1.129,2.2-1.936,3.065-2.635,4.839-4.382,4.839-4.7,0-.188.457-.672,1.022-1.1.538-.4,1.264-.995,1.586-1.29.833-.834,1.371-1.237,1.586-1.237a3.018,3.018,0,0,0,.941-.807c.833-.86,1.882-1.425,4.436-2.419a3.725,3.725,0,0,0,2.07-1.4c.242-.4.591-.753.78-.753a6.837,6.837,0,0,0,1.694-.672,13.142,13.142,0,0,1,1.559-.672,3.013,3.013,0,0,0,.968-.538,20.355,20.355,0,0,1,7.125-2.151c.538,0,.968-.108.968-.269,0-.134.376-.43.807-.672.645-.35.753-.484.484-.78A4.091,4.091,0,0,0,44.634-312.459Z" transform="translate(-0.079 377.117)"/>
        </g>
      </g>
      <g id="Group_900" data-name="Group 900" transform="translate(333)">
        <text id="Singles" class="cls-4" transform="translate(1473.093 3200.066)"><tspan x="-109.935" y="0">Singles</tspan></text>
        <text id="for" class="cls-5" transform="translate(1625.093 3198.066)"><tspan x="-31.85" y="0">for</tspan></text>
        <text id="Christ" class="cls-6" transform="translate(1756.093 3200.066)"><tspan x="-89.74" y="0">Christ</tspan></text>
        <text id="South_Bay" data-name="South Bay" class="cls-7" transform="translate(1532 3252)"><tspan x="-117.75" y="0">South Bay</tspan></text>
      </g>
    </g>
  </g>
</svg>
