<svg xmlns="http://www.w3.org/2000/svg" viewBox="0 0 193.675 214.286">
  <g id="Group_534" data-name="Group 534" transform="translate(-460.277 -30.714)">
    <path id="Path_1" data-name="Path 1" d="M156.259-551.821a3.062,3.062,0,0,1-1.552,1.009c-.621,0-1.319,1.009-1.2,1.629.039.194-.116.31-.349.31-.194,0-.272.155-.155.388.31.5-.815,2.6-1.629,3.065-.388.233-.582.427-.427.427s-.233.892-.892,1.979a17.851,17.851,0,0,0-1.591,3.763c-.233,1.009-.66,2.483-.931,3.259-.31.815-.427,1.474-.31,1.474.155,0,.039.272-.233.582s-.388.582-.272.582c.155,0,0,.737-.31,1.591a10.242,10.242,0,0,0-.582,2.522c0,.5-.155.931-.388.931-.194,0-.272.233-.155.5a5.528,5.528,0,0,1-.388,2.134,5.214,5.214,0,0,0-.427,1.629,5.027,5.027,0,0,1-.582,1.707,4.241,4.241,0,0,0-.5,1.94c.155.116.078.233-.155.233-.194,0-.388.233-.427.466-.078.932-1.047,3.414-1.319,3.414-.155,0-.194.233-.116.5.116.232-.194.659-.659.853a2.64,2.64,0,0,0-1.2,1.746,5.238,5.238,0,0,1-1.241,2.173c-.892.814-2.949,4.5-2.871,5.082a1.029,1.029,0,0,1-.039.5,40.288,40.288,0,0,0-.5,6.6l-.116,4.074-2.289.272a5.273,5.273,0,0,0-2.444.7c-.194.543-9.815.5-11.212-.039-1.668-.621-7.682-.7-11.329-.116a15.523,15.523,0,0,1-3.569.31.454.454,0,0,0-.543.233.455.455,0,0,1-.543.233,4.121,4.121,0,0,0-1.823.155,40.376,40.376,0,0,1-5.315.465,13.042,13.042,0,0,0-4.035.427.4.4,0,0,1-.543.078c-.194-.155-.349.077-.349.5,0,.5.543.892,1.979,1.319a7.414,7.414,0,0,0,2.483.465.65.65,0,0,1,.776.194c.233.389-1.629.66-2.716.427-.194-.039-1.086-.117-1.94-.155a6.318,6.318,0,0,1-2.017-.349,1.284,1.284,0,0,0-1.009-.039,1.062,1.062,0,0,1-1.125-.582c-.621-1.047-1.474-1.047-1.474-.039,0,.427-.155.776-.349.776-.815,0-5.315,5.2-6.363,7.372a38.307,38.307,0,0,1-2.716,4.578c-1.707,2.56-1.086,3.686,2.444,4.616a14.221,14.221,0,0,0,2.793.155,3.412,3.412,0,0,1,2.056.349c.31.5,3.957.5,4.268.039.116-.233,4.19-.388,9.815-.349,8.38.039,11.523-.116,14.626-.66a2.749,2.749,0,0,0,.776-.193c0-.388,2.755-.543,8.846-.5,8.225,0,8.535.039,8.225.776a3.1,3.1,0,0,0-.194.892c0,.194-.5.427-1.164.582a3.185,3.185,0,0,0-1.164.426,12.11,12.11,0,0,0,1.047,1.746c1.048,1.552,1.048,1.629.31,2.133-1.474,1.009-1.746,1.358-1.746,2.212,0,.892-1.319,2.017-1.94,1.629a.843.843,0,0,0-.854.039,6.515,6.515,0,0,1-2.173.427c-2.017.116-4.5,1.241-4.656,2.095-.155.892,1.552,1.242,3.53.7a23.413,23.413,0,0,1,4.19-.5l2.522-.039-.078,3.259c-.078,2.522-.233,3.336-.7,3.608a1.381,1.381,0,0,0-.621,1.086c0,.427-.155.776-.31.776-.194,0-.272.931-.155,2.1a6.6,6.6,0,0,1-.5,3.492,3.889,3.889,0,0,0-.543,1.513c.078.078.815.543,1.591,1.047a5.419,5.419,0,0,1,1.707,1.746c.427,1.319.388,3.375-.039,3.841a.888.888,0,0,0-.272.931,2.157,2.157,0,0,1-.155,1.164,4.939,4.939,0,0,0-.5,1.668c-.116.97-1.746.116-2.134-1.125-.388-1.086-.5-1.2-1.086-.776-.621.5-1.629,4.384-1.28,4.966a.447.447,0,0,1-.155.582.583.583,0,0,0-.194.737.752.752,0,0,1-.194.814.436.436,0,0,0-.233.582,5.634,5.634,0,0,1-.349,2.289,5.144,5.144,0,0,0-.349,2.134c.116.117.039.466-.194.737-.272.31-.388.62-.272.7a7.493,7.493,0,0,1-.349,2.173,6.523,6.523,0,0,0-.349,2.211c.116.116.039.466-.194.737-.272.31-.388.621-.272.7a9.786,9.786,0,0,1-.349,2.483,28.994,28.994,0,0,0-.582,3.1,22.089,22.089,0,0,1-.388,2.91,35.767,35.767,0,0,0-.272,4.073c-.078,2.134-.272,4.927-.388,6.208s-.272,2.832-.272,3.492a4.535,4.535,0,0,1-.388,1.63.777.777,0,0,0-.078.853,12.509,12.509,0,0,1-.233,3.22c-.233,1.552-.466,3.259-.5,3.8a4.079,4.079,0,0,1-.349,1.435,1.373,1.373,0,0,0-.039,1.047,1.5,1.5,0,0,1-.078,1.086,4.825,4.825,0,0,0-.427,1.474c-.233,1.746-.349,2.289-.582,2.561-.155.116-.155.466-.039.776s0,.543-.272.543c-.233,0-.427.466-.388,1.047.116,1.823.039,2.056-.854,2.406a1.706,1.706,0,0,1-1.668-.155c-.7-.427-.97-.349-2.25.737-1.048.892-1.4,1.435-1.2,1.9.116.349.349.582.5.466a8.882,8.882,0,0,1,2.561.543c1.513.465,2.405,1.009,2.716,1.629.582,1.009.466,6.557-.155,7.6-.31.582-.349.5-.349-.272-.039-3.492-1.048-7.565-1.241-5a55.1,55.1,0,0,0,.737,12.958,6.245,6.245,0,0,1,.155,2.25.928.928,0,0,0,.194.776,2.162,2.162,0,0,1,.388,1.047c.039.31.116,1.009.233,1.552.078.543.155,1.319.194,1.746.078.737.078.737.582.078.582-.737.776-5.975.233-6.673a3.7,3.7,0,0,1-.272-1.552,11.192,11.192,0,0,0-.272-2.289l-.272-1.125.931,1.125c.7.854.97,1.746,1.125,3.725a10.141,10.141,0,0,1,0,2.832c-.272.272-.388,1.048-.7,5.044a20.33,20.33,0,0,1-.543,3.647c-.388.7.349,2.444.931,2.25a5.042,5.042,0,0,0,1.358-1.591c.854-1.241,1.086-1.4,2.056-1.164,1.513.311,2.173-.349,2.483-2.444.116-.931.466-1.823.776-1.94.776-.272.194-1.28-.776-1.28a3.406,3.406,0,0,0-1.707.62c-.815.543-.854.543-.854-.388a9.234,9.234,0,0,1,.039-1.242.986.986,0,0,0-.5-.621c-.737-.465,1.086-1.978,2.056-1.668,1.862.621,6.557-4.113,6.557-6.6,0-.31.155-.582.388-.582.194,0,.272-.272.155-.582a1.2,1.2,0,0,1,.233-1.164c.233-.31.349-.7.233-.892a12.929,12.929,0,0,1-.272-2.522,4.5,4.5,0,0,0-.388-2.211c-.543,0-.116-1.94.466-2.134.349-.116,4.035-.233,8.147-.272,5.044-.039,8.108-.194,9.272-.543,2.328-.7,4.5-.7,4.772,0,.272.66,4.927.854,4.927.194a.348.348,0,0,0-.349-.349c-.543,0-.272-1.164.388-1.59a2.922,2.922,0,0,1,1.358-.349,1.955,1.955,0,0,0,1.241-.466c.31-.311,2.1-.5,5.044-.582,6.207-.116,6.169-.116,8.923-.97,2.25-.7,3.8-1.94,3.336-2.716-.116-.155,0-.311.194-.311a.425.425,0,0,0,.427-.388c0-.737-1.513-.388-3.414.815a5.023,5.023,0,0,1-2.832,1.009l-.931-.155.892-.31c.466-.155.854-.466.854-.7s.116-.31.233-.155c.116.116.543-.078.97-.427a3.24,3.24,0,0,1,1.125-.7c.233-.039.5-.077.7-.116.155-.039,2.056-.077,4.229-.039l3.957.039.582-1.086a8.848,8.848,0,0,1,1.474-1.94,22.6,22.6,0,0,1,5.858-2.987c2.134-.349,6.479-3.763,6.479-5.121,0-.272,1.125-.854,2.483-1.319a12.921,12.921,0,0,0,3.336-1.552,6.478,6.478,0,0,1,1.28-.892q.466-.175-.233-.931c-.66-.776-.66-.815.776-1.552.892-.465,1.513-1.086,1.591-1.591.155-1.125,1.2-1.086,3.608.116a5.083,5.083,0,0,0,2.289.776c.233-.155.388-.116.388.077,0,.582,4.733.194,6.052-.5.737-.388,1.319-.815,1.319-.97a10.582,10.582,0,0,1,1.164-1.707,11.382,11.382,0,0,0,1.63-2.988c.465-1.59,1.746-2.483,3.065-2.134a1.461,1.461,0,0,0,1.28-.543c.349-.427.5-.737.388-.737a7.373,7.373,0,0,1,.97-2.212c.853-1.591,1.086-2.327.776-2.677-.272-.349-.116-1.086.621-2.638a7.235,7.235,0,0,1,1.319-2.172,7.3,7.3,0,0,0,1.358-2.251c.582-1.2,1.242-2.522,1.436-2.91a1.359,1.359,0,0,0,.155-1.047.427.427,0,0,1,.194-.582,7.742,7.742,0,0,0,.388-3.1c0-2.018.155-3.027.582-3.453s.5-.815.194-1.552a2.984,2.984,0,0,1-.155-1.591,1.19,1.19,0,0,0-.194-1.125c-.31-.349-.466-1.978-.427-4.384.039-2.095,0-3.918-.039-4.112-.039-.155-.077-.388-.116-.582a4.492,4.492,0,0,0-2.095-2.832,7.381,7.381,0,0,1-2.017-2.134c-1.474-2.831-4.811-8.5-5.121-8.613a.64.64,0,0,1-.31-.5c0-.621-3.143-3.22-4.462-3.686a6.3,6.3,0,0,1-2.211-1.4c-1.086-1.2-5.121-3.491-5.47-3.142-.155.116-.272,0-.272-.272s-.116-.427-.233-.271a3.548,3.548,0,0,1-1.707-.31,3.55,3.55,0,0,0-1.707-.31c-.116.155-.233.039-.233-.194s-.272-.349-.582-.233c-.31.155-.582.078-.582-.155s-.349-.31-.776-.194a4.611,4.611,0,0,1-2.444-.776,7.506,7.506,0,0,0-3.026-1.009,13.221,13.221,0,0,1-3.453-.427,1.193,1.193,0,0,0-.543-.039,6.364,6.364,0,0,1-1.552-.31,22.52,22.52,0,0,0-2.677-.659,21.461,21.461,0,0,1-3.026-.737c-.815-.31-1.513-.427-1.513-.31,0,.155-.194.078-.427-.155a1.016,1.016,0,0,0-.97-.233c-.31.116-.543,0-.543-.271s-.233-.388-.543-.272a1.7,1.7,0,0,1-1.28-.31,4.8,4.8,0,0,0-2.444-.582,5.677,5.677,0,0,1-2.677-.621,3.349,3.349,0,0,0-2.6-.427,5.186,5.186,0,0,1-1.9-.039c-.737-.737-5.936-.853-6.363-.155-.31.5-2.755.5-6.518,0-2.289-.31-2.1-2.1.272-2.483,1.823-.31,2.134-.737,1.591-2.211-.388-.97-.31-1.048.5-1.048.737,0,1.009.272,1.2,1.125.272,1.241,1.164,1.823,1.629,1.086a5.366,5.366,0,0,1,3.492-1.668,15.111,15.111,0,0,0,2.367-.582c.5-.194,1.086-.272,1.28-.116.194.116.349,0,.349-.233s.155-.349.349-.233.737-.116,1.242-.5a21.524,21.524,0,0,1,5.121-2.211.905.905,0,0,0,.388-.155,18.427,18.427,0,0,1,2.793-.543,5.276,5.276,0,0,0,1.164-.272,15.594,15.594,0,0,1,3.3-.543c.97-.155,2.483-.388,3.375-.621a5.666,5.666,0,0,1,2.211-.116,1.5,1.5,0,0,0,1.086-.078,3.536,3.536,0,0,1,1.474-.388c.543-.039,1.746-.194,2.716-.35.97-.116,2.211-.31,2.755-.349a4.672,4.672,0,0,0,1.435-.388.893.893,0,0,1,.815-.078c.194.116.815-.232,1.358-.737,1.28-1.164,2.173-1.241,3.065-.194a2.124,2.124,0,0,0,1.241.776c.31,0,.582.155.582.349s1.862.272,4.19.194c5.276-.155,5.2-.155,6.013-.853.349-.31.659-.466.659-.272,0,.155.272.039.66-.233.349-.31.7-.5.776-.466a.186.186,0,0,0,.233.078c.039,0,.349-.078.66-.155s1.629-.543,2.91-1.008a13.443,13.443,0,0,1,5.082-.776c2.1.039,2.949-.078,3.414-.543a2.123,2.123,0,0,0,.621-1.009c0-.194.427-.349.97-.349a1.344,1.344,0,0,0,1.2-.582c.155-.388.543-.5,1.125-.349.737.194.892.039,1.047-.931a2.6,2.6,0,0,0-2.25-3.026c-1.319-.233-1.164-.233-6.052-.116a18.963,18.963,0,0,1-4.035-.117c-.116-.155-.466-.155-.776-.038a1.255,1.255,0,0,1-1.047-.155,17.99,17.99,0,0,0-4.345-.465,17.25,17.25,0,0,1-4.229-.427.837.837,0,0,0-.853-.116c-.31.116-.543.039-.543-.156,0-.426-6.363-.349-7.759.117-1.591.5-17.07.659-17.07.155,0-.233-.155-.349-.349-.194a.427.427,0,0,1-.582-.116c-.233-.426-6.091-.388-6.712.039-.272.194-.5.194-.5,0,0-.155-.155-.116-.31.156-.194.271-2.405.465-6.867.543a38.767,38.767,0,0,0-7.061.465,1.255,1.255,0,0,1-1.048.155,1.015,1.015,0,0,0-.97.233c-.233.233-.427.31-.427.155s-.5-.039-1.125.272c-1.94,1.009-5.237-.388-4.811-2.056.116-.387.039-.815-.155-.931-.31-.194-.272-5.626.078-8.613.116-.854.233-1.823.233-2.134.039-.31.272-1.513.582-2.677a6.916,6.916,0,0,0,.31-2.405.454.454,0,0,1,.233-.543.454.454,0,0,0,.233-.543,6.229,6.229,0,0,1,.31-2.289,5.362,5.362,0,0,0,.349-2.172c-.116-.078-.039-.387.116-.66a3.839,3.839,0,0,0,.349-1.28c.039-.465.31-2.405.582-4.345a16.776,16.776,0,0,0-.039-6.4,27.75,27.75,0,0,1-.466-3.375c0-.232-.116-.465-.31-.465s-.349-.272-.349-.582c0-.892-.854-2.522-1.319-2.522-.271,0-.427-1.9-.427-5.819a29.188,29.188,0,0,0-.31-5.82c-.155,0-.272-.233-.233-.5.078-.853-.5-2.212-1.009-2.212a3.574,3.574,0,0,1-1.086-.194C157.423-552.714,156.764-552.365,156.259-551.821Zm3.453,85.779a4.741,4.741,0,0,1-.7,1.087,4.1,4.1,0,0,0-.776,2.172c0,1.281.31,1.513,1.086.737a14.021,14.021,0,0,1,4.656-1.164c.233-.039.466-.194.466-.349,0-.776,1.629.388,2.289,1.59.737,1.358,3.026,3.453,3.957,3.647.31.039,1.513.31,2.677.543s2.561.427,3.1.466c5.781.039,10.359.272,10.785.5a.713.713,0,0,0,.815.078,3.693,3.693,0,0,1,1.862.349c2.522.892,6.479,1.978,7.022,1.862a.342.342,0,0,1,.465.31c0,.233.155.349.349.233a4.069,4.069,0,0,1,1.94.349c.892.31,1.591.465,1.591.31,0-.116.233-.039.5.194a1.609,1.609,0,0,0,.853.427c3.336.31,8.807,4.151,10.475,7.449.815,1.513,2.134,6.207,1.9,6.6a.454.454,0,0,0,.233.543.471.471,0,0,1,.194.62.777.777,0,0,0,.039.815c.776,1.2.97,8.962.272,9.66a1.073,1.073,0,0,0-.272.931,2.883,2.883,0,0,1-.582,1.746,3.15,3.15,0,0,0-.543,1.785c.116.31,0,.543-.272.543-.233,0-.31.155-.194.388.272.466-.854,2.716-1.358,2.716-.233,0-.388.271-.388.582,0,.543-.465.737-1.241.621-.194,0-.31.116-.31.349,0,.194-.233.388-.543.388-1.125,0-5.7,2.483-8.07,4.384a1.793,1.793,0,0,0-.7,1.164,7.317,7.317,0,0,1-1.862,2.483,16.179,16.179,0,0,0-2.056,2.289c-.31.775-15.713,8.69-16.954,8.69a.472.472,0,0,0-.466.466c0,.233-.116.349-.233.194-.155-.116-.737,0-1.319.31a39.82,39.82,0,0,1-5.044,1.94,15.65,15.65,0,0,0-1.979.737,3.088,3.088,0,0,1-1.668.349c-.116-.155-.233-.039-.233.194,0,.272-.116.427-.272.388a29.719,29.719,0,0,0-3.8,1.009c-1.9.62-3.88,1.164-4.345,1.241a16.327,16.327,0,0,0-1.9.543,1.788,1.788,0,0,1-1.358.155c-.194-.116-.349,0-.349.233a.342.342,0,0,1-.466.31c-.7-.155-5.354,1.319-5.354,1.668,0,.892-3.647,3.841-5.7,4.656-1.94.776-2.949.892-7.643.931-6.751,0-6.944-.155-4.578-3.763a27.19,27.19,0,0,0,1.629-2.716c0-.116-.621-.349-1.358-.466-1.785-.349-1.9-.7-.66-2.1,3.259-3.608,4.035-4.966,3.143-5.509-.388-.272-.543-1.086-.466-3.181.078-3.22.272-4.85.621-5.2a.879.879,0,0,0,0-.776c-.116-.31,0-.543.272-.543.233,0,.349-.156.194-.388a3.106,3.106,0,0,1,.349-1.707c.31-.737.466-1.435.31-1.552-.116-.116.039-.232.31-.232s.427-.116.272-.233c-.116-.155.039-.815.388-1.474a3.56,3.56,0,0,0,.582-1.513c-.039-.155.077-.271.272-.271.233,0,.349-1.125.31-2.522-.078-2.173.039-2.6.776-3.1.7-.5.815-.97.815-3.569.039-2.483.155-3.1.776-3.608.388-.31.66-.815.582-1.047a.609.609,0,0,1,.233-.66c.233-.155.31-.776.155-1.435a10.919,10.919,0,0,1,.233-3.376c.233-1.2.5-3.1.582-4.151a16.53,16.53,0,0,1,.233-2.056c.078-.039.116-.233.155-.427a1.013,1.013,0,0,1,.349-.66,1.739,1.739,0,0,0,.272-1.008c0-.388.194-.7.427-.7.194,0,.272-.194.155-.388a.929.929,0,0,1,.078-.892,7.93,7.93,0,0,0,.155-2.715c-.039-1.2.039-2.212.233-2.212.272,0,1.086-1.862,2.289-5.237a19.524,19.524,0,0,0,.349-3.3c.116-3.492.466-4.19,3.181-6.13.7-.465,1.164-1.086,1.086-1.358-.31-.815,2.522-1.746,4.656-1.513C158.742-466.2,159.635-466.081,159.712-466.043Z" transform="translate(414.129 583.31)"/>
    <path id="Path_2" data-name="Path 2" d="M319.773-481.546a7.719,7.719,0,0,1-1.668.349,12.534,12.534,0,0,0-1.746.272,4.027,4.027,0,0,1-.582.155c-.194.077-.465.155-.582.194-.155.078-3.181.233-7.643.349-.582.039-1.047.466-1.474,1.319a9.945,9.945,0,0,1-1.513,2.25,11.8,11.8,0,0,0-2.211,3.725,4.977,4.977,0,0,1-.272.815c-.233.659.039.892,1.358,1.047,1.086.116,4.384-1.59,4.384-2.288a2.379,2.379,0,0,1,.621-1.048c.465-.543,1.047-.621,2.987-.466,2.91.233,3.375.737,3.375,3.375a15.793,15.793,0,0,1-2.328,7.759c-.621,1.125-1.048,2.173-.892,2.289.116.155,0,.272-.31.31s.039.194.776.349c1.474.349,2.638-.155,2.987-1.241a1.539,1.539,0,0,1,.854-.854,7.371,7.371,0,0,0,1.707-1.164,10.709,10.709,0,0,1,3.492-1.785,35.5,35.5,0,0,0,3.608-1.358,14.064,14.064,0,0,1,4.19-1.435c.155.039.272-.116.272-.349s.272-.349.582-.233a.667.667,0,0,0,.776-.078c.194-.349,4.811-.272,6.208.078a21.412,21.412,0,0,1,4.655,1.823,15.019,15.019,0,0,0,5.315,1.552,4.24,4.24,0,0,0,2.134-.931c1.435-1.2,2.6-1.785,3.569-1.785a5.666,5.666,0,0,0,1.862-.465,6.312,6.312,0,0,1,2.483-.621c.815-.116,2.289-1.513,2.289-2.212,0-.465-.7-.582-3.724-.582a17.3,17.3,0,0,1-4.539-.427c-1.009-.543-2.211-1.746-2.211-2.211s-3.8-2.794-5.044-3.143c-1.94-.465-6.4-.233-7.41.388a16.2,16.2,0,0,1-3.065,1.319A11.672,11.672,0,0,0,328-473.709c-1.2,1.086-5.7,2.949-6.44,2.677a.622.622,0,0,0-.737.155,1.543,1.543,0,0,1-1.164.388c-.7,0-.853-.155-.7-.776.116-.427.349-.776.543-.776s.349-.31.349-.737a1.068,1.068,0,0,1,.776-.931c.7-.194.776-.543.776-3.725,0-3.026-.116-3.569-.737-3.88A1.179,1.179,0,0,0,319.773-481.546Z" transform="translate(275.407 539.843)"/>
    <path id="Path_3" data-name="Path 3" d="M64.373-312.4a4.968,4.968,0,0,0-1.358.931c-.815.737-1.009.737-2.483.272-1.474-.5-1.629-.465-2.25.272a11.536,11.536,0,0,1-3.143,1.9,12.823,12.823,0,0,0-2.793,1.474c-.388.543-1.435-.466-2.056-1.979-.66-1.552-1.4-1.63-3.453-.349a3.756,3.756,0,0,1-2.1.7,1,1,0,0,0-1.048.466,2.476,2.476,0,0,1-1.2.815,20.071,20.071,0,0,0-2.444.776,4.066,4.066,0,0,1-1.862.427c-.272-.272-1.668,1.047-1.668,1.591,0,.271-.155.5-.31.5-.349,0-1.28.737-3.3,2.522a8.551,8.551,0,0,1-4.966,2.134c-1.474,0-1.435-.737.039-2.134a3.986,3.986,0,0,0,1.164-1.785,1.194,1.194,0,0,1,.854-.97,4.629,4.629,0,0,0,1.591-.97,4.773,4.773,0,0,1,2.1-.97c.7-.116,1.28-.388,1.28-.543s.5-.5,1.086-.737a11.46,11.46,0,0,0,2.405-1.63l1.28-1.164-.892-.621c-.5-.349-.97-.465-1.125-.233a7.508,7.508,0,0,1-2.1,1.047,3.6,3.6,0,0,0-2.211,1.591c-.466,1.2-1.668,1.823-3.647,1.9-1.164.039-2.289.543-4.112,1.785-2.91,1.94-6.983,5.9-6.983,6.789,0,.31-.155.582-.388.582-.194,0-.272.5-.155,1.125.31,1.552-.272,2.483-4,6.208a20.885,20.885,0,0,0-3.492,4.267A5.072,5.072,0,0,1,9.4-284.428a18.726,18.726,0,0,0-2.871,6.479c0,.272-.155.5-.349.5-.155,0-.31.272-.31.621a2.322,2.322,0,0,1-.931,1.358,7.007,7.007,0,0,0-2.173,3.647,2.321,2.321,0,0,1-.815,1.2C.592-269.414.2-268.095.087-264.836c-.078,3.259.427,5,.892,3.142.116-.543.427-1.009.621-1.009.66,0,.427.97-.582,2.289-.892,1.241-.892,1.358-.31,2.522.349.66.97,1.707,1.4,2.328.66.931.815,1.785.854,4.462.078,3.569.5,4.733,2.017,5.431.7.311.892.311.892-.155,0-1.164.854-.97,2.328.582a7.92,7.92,0,0,1,1.552,1.979.383.383,0,0,0,.388.349c.233,0,.388.233.388.543a.908.908,0,0,0,.621.776c.349.155.543.349.427.466a14.357,14.357,0,0,0,2.638,3.026c2.716,2.638,6.246,4.85,7.953,5,.892.039,1.4,1.048.776,1.435-.31.194-.233.349.194.543.737.272,1.358,0,2.056-.97.66-.97,1.629-.5,1.629.815a4.774,4.774,0,0,0,2.017,3.763,11.853,11.853,0,0,0,3.647.5h2.793l.155-1.164a2.188,2.188,0,0,0-.116-1.435,4.612,4.612,0,0,1-.543-1.28c-.194-.737-.155-.853.155-.543a1.869,1.869,0,0,0,1.435.233c.737-.116.854-.271.5-.7-.233-.311-.582-.466-.737-.349a.427.427,0,0,1-.582-.194.471.471,0,0,0-.621-.194c-.194.155-.349.039-.349-.233s-.116-.388-.233-.272c-.5.543-11.678-4.306-13.036-5.626a17.991,17.991,0,0,0-1.862-1.435,48.432,48.432,0,0,1-5.819-5.625,9.169,9.169,0,0,0-1.125-1.319,5.766,5.766,0,0,1-1.358-2.755c-.116-.853-.427-1.552-.621-1.552-.233,0-.388-1.319-.388-3.065,0-2.832-.078-3.1-.815-3.337-.66-.233-.737-.349-.31-.621a3.091,3.091,0,0,1,1.4-.349c.892,0,1.009-1.009.155-1.513-.31-.194-.466-.931-.388-1.9a4.487,4.487,0,0,0-.116-1.862c-.155-.116-.116-.66.078-1.164s.233-.931.078-.931,0-.233.31-.5a6.292,6.292,0,0,0,.97-1.086c.233-.349.7-1.086,1.086-1.629.66-.931.66-1.086.116-2.173-1.048-2.017-.776-2.289,1.4-1.4.582.233.7.078.7-.892,0-.66-.155-1.319-.388-1.435-.776-.465-.388-1.746.621-2.134a14.415,14.415,0,0,0,2.638-1.746,10.485,10.485,0,0,1,1.94-1.358,2.835,2.835,0,0,0,.931-.7c.427-.349,1.823-1.629,3.181-2.793,4.423-3.8,6.983-6.324,6.983-6.789,0-.272.66-.97,1.474-1.591.776-.582,1.823-1.435,2.289-1.862,1.2-1.2,1.979-1.785,2.289-1.785a4.353,4.353,0,0,0,1.358-1.164c1.2-1.241,2.716-2.056,6.4-3.492,1.629-.621,2.561-1.242,2.987-2.017.349-.582.854-1.086,1.125-1.086a9.858,9.858,0,0,0,2.444-.97,18.961,18.961,0,0,1,2.25-.97,4.345,4.345,0,0,0,1.4-.776c1.707-1.2,7.992-3.1,10.281-3.1.776,0,1.4-.155,1.4-.388,0-.194.543-.621,1.164-.97.931-.5,1.086-.7.7-1.125C67.826-312.594,65.537-312.749,64.373-312.4Z" transform="translate(460.197 436.418)"/>
  </g>
</svg>
