<svg xmlns="http://www.w3.org/2000/svg" viewBox="0 0 197 112">
  <defs>
    <style>
      .cls-1 {
        fill: #3d6e13;
      }

      .cls-2, .cls-3 {
        fill: #333;
      }

      .cls-2 {
        font-size: 72px;
        font-family: Love-Story-Rough, Love Story Rough;
        letter-spacing: 0.045em;
      }

      .cls-3 {
        font-size: 23px;
        font-family: Blacksword;
      }

      .cls-4 {
        fill: none;
        stroke: #333;
        stroke-width: 4px;
      }
    </style>
  </defs>
  <g id="Group_596" data-name="Group 596" transform="translate(-485 -26)">
    <g id="Group_350" data-name="Group 350" transform="translate(30)">
      <path id="Path_1" data-name="Path 1" class="cls-1" d="M100.955-552.35a.969.969,0,0,1-.491.319c-.2,0-.417.319-.381.516.012.061-.037.1-.111.1s-.086.049-.049.123c.1.16-.258.823-.516.97-.123.074-.184.135-.135.135s-.074.282-.282.626a5.649,5.649,0,0,0-.5,1.191c-.074.319-.209.786-.295,1.031s-.135.467-.1.467.012.086-.074.184-.123.184-.086.184,0,.233-.1.5a3.241,3.241,0,0,0-.184.8c0,.16-.049.295-.123.295s-.086.074-.049.16a1.75,1.75,0,0,1-.123.675,1.651,1.651,0,0,0-.135.516,1.59,1.59,0,0,1-.184.54,1.342,1.342,0,0,0-.16.614c.049.037.025.074-.049.074s-.123.074-.135.147a2.694,2.694,0,0,1-.417,1.081c-.049,0-.061.074-.037.16s-.061.209-.209.27a.835.835,0,0,0-.381.552,1.658,1.658,0,0,1-.393.688,4.929,4.929,0,0,0-.909,1.608.326.326,0,0,1-.012.16,12.75,12.75,0,0,0-.16,2.087l-.037,1.289-.724.086a1.669,1.669,0,0,0-.774.221,12.244,12.244,0,0,1-3.548-.012,10.959,10.959,0,0,0-3.585-.037,4.913,4.913,0,0,1-1.13.1.144.144,0,0,0-.172.074.144.144,0,0,1-.172.074,1.3,1.3,0,0,0-.577.049,12.787,12.787,0,0,1-1.682.147,4.126,4.126,0,0,0-1.277.135.127.127,0,0,1-.172.025c-.061-.049-.11.024-.11.16,0,.16.172.282.626.417a2.347,2.347,0,0,0,.786.147.206.206,0,0,1,.246.061c.074.123-.516.209-.859.135-.061-.012-.344-.037-.614-.049a2,2,0,0,1-.638-.111.406.406,0,0,0-.319-.012.336.336,0,0,1-.356-.184c-.2-.331-.467-.331-.467-.012,0,.135-.049.246-.111.246A7.966,7.966,0,0,0,76.5-530.3a12.121,12.121,0,0,1-.859,1.449c-.54.81-.344,1.166.774,1.461a4.5,4.5,0,0,0,.884.049,1.08,1.08,0,0,1,.651.111,2.038,2.038,0,0,0,1.351.012,17.955,17.955,0,0,1,3.106-.111,25.655,25.655,0,0,0,4.629-.209.871.871,0,0,0,.246-.061c0-.123.872-.172,2.8-.16,2.6,0,2.7.012,2.6.246a.981.981,0,0,0-.061.282c0,.061-.16.135-.368.184a1.007,1.007,0,0,0-.368.135,3.836,3.836,0,0,0,.332.553c.332.491.332.516.1.675-.467.319-.553.43-.553.7s-.417.638-.614.516a.267.267,0,0,0-.27.012,2.061,2.061,0,0,1-.688.135c-.638.037-1.424.393-1.473.663s.491.393,1.117.221a7.408,7.408,0,0,1,1.326-.16l.8-.012-.025,1.031c-.025.8-.074,1.056-.221,1.142a.437.437,0,0,0-.2.344c0,.135-.049.246-.1.246s-.086.295-.049.663a2.089,2.089,0,0,1-.16,1.105,1.23,1.23,0,0,0-.172.479c.025.025.258.172.5.331a1.715,1.715,0,0,1,.54.553,1.81,1.81,0,0,1-.012,1.216.281.281,0,0,0-.086.295.683.683,0,0,1-.049.368,1.564,1.564,0,0,0-.16.528c-.037.307-.553.037-.675-.356-.123-.344-.16-.381-.344-.246a2.95,2.95,0,0,0-.405,1.572.142.142,0,0,1-.049.184.184.184,0,0,0-.061.233.238.238,0,0,1-.061.258.138.138,0,0,0-.074.184,1.783,1.783,0,0,1-.111.724,1.628,1.628,0,0,0-.111.675c.037.037.012.147-.061.233s-.123.2-.086.221a2.371,2.371,0,0,1-.111.688,2.064,2.064,0,0,0-.11.7c.037.037.012.147-.061.233s-.123.2-.086.221a3.1,3.1,0,0,1-.11.786,9.174,9.174,0,0,0-.184.982,6.99,6.99,0,0,1-.123.921,11.316,11.316,0,0,0-.086,1.289c-.025.675-.086,1.559-.123,1.965s-.086.9-.086,1.1a1.435,1.435,0,0,1-.123.516.246.246,0,0,0-.025.27,3.959,3.959,0,0,1-.074,1.019c-.074.491-.147,1.031-.16,1.2a1.291,1.291,0,0,1-.11.454.434.434,0,0,0-.012.331.473.473,0,0,1-.025.344,1.527,1.527,0,0,0-.135.467c-.074.553-.111.724-.184.81-.049.037-.049.147-.012.246s0,.172-.086.172-.135.147-.123.331c.037.577.012.651-.27.761a.54.54,0,0,1-.528-.049c-.221-.135-.307-.111-.712.233-.332.282-.442.454-.381.6.037.11.11.184.16.147a2.812,2.812,0,0,1,.81.172c.479.147.761.319.859.516a5.15,5.15,0,0,1-.049,2.406c-.1.184-.111.16-.111-.086-.012-1.1-.332-2.394-.393-1.584a17.437,17.437,0,0,0,.233,4.1,1.976,1.976,0,0,1,.049.712.294.294,0,0,0,.061.246.684.684,0,0,1,.123.331c.012.1.037.319.074.491s.049.417.061.552c.025.233.025.233.184.025a4.254,4.254,0,0,0,.074-2.112,1.171,1.171,0,0,1-.086-.491,3.543,3.543,0,0,0-.086-.724l-.086-.356.295.356a1.883,1.883,0,0,1,.356,1.179,3.209,3.209,0,0,1,0,.9c-.086.086-.123.332-.221,1.6a6.434,6.434,0,0,1-.172,1.154c-.123.221.111.773.295.712a1.6,1.6,0,0,0,.43-.5c.27-.393.344-.442.651-.368.479.1.688-.11.786-.773.037-.295.147-.577.246-.614.246-.086.061-.405-.246-.405a1.078,1.078,0,0,0-.54.2c-.258.172-.27.172-.27-.123a2.922,2.922,0,0,1,.012-.393.312.312,0,0,0-.16-.2c-.233-.147.344-.626.651-.528.589.2,2.075-1.3,2.075-2.087,0-.1.049-.184.123-.184s.086-.086.049-.184a.379.379,0,0,1,.074-.368c.074-.1.111-.221.074-.282a4.091,4.091,0,0,1-.086-.8,1.425,1.425,0,0,0-.123-.7c-.172,0-.037-.614.147-.675.111-.037,1.277-.074,2.578-.086a15.35,15.35,0,0,0,2.934-.172c.737-.221,1.424-.221,1.51,0s1.559.27,1.559.061a.11.11,0,0,0-.11-.111c-.172,0-.086-.368.123-.5a.925.925,0,0,1,.43-.11.619.619,0,0,0,.393-.147,4.386,4.386,0,0,1,1.6-.184,7.157,7.157,0,0,0,2.824-.307c.712-.221,1.2-.614,1.056-.859-.037-.049,0-.1.061-.1a.135.135,0,0,0,.135-.123c0-.233-.479-.123-1.08.258a1.59,1.59,0,0,1-.9.319l-.295-.049.282-.1c.147-.049.27-.147.27-.221s.037-.1.074-.049.172-.025.307-.135a1.025,1.025,0,0,1,.356-.221c.074-.012.16-.025.221-.037s.651-.025,1.338-.012l1.252.012.184-.344a2.8,2.8,0,0,1,.467-.614,7.152,7.152,0,0,1,1.854-.945c.675-.111,2.05-1.191,2.05-1.621,0-.086.356-.27.786-.417a4.09,4.09,0,0,0,1.056-.491,2.054,2.054,0,0,1,.405-.282q.147-.055-.074-.295c-.209-.246-.209-.258.246-.491.282-.147.479-.344.5-.5.049-.356.381-.344,1.142.037a1.609,1.609,0,0,0,.724.246c.074-.049.123-.037.123.024,0,.184,1.5.061,1.915-.16.233-.123.417-.258.417-.307a3.35,3.35,0,0,1,.368-.54,3.6,3.6,0,0,0,.516-.945.828.828,0,0,1,.97-.675.462.462,0,0,0,.405-.172c.11-.135.16-.233.123-.233a2.333,2.333,0,0,1,.307-.7c.27-.5.344-.737.246-.847s-.037-.344.2-.835a2.29,2.29,0,0,1,.417-.687,2.309,2.309,0,0,0,.43-.712c.184-.381.393-.8.454-.921a.43.43,0,0,0,.049-.331.135.135,0,0,1,.061-.184,2.451,2.451,0,0,0,.123-.982c0-.639.049-.958.184-1.093s.16-.258.061-.491a.944.944,0,0,1-.049-.5.376.376,0,0,0-.061-.356,3.345,3.345,0,0,1-.135-1.387c.012-.663,0-1.24-.012-1.3s-.025-.123-.037-.184a1.422,1.422,0,0,0-.663-.9,2.336,2.336,0,0,1-.638-.675,26.068,26.068,0,0,0-1.621-2.726.2.2,0,0,1-.1-.16,3.688,3.688,0,0,0-1.412-1.166,2,2,0,0,1-.7-.442,4.232,4.232,0,0,0-1.731-.995c-.049.037-.086,0-.086-.086s-.037-.135-.074-.086a1.123,1.123,0,0,1-.54-.1,1.124,1.124,0,0,0-.54-.1c-.037.049-.074.012-.074-.061s-.086-.11-.184-.074-.184.025-.184-.049-.111-.1-.246-.061a1.459,1.459,0,0,1-.774-.246,2.376,2.376,0,0,0-.958-.319,4.181,4.181,0,0,1-1.093-.135.378.378,0,0,0-.172-.012,2.017,2.017,0,0,1-.491-.1,7.131,7.131,0,0,0-.847-.209,6.792,6.792,0,0,1-.958-.233c-.258-.1-.479-.135-.479-.1s-.061.025-.135-.049a.321.321,0,0,0-.307-.074c-.1.037-.172,0-.172-.086s-.074-.123-.172-.086a.537.537,0,0,1-.405-.1,1.518,1.518,0,0,0-.774-.184,1.8,1.8,0,0,1-.847-.2,1.06,1.06,0,0,0-.823-.135,1.642,1.642,0,0,1-.6-.012,3.074,3.074,0,0,0-2.014-.049c-.1.16-.872.16-2.063,0-.724-.1-.663-.663.086-.786.577-.1.675-.233.5-.7-.123-.307-.1-.332.16-.332.233,0,.319.086.381.356.086.393.368.577.516.344a1.7,1.7,0,0,1,1.105-.528,4.776,4.776,0,0,0,.749-.184c.16-.061.344-.086.405-.037s.11,0,.11-.074.049-.11.111-.074.233-.037.393-.16a6.811,6.811,0,0,1,1.621-.7.287.287,0,0,0,.123-.049,5.839,5.839,0,0,1,.884-.172,1.668,1.668,0,0,0,.368-.086,4.932,4.932,0,0,1,1.044-.172c.307-.049.786-.123,1.068-.2a1.794,1.794,0,0,1,.7-.037.473.473,0,0,0,.344-.025,1.119,1.119,0,0,1,.467-.123c.172-.012.553-.061.859-.111s.7-.1.872-.11a1.478,1.478,0,0,0,.454-.123.283.283,0,0,1,.258-.025c.061.037.258-.073.43-.233.405-.368.688-.393.97-.061a.672.672,0,0,0,.393.246c.1,0,.184.049.184.11a4.09,4.09,0,0,0,1.326.061c1.67-.049,1.645-.049,1.9-.27.11-.1.209-.147.209-.086s.086.012.209-.074.221-.16.246-.147a.059.059,0,0,0,.074.025c.012,0,.111-.025.209-.049s.516-.172.921-.319a4.255,4.255,0,0,1,1.608-.246c.663.012.933-.025,1.08-.172a.672.672,0,0,0,.2-.319c0-.061.135-.111.307-.111a.426.426,0,0,0,.381-.184c.049-.123.172-.16.356-.11.233.061.282.012.331-.295a.821.821,0,0,0-.712-.958,7.486,7.486,0,0,0-1.915-.037,6.007,6.007,0,0,1-1.277-.037c-.037-.049-.147-.049-.246-.012a.4.4,0,0,1-.331-.049,5.7,5.7,0,0,0-1.375-.147,5.459,5.459,0,0,1-1.338-.135.265.265,0,0,0-.27-.037c-.1.037-.172.012-.172-.049a7.213,7.213,0,0,0-2.456.037,30.824,30.824,0,0,1-5.4.049c0-.074-.049-.11-.111-.061a.135.135,0,0,1-.184-.037,5.627,5.627,0,0,0-2.124.012c-.086.061-.16.061-.16,0s-.049-.037-.1.049a7.492,7.492,0,0,1-2.173.172,12.269,12.269,0,0,0-2.235.147.4.4,0,0,1-.332.049.321.321,0,0,0-.307.074c-.074.074-.135.1-.135.049s-.16-.012-.356.086c-.614.319-1.658-.123-1.522-.651.037-.123.012-.258-.049-.295a11.646,11.646,0,0,1,.025-2.726c.037-.27.074-.577.074-.675s.086-.479.184-.847a2.189,2.189,0,0,0,.1-.761.144.144,0,0,1,.074-.172.144.144,0,0,0,.074-.172,1.972,1.972,0,0,1,.1-.724,1.7,1.7,0,0,0,.11-.687c-.037-.025-.012-.123.037-.209a1.216,1.216,0,0,0,.111-.405c.012-.147.1-.761.184-1.375a5.309,5.309,0,0,0-.012-2.026,8.784,8.784,0,0,1-.147-1.068c0-.074-.037-.147-.1-.147s-.11-.086-.11-.184c0-.282-.27-.8-.417-.8-.086,0-.135-.6-.135-1.842a9.237,9.237,0,0,0-.1-1.842c-.049,0-.086-.074-.074-.16.025-.27-.16-.7-.319-.7a1.128,1.128,0,0,1-.344-.061C101.324-552.633,101.115-552.522,100.955-552.35Zm1.093,27.147a1.5,1.5,0,0,1-.221.344,1.3,1.3,0,0,0-.246.688c0,.405.1.479.344.233a4.438,4.438,0,0,1,1.473-.368c.074-.012.147-.061.147-.11,0-.246.516.123.724.5a3.128,3.128,0,0,0,1.252,1.154c.1.012.479.1.847.172s.81.135.982.147a23.925,23.925,0,0,1,3.413.16.226.226,0,0,0,.258.025,1.169,1.169,0,0,1,.589.11,11.329,11.329,0,0,0,2.222.589.108.108,0,0,1,.147.1c0,.074.049.11.111.074a1.288,1.288,0,0,1,.614.111c.282.1.5.147.5.1s.074-.012.16.062a.509.509,0,0,0,.27.135,5.324,5.324,0,0,1,3.315,2.357,7.035,7.035,0,0,1,.6,2.087.144.144,0,0,0,.074.172.149.149,0,0,1,.061.2.246.246,0,0,0,.012.258,6.825,6.825,0,0,1,.086,3.057.339.339,0,0,0-.086.295.913.913,0,0,1-.184.552,1,1,0,0,0-.172.565c.037.1,0,.172-.086.172s-.1.049-.061.123c.086.147-.27.859-.43.859-.074,0-.123.086-.123.184,0,.172-.147.233-.393.2-.061,0-.1.037-.1.111s-.074.123-.172.123a8.1,8.1,0,0,0-2.554,1.388.568.568,0,0,0-.221.368,2.315,2.315,0,0,1-.589.786,5.119,5.119,0,0,0-.651.724,34.394,34.394,0,0,1-5.366,2.75.149.149,0,0,0-.147.147c0,.074-.037.11-.074.061s-.233,0-.417.1a12.6,12.6,0,0,1-1.6.614,4.944,4.944,0,0,0-.626.233.977.977,0,0,1-.528.111c-.037-.049-.074-.012-.074.061s-.037.135-.086.123a9.407,9.407,0,0,0-1.2.319c-.6.2-1.228.368-1.375.393a5.166,5.166,0,0,0-.6.172.566.566,0,0,1-.43.049c-.061-.037-.11,0-.11.074a.108.108,0,0,1-.147.1,4.833,4.833,0,0,0-1.694.528c0,.282-1.154,1.216-1.8,1.473a5.554,5.554,0,0,1-2.419.295c-2.136,0-2.2-.049-1.449-1.191a8.6,8.6,0,0,0,.516-.859c0-.037-.2-.11-.43-.147-.565-.111-.6-.221-.209-.663,1.031-1.142,1.277-1.572.995-1.744-.123-.086-.172-.344-.147-1.007a4.018,4.018,0,0,1,.2-1.645.278.278,0,0,0,0-.246c-.037-.1,0-.172.086-.172s.111-.049.061-.123a.983.983,0,0,1,.111-.54c.1-.233.147-.454.1-.491s.012-.074.1-.074.135-.037.086-.074.012-.258.123-.467a1.127,1.127,0,0,0,.184-.479c-.012-.049.025-.086.086-.086s.111-.356.1-.8c-.025-.688.012-.823.246-.982s.258-.307.258-1.13c.012-.786.049-.982.246-1.142.123-.1.209-.258.184-.331a.193.193,0,0,1,.074-.209c.074-.049.1-.246.049-.454a3.456,3.456,0,0,1,.074-1.068c.074-.381.16-.982.184-1.314a5.233,5.233,0,0,1,.074-.651c.025-.012.037-.074.049-.135a.32.32,0,0,1,.111-.209.55.55,0,0,0,.086-.319c0-.123.061-.221.135-.221s.086-.061.049-.123a.294.294,0,0,1,.025-.282,2.51,2.51,0,0,0,.049-.859c-.012-.381.012-.7.074-.7a5.528,5.528,0,0,0,.724-1.658,6.181,6.181,0,0,0,.111-1.044,1.844,1.844,0,0,1,1.007-1.94c.221-.147.368-.344.344-.43-.1-.258.8-.553,1.473-.479C101.741-525.253,102.024-525.216,102.048-525.2Z" transform="translate(394.169 583.31)"/>
      <path id="Path_2" data-name="Path 2" class="cls-1" d="M307.629-481.566a2.441,2.441,0,0,1-.528.11,3.969,3.969,0,0,0-.553.086,1.265,1.265,0,0,1-.184.049c-.061.024-.147.049-.184.061s-1.007.074-2.419.11c-.184.012-.332.147-.467.418a3.147,3.147,0,0,1-.479.712,3.733,3.733,0,0,0-.7,1.179,1.574,1.574,0,0,1-.086.258c-.074.209.012.282.43.331.344.037,1.387-.5,1.387-.724a.753.753,0,0,1,.2-.332c.147-.172.331-.2.945-.147.921.074,1.068.233,1.068,1.068a5,5,0,0,1-.737,2.456c-.2.356-.332.688-.282.724s0,.086-.1.1.012.061.246.11c.467.11.835-.049.945-.393a.487.487,0,0,1,.27-.27,2.332,2.332,0,0,0,.54-.368,3.39,3.39,0,0,1,1.105-.565,11.249,11.249,0,0,0,1.142-.43,4.45,4.45,0,0,1,1.326-.454c.049.012.086-.037.086-.111s.086-.111.184-.074a.211.211,0,0,0,.245-.025,5.863,5.863,0,0,1,1.965.025,6.775,6.775,0,0,1,1.473.577,4.753,4.753,0,0,0,1.682.491,1.342,1.342,0,0,0,.675-.295,1.929,1.929,0,0,1,1.13-.565,1.793,1.793,0,0,0,.589-.147,2,2,0,0,1,.786-.2c.258-.037.724-.479.724-.7,0-.147-.221-.184-1.179-.184a5.475,5.475,0,0,1-1.437-.135c-.319-.172-.7-.552-.7-.7a4.9,4.9,0,0,0-1.6-.995,5.153,5.153,0,0,0-2.345.123,5.132,5.132,0,0,1-.97.417,3.693,3.693,0,0,0-1.6.884,4.788,4.788,0,0,1-2.038.847.2.2,0,0,0-.233.049.488.488,0,0,1-.368.123c-.221,0-.27-.049-.221-.246.037-.135.111-.246.172-.246s.11-.1.11-.233a.338.338,0,0,1,.246-.295c.221-.061.246-.172.246-1.179,0-.958-.037-1.13-.233-1.228A.373.373,0,0,0,307.629-481.566Z" transform="translate(195.341 521.009)"/>
      <path id="Path_3" data-name="Path 3" class="cls-1" d="M20.427-312.53a1.573,1.573,0,0,0-.43.295c-.258.233-.319.233-.786.086s-.516-.147-.712.086a3.651,3.651,0,0,1-.995.6,4.057,4.057,0,0,0-.884.467c-.123.172-.454-.147-.651-.626s-.442-.516-1.093-.111a1.189,1.189,0,0,1-.663.221.316.316,0,0,0-.332.147.784.784,0,0,1-.381.258,6.351,6.351,0,0,0-.774.246,1.286,1.286,0,0,1-.589.135c-.086-.086-.528.331-.528.5,0,.086-.049.16-.1.16-.111,0-.405.233-1.044.8a2.706,2.706,0,0,1-1.572.675c-.467,0-.454-.233.012-.675a1.262,1.262,0,0,0,.368-.565.378.378,0,0,1,.27-.307,1.465,1.465,0,0,0,.5-.307,1.51,1.51,0,0,1,.663-.307c.221-.037.405-.123.405-.172s.16-.16.344-.233a3.627,3.627,0,0,0,.761-.516l.405-.368-.282-.2c-.16-.11-.307-.147-.356-.074a2.377,2.377,0,0,1-.663.332,1.14,1.14,0,0,0-.7.5c-.147.381-.528.577-1.154.6a2.492,2.492,0,0,0-1.3.565,7.549,7.549,0,0,0-2.21,2.149c0,.1-.049.184-.123.184s-.086.16-.049.356c.1.491-.086.786-1.265,1.965A6.611,6.611,0,0,0,3.422-304.3a1.605,1.605,0,0,1-.393.626,5.926,5.926,0,0,0-.909,2.05c0,.086-.049.16-.111.16s-.1.086-.1.2a.735.735,0,0,1-.295.43,2.217,2.217,0,0,0-.688,1.154.735.735,0,0,1-.258.381c-.43.381-.553.8-.589,1.829s.135,1.584.282.995c.037-.172.135-.319.2-.319.209,0,.135.307-.184.724-.282.393-.282.43-.1.8.111.209.307.54.442.737.209.295.258.565.27,1.412.025,1.13.16,1.5.638,1.719.221.1.282.1.282-.049,0-.368.27-.307.737.184a2.506,2.506,0,0,1,.491.626.121.121,0,0,0,.123.111c.074,0,.123.074.123.172a.287.287,0,0,0,.2.246c.111.049.172.11.135.147a4.544,4.544,0,0,0,.835.958,5.874,5.874,0,0,0,2.517,1.584c.282.012.442.332.246.454-.1.061-.074.111.061.172.233.086.43,0,.651-.307s.516-.16.516.258a1.511,1.511,0,0,0,.638,1.191,3.751,3.751,0,0,0,1.154.16h.884l.049-.368a.692.692,0,0,0-.037-.454,1.46,1.46,0,0,1-.172-.405c-.061-.233-.049-.27.049-.172a.592.592,0,0,0,.454.074c.233-.037.27-.086.16-.221-.074-.1-.184-.147-.233-.111a.135.135,0,0,1-.184-.061.149.149,0,0,0-.2-.061c-.061.049-.111.012-.111-.074s-.037-.123-.074-.086a15.484,15.484,0,0,1-4.125-1.78,5.692,5.692,0,0,0-.589-.454,15.329,15.329,0,0,1-1.842-1.78,2.9,2.9,0,0,0-.356-.417,1.825,1.825,0,0,1-.43-.872c-.037-.27-.135-.491-.2-.491s-.123-.417-.123-.97c0-.9-.025-.982-.258-1.056-.209-.074-.233-.11-.1-.2a.978.978,0,0,1,.442-.111c.282,0,.319-.319.049-.479-.1-.061-.147-.295-.123-.6a1.42,1.42,0,0,0-.037-.589c-.049-.037-.037-.209.025-.368s.074-.295.025-.295,0-.074.1-.16a1.991,1.991,0,0,0,.307-.344c.074-.11.221-.344.344-.516.209-.295.209-.344.037-.688-.332-.638-.246-.724.442-.442.184.074.221.025.221-.282,0-.209-.049-.417-.123-.454-.246-.147-.123-.553.2-.675a4.561,4.561,0,0,0,.835-.553,3.318,3.318,0,0,1,.614-.43.9.9,0,0,0,.295-.221c.135-.11.577-.516,1.007-.884a11.949,11.949,0,0,0,2.21-2.149c0-.086.209-.307.467-.5s.577-.454.724-.589c.381-.381.626-.565.724-.565a1.378,1.378,0,0,0,.43-.368,5.272,5.272,0,0,1,2.026-1.105,1.7,1.7,0,0,0,.945-.638c.111-.184.27-.344.356-.344a3.12,3.12,0,0,0,.774-.307,6,6,0,0,1,.712-.307,1.376,1.376,0,0,0,.442-.246,9.3,9.3,0,0,1,3.254-.982c.246,0,.442-.049.442-.123s.172-.2.368-.307c.295-.16.344-.221.221-.356A1.868,1.868,0,0,0,20.427-312.53Z" transform="translate(460.197 372.773)"/>
    </g>
    <text id="SFC" class="cls-2" transform="translate(559 91)"><tspan x="0" y="0">SFC</tspan></text>
    <text id="South_Bay_Chapter" data-name="South Bay Chapter" class="cls-3" transform="translate(486 126)"><tspan x="0" y="0">South Bay Chapter</tspan></text>
    <line id="Line_6" data-name="Line 6" class="cls-4" x2="96" transform="translate(557.5 98.5)"/>
  </g>
</svg>
